<svg id="Layer_1" enable-background="new 0 0 256 256" height="512" viewBox="0 0 256 256" width="512" xmlns="http://www.w3.org/2000/svg"><path d="m119.952 182.085h-19.915v-12.943c-5.509 3.819-11.208 6.072-16.738 6.072-5.306 0-10.904-2.275-16.389-6.139h-.338v13.01h-19.926c-16.648 0-30.142 13.494-30.142 30.142v27.315h133.591v-27.315c-.001-16.648-13.495-30.142-30.143-30.142z" fill="#f8e4c8"/><path d="m119.952 180.585h-18.415v-11.443c0-.558-.31-1.07-.805-1.329-.494-.258-1.091-.222-1.55.096-5.556 3.852-10.899 5.805-15.884 5.805-4.776 0-10-1.974-15.524-5.866-.253-.178-.555-.274-.864-.274h-.338c-.828 0-1.5.671-1.5 1.5v11.511h-18.426c-17.448 0-31.643 14.194-31.643 31.642v27.315c0 .829.672 1.5 1.5 1.5h33.567c.828 0 1.5-.671 1.5-1.5s-.672-1.5-1.5-1.5h-32.067v-25.815c0-15.793 12.849-28.642 28.643-28.642h19.927c.828 0 1.5-.671 1.5-1.5v-10.43c5.313 3.359 10.427 5.059 15.227 5.059 4.879 0 9.995-1.615 15.238-4.806v10.177c0 .829.672 1.5 1.5 1.5h19.915c15.794 0 28.643 12.849 28.643 28.642v25.815h-84.792c-.828 0-1.5.671-1.5 1.5s.672 1.5 1.5 1.5h86.291c.828 0 1.5-.671 1.5-1.5v-27.315c0-17.448-14.195-31.642-31.643-31.642z" fill="#3a312a"/><path d="m119.951 182.072h-4.763l.121.097-20.714 27.465-10.69-8.048-10.69 8.048-20.714-27.465.121-.097h-5.975c-16.653 0-30.144 13.502-30.144 30.143v27.332h133.591v-27.332c.001-16.641-13.489-30.143-30.143-30.143z" fill="#d7e057"/><path d="m119.951 180.572h-4.763c-.636 0-1.203.401-1.415 1.001-.025.071-.044.144-.059.217l-19.414 25.744-9.493-7.147c-.535-.402-1.27-.402-1.805 0l-9.493 7.147-19.414-25.742c-.014-.073-.033-.145-.058-.216-.211-.602-.778-1.004-1.416-1.004h-5.975c-17.449 0-31.645 14.195-31.645 31.644v27.332c0 .829.672 1.5 1.5 1.5h33.569c.828 0 1.5-.671 1.5-1.5s-.672-1.5-1.5-1.5h-32.067v-25.832c0-15.794 12.85-28.644 28.645-28.644h5.033l20.337 26.965c.499.661 1.438.792 2.1.295l9.788-7.369 9.788 7.369c.662.499 1.601.367 2.1-.295l20.336-26.965h3.822c15.794 0 28.644 12.85 28.644 28.644v25.832h-84.792c-.828 0-1.5.671-1.5 1.5s.672 1.5 1.5 1.5h86.291c.828 0 1.5-.671 1.5-1.5v-27.332c0-17.448-14.196-31.644-31.644-31.644z" fill="#3a312a"/><path d="m52.504 182.17.12-.1h-5.98c-16.65 0-30.14 13.5-30.14 30.15v27.33h56.4z" fill="#87796f"/><path d="m74.316 239.047-20.2-56.821c.022-.221-.003-.449-.082-.667-.215-.594-.778-.989-1.41-.989h-5.98c-17.446 0-31.64 14.198-31.64 31.65v27.33c0 .829.672 1.5 1.5 1.5h33.566c.828 0 1.5-.671 1.5-1.5s-.672-1.5-1.5-1.5h-32.066v-25.83c0-15.798 12.848-28.65 28.64-28.65h4.766l19.369 54.48h-6.975c-.828 0-1.5.671-1.5 1.5s.672 1.5 1.5 1.5h9.1c.487 0 .944-.237 1.226-.635.28-.398.349-.908.186-1.368z" fill="#3a312a"/><path d="m119.954 182.07h-4.77l.13.1-20.4 57.38h55.18v-27.33c0-16.65-13.49-30.15-30.14-30.15z" fill="#87796f"/><path d="m119.953 180.57h-4.77c-.642 0-1.213.409-1.42 1.016-.074.218-.096.443-.069.661l-20.193 56.8c-.163.459-.094.969.188 1.367.281.398.738.635 1.226.635h55.18c.828 0 1.5-.671 1.5-1.5v-27.33c-.001-17.451-14.196-31.649-31.642-31.649zm28.641 57.48h-51.555l19.369-54.48h3.545c15.793 0 28.641 12.853 28.641 28.65z" fill="#3a312a"/><path clip-rule="evenodd" d="m31.541 95.503c-6.55 0-11.861 5.31-11.861 11.86s5.31 11.86 11.861 11.86c6.55 0 11.86-5.31 11.86-11.86s-5.31-11.86-11.86-11.86z" fill="#f8e4c8" fill-rule="evenodd"/><path d="m31.541 94.003c-7.367 0-13.361 5.994-13.361 13.36s5.994 13.36 13.361 13.36 13.36-5.994 13.36-13.36-5.993-13.36-13.36-13.36zm0 23.721c-5.713 0-10.361-4.647-10.361-10.36s4.648-10.36 10.361-10.36 10.36 4.647 10.36 10.36-4.647 10.36-10.36 10.36z" fill="#3a312a"/><path clip-rule="evenodd" d="m135.061 95.503c-6.55 0-11.861 5.31-11.861 11.86s5.31 11.86 11.861 11.86 11.86-5.31 11.86-11.86-5.309-11.86-11.86-11.86z" fill="#f8e4c8" fill-rule="evenodd"/><path d="m135.062 94.003c-7.367 0-13.361 5.994-13.361 13.36s5.994 13.36 13.361 13.36 13.36-5.994 13.36-13.36-5.993-13.36-13.36-13.36zm0 23.721c-5.713 0-10.361-4.647-10.361-10.36s4.648-10.36 10.361-10.36 10.36 4.647 10.36 10.36-4.648 10.36-10.36 10.36z" fill="#3a312a"/><path d="m138.325 73.7c0-13.98-5.77-26.67-15.16-36.03.57 1.63.87 3.28.87 4.91 0 5.52-3.8 10.56-10.06 14.38 1.3 2.16 2.92 4.14 4.82 5.88 9.52 8.7 15.81 20.86 16.91 34.48.14-.19.45-.29.69-.38 2.25-.82 1.93-21.44 1.93-23.24z" fill="#87796f"/><path d="m139.829 74.336-.004-.636c0-13.891-5.541-27.064-15.602-37.093-.494-.492-1.264-.58-1.857-.207-.592.372-.848 1.104-.617 1.764.521 1.494.786 2.979.786 4.416 0 4.771-3.317 9.423-9.342 13.1-.704.43-.93 1.347-.504 2.054 1.378 2.291 3.092 4.381 5.094 6.214 9.553 8.731 15.387 20.626 16.427 33.493.051.624.483 1.151 1.085 1.322.136.039.273.057.41.057.379 0 .747-.144 1.026-.406.037-.015.076-.027.112-.041.002 0 .046-.017.066-.024 1.303-.475 3.084-1.138 2.92-24.013zm-3.456 16.845c-2.203-11.289-7.959-21.582-16.565-29.447-1.424-1.304-2.684-2.752-3.76-4.321 6.133-4.125 9.487-9.349 9.487-14.833v-.079c7.314 8.879 11.29 19.784 11.29 31.199l.004.658c.062 8.563-.168 13.72-.456 16.823z" fill="#3a312a"/><path d="m41.526 216.456c-.828 0-1.5.671-1.5 1.5v21.589c0 .829.672 1.5 1.5 1.5s1.5-.671 1.5-1.5v-21.589c0-.829-.672-1.5-1.5-1.5z" fill="#3a312a"/><path d="m126.288 216.456c-.828 0-1.5.671-1.5 1.5v21.589c0 .829.672 1.5 1.5 1.5s1.5-.671 1.5-1.5v-21.589c0-.829-.672-1.5-1.5-1.5z" fill="#3a312a"/><path d="m89.02 219.355h-10.266l-3.115 20.192h16.496z" fill="#89c4db"/><path d="m93.617 239.319-3.115-20.193c-.113-.731-.742-1.271-1.482-1.271h-10.266c-.74 0-1.369.54-1.482 1.271l-3.115 20.193c-.066.433.059.873.344 1.205s.701.523 1.139.523h16.496c.438 0 .854-.191 1.139-.523.284-.333.409-.773.342-1.205zm-16.229-1.272 2.652-17.193h7.693l2.652 17.193z" fill="#3a312a"/><path d="m75.292 201.57 3.47 17.78h10.246l3.552-17.78z" fill="#89c4db"/><path d="m93.721 200.619c-.285-.347-.711-.549-1.16-.549h-17.269c-.448 0-.873.2-1.158.546-.284.346-.399.801-.314 1.241l3.47 17.78c.138.705.755 1.213 1.473 1.213h10.246c.715 0 1.331-.505 1.471-1.206l3.553-17.78c.086-.441-.027-.898-.312-1.245zm-5.943 17.231h-7.781l-2.884-14.78h13.618z" fill="#3a312a"/><path d="m61.51 174.652h13.441v34.407h-13.441z" fill="#d7e057" transform="matrix(.799 -.602 .602 .799 -101.728 79.703)"/><path d="m85.149 200.646-20.708-27.478c-.24-.318-.596-.527-.989-.583-.4-.055-.795.048-1.111.288l-10.734 8.09c-.318.239-.527.595-.583.989s.048.793.287 1.111l20.708 27.477c.295.391.744.597 1.199.597.314 0 .632-.098.901-.302l10.734-8.089c.318-.239.527-.595.583-.989.056-.393-.047-.793-.287-1.111zm-11.637 6.892-18.902-25.082 8.339-6.284 18.902 25.082z" fill="#3a312a"/><path d="m82.382 185.135h34.407v13.441h-34.407z" fill="#d7e057" transform="matrix(.602 -.799 .799 .602 -113.567 155.914)"/><path d="m116.209 180.964-10.733-8.09c-.317-.24-.714-.344-1.112-.288-.394.055-.749.265-.989.583l-20.708 27.478c-.498.662-.366 1.602.296 2.101l10.733 8.089c.261.197.578.302.902.302.069 0 .139-.005.209-.015.394-.055.749-.265.989-.583l20.708-27.477c.498-.661.366-1.602-.295-2.1zm-21.906 26.574-8.338-6.284 18.902-25.082 8.338 6.284z" fill="#3a312a"/><path d="m118.795 62.83c-1.9-1.73-3.52-3.71-4.82-5.86-7.32 4.48-18.02 7.31-29.94 7.31-2.83 0-5.59-.16-8.26-.47-19.16-2.18-37.53 9.25-43.6 27.56-.59 1.76-1 3.45-1.19 5.02-.03.22-.05.44-.07.66-.12 1.5-.19 3.02-.19 4.56 0 29.03 29.08 73.61 52.58 73.61 24.61 0 52.57-44.58 52.57-73.61 0-15.36-6.58-29.17-17.08-38.78z" fill="#f8e4c8"/><path d="m119.805 61.721c-1.778-1.619-3.308-3.478-4.547-5.526-.206-.342-.54-.587-.929-.682-.388-.094-.798-.029-1.138.178-7.36 4.505-17.987 7.089-29.156 7.089-2.739 0-5.46-.155-8.091-.46-19.954-2.276-38.952 9.75-45.191 28.574-.638 1.9-1.061 3.689-1.256 5.298-.032.242-.055.483-.077.738-.132 1.64-.195 3.171-.195 4.68 0 14.103 6.799 32.704 17.743 48.544 11.494 16.635 25.077 26.566 36.337 26.566 11.851 0 25.247-9.686 36.754-26.574 10.681-15.676 17.316-34.274 17.316-48.536 0-15.131-6.403-29.669-17.57-39.889zm-2.226 86.736c-10.778 15.819-23.592 25.264-34.274 25.264-10.274 0-22.936-9.447-33.868-25.271-10.617-15.366-17.212-33.313-17.212-46.839 0-1.428.061-2.88.185-4.427.018-.198.035-.396.064-.612.173-1.426.551-3.016 1.125-4.729 5.327-16.07 20.673-26.797 37.51-26.797 1.487 0 2.988.084 4.493.255 2.742.318 5.579.479 8.434.479 11.087 0 21.719-2.462 29.455-6.789 1.229 1.808 2.669 3.468 4.292 4.945 10.545 9.651 16.593 23.382 16.593 37.673-.001 13.692-6.437 31.643-16.797 46.848z" fill="#3a312a"/><path d="m64.738 95.88c-2.834 0-5.132 2.298-5.132 5.132s2.298 5.132 5.132 5.132 5.132-2.298 5.132-5.132-2.298-5.132-5.132-5.132z" fill="#3a312a"/><path d="m101.864 95.88c-2.834 0-5.132 2.298-5.132 5.132s2.298 5.132 5.132 5.132 5.132-2.298 5.132-5.132-2.298-5.132-5.132-5.132z" fill="#3a312a"/><path d="m54.481 109.661c-4.882 0-8.84 2.959-8.84 6.609s3.958 6.609 8.84 6.609 8.84-2.959 8.84-6.609-3.958-6.609-8.84-6.609z" fill="#f59689"/><path d="m112.12 109.661c-4.882 0-8.84 2.959-8.84 6.609s3.958 6.609 8.84 6.609 8.84-2.959 8.84-6.609c.001-3.65-3.957-6.609-8.84-6.609z" fill="#f59689"/><g fill="#3a312a"><path d="m98.354 133.807c-.778-.292-1.64.103-1.931.878-1.046 2.791-5.135 8.069-13.124 8.069-6.241 0-10.551-2.678-13.174-8.188-.355-.747-1.251-1.067-1.999-.709-.748.356-1.066 1.251-.71 2 3.128 6.568 8.472 9.898 15.883 9.898 8.368 0 14.125-5.192 15.933-10.017.29-.776-.103-1.64-.878-1.931z"/><path d="m60.35 80.391c-11.229 0-20.366 9.136-20.366 20.366s9.137 20.365 20.366 20.365 20.365-9.136 20.365-20.365-9.136-20.366-20.365-20.366zm0 37.731c-9.576 0-17.366-7.79-17.366-17.365 0-9.576 7.79-17.366 17.366-17.366 9.575 0 17.365 7.79 17.365 17.366 0 9.575-7.79 17.365-17.365 17.365z"/><path d="m107.461 80.391c-11.229 0-20.365 9.136-20.365 20.366s9.136 20.365 20.365 20.365 20.365-9.136 20.365-20.365-9.136-20.366-20.365-20.366zm0 37.731c-9.575 0-17.365-7.79-17.365-17.365 0-9.576 7.79-17.366 17.365-17.366s17.365 7.79 17.365 17.366c0 9.575-7.79 17.365-17.365 17.365z"/><path d="m88.596 99.218h-9.381c-.828 0-1.5.671-1.5 1.5s.672 1.5 1.5 1.5h9.381c.828 0 1.5-.671 1.5-1.5s-.672-1.5-1.5-1.5z"/><path d="m42.136 95.028-10.89-1.099c-.811-.081-1.56.518-1.643 1.342s.518 1.56 1.342 1.643l10.89 1.099c.051.005.102.007.152.007.761 0 1.412-.577 1.49-1.35.084-.824-.517-1.559-1.341-1.642z"/><path d="m137.01 95.19c-.098-.823-.849-1.41-1.667-1.312l-9.683 1.152c-.822.098-1.409.844-1.312 1.667.091.763.738 1.323 1.487 1.323.06 0 .119-.003.18-.011l9.683-1.152c.823-.098 1.409-.844 1.312-1.667z"/></g><path d="m88.276 16.554c-17.783-1.111-33.516 7.112-41.21 14.544-11.612 9.539-17.583 26.813-17.583 42.599 0 2.885.509 19.296 1.43 23.356.15-1.753.596-3.669 1.264-5.685 6.065-18.305 24.44-29.74 43.6-27.556 2.664.304 5.426.463 8.257.463 22.09 0 39.997-9.713 39.997-21.693s-16.362-24.816-35.755-26.028z" fill="#87796f"/><path d="m88.37 15.057c-17.382-1.087-33.768 6.704-42.303 14.921-11.155 9.196-18.084 25.941-18.084 43.719 0 2.908.492 19.391 1.467 23.688.156.688.767 1.168 1.462 1.168.034 0 .069-.001.104-.003.738-.051 1.329-.632 1.392-1.368.134-1.556.535-3.353 1.194-5.341 5.794-17.491 23.458-28.653 42.005-26.538 2.753.314 5.589.473 8.427.473 23.27 0 41.497-10.188 41.497-23.193 0-13.191-17.713-26.311-37.161-27.526zm-4.336 47.719c-2.726 0-5.446-.153-8.087-.454-19.156-2.186-37.437 8.808-44.387 26.354-.366-5.869-.577-12.867-.577-14.979 0-16.671 6.687-32.938 17.035-41.439.031-.026.062-.052.09-.081 7.54-7.284 21.629-14.223 36.956-14.223 1.034 0 2.075.032 3.118.097 19.659 1.229 34.349 13.965 34.349 24.531 0 11.135-17.269 20.194-38.497 20.194z" fill="#3a312a"/><path d="m119.954 183.57h-3.55l-.87 2.45c10.04 4.46 17.06 14.52 17.06 26.2v25.83h16v-25.83c0-15.8-12.85-28.65-28.64-28.65z" fill="#695b51"/><path d="m239.497 52.371c0-19.734-18.064-35.731-40.348-35.731-22.283 0-40.348 15.997-40.348 35.731 0 9.041 3.8 17.292 10.052 23.585l-6.355 16.015c-.611 1.539.852 3.091 2.424 2.574l23.49-7.733c3.42.834 7.017 1.289 10.736 1.289 10.278 0 19.654-3.409 26.778-9.013.058-.045.118-.089.175-.135.394-.313.776-.636 1.156-.962 1.189-1.017 2.315-2.091 3.355-3.229-.008-.002-.017-.005-.025-.007 5.57-6.126 8.91-13.908 8.91-22.384z" fill="#f16c7a"/><path d="m199.149 15.14c-23.075 0-41.848 16.702-41.848 37.23 0 8.771 3.473 17.232 9.8 23.933l-5.998 15.115c-.499 1.259-.232 2.654.696 3.64.668.709 1.567 1.089 2.498 1.089.364 0 .732-.058 1.094-.177l23.087-7.6c3.489.817 7.077 1.231 10.671 1.231 10.213 0 20.053-3.315 27.772-9.385l.114-.088c.408-.325.806-.66 1.198-.997 1.277-1.094 2.451-2.223 3.486-3.357.062-.067.116-.14.163-.216 5.879-6.563 9.113-14.786 9.113-23.188.002-20.528-18.77-37.23-41.846-37.23zm30.329 58.606c-.057.063-.107.13-.151.2-.909.979-1.932 1.955-3.045 2.907-.365.314-.733.625-1.173.973l-.109.083c-7.126 5.605-16.307 8.692-25.851 8.692-3.499 0-6.991-.419-10.381-1.246-.273-.067-.559-.055-.824.032l-23.49 7.733c-.224.073-.38-.023-.471-.12-.09-.095-.179-.255-.091-.476l6.355-16.015c.22-.555.09-1.187-.33-1.61-6.201-6.242-9.616-14.242-9.616-22.528 0-18.875 17.427-34.23 38.848-34.23s38.848 15.356 38.848 34.23c0 7.853-2.946 15.245-8.519 21.375z" fill="#3a312a"/><path d="m199.147 18.14c-2.56 0-5.07.22-7.5.65 17.84 3.08 31.35 16.97 31.35 33.58 0 7.85-2.95 15.24-8.52 21.38-.06.06-.11.13-.15.2-.92.98-1.94 1.96-3.05 2.9-.36.32-.73.63-1.18.98-.01.01-.09.07-.1.08-5.23 4.11-11.57 6.87-18.36 8.04 2.48.43 4.99.65 7.51.65 9.55 0 18.73-3.09 25.85-8.69.01-.01.09-.07.1-.08.45-.35.82-.66 1.18-.98 1.11-.94 2.13-1.92 3.05-2.9.04-.07.09-.14.15-.2 5.57-6.14 8.52-13.53 8.52-21.38.001-18.87-17.429-34.23-38.85-34.23z" fill="#d34e5c"/><path d="m206.055 136.16c-.974 11.564-13.024 13.39-13.024 13.39 10.347.487 12.925 14.059 12.925 14.059.221-9.677 13.321-14.202 13.321-14.202-9.814-.588-13.222-13.247-13.222-13.247z" fill="#d7e057"/><path d="m219.367 147.909c-8.604-.515-11.833-12.024-11.864-12.141-.192-.702-.85-1.17-1.584-1.101-.725.066-1.298.642-1.359 1.367-.859 10.215-11.313 11.964-11.754 12.033-.763.115-1.313.79-1.273 1.561.04.77.657 1.384 1.428 1.421 9.028.425 11.499 12.718 11.522 12.842.138.711.76 1.217 1.473 1.217.042 0 .084-.001.126-.005.765-.064 1.357-.693 1.375-1.459.193-8.509 12.191-12.777 12.313-12.819.676-.235 1.092-.914.994-1.623s-.683-1.25-1.397-1.293zm-13.566 10.345c-1.356-3.13-3.709-6.907-7.587-8.876 2.931-1.405 6.408-3.913 8.201-8.273 1.552 3.071 4.2 6.88 8.335 8.723-3.008 1.639-6.923 4.405-8.949 8.426z" fill="#3a312a"/><path d="m184.357 153.14c-.689 8.179-9.213 9.47-9.213 9.47 7.318.344 9.142 9.944 9.142 9.944.156-6.844 9.422-10.045 9.422-10.045-6.941-.415-9.351-9.369-9.351-9.369z" fill="#d7e057"/><path d="m193.798 161.012c-5.766-.345-7.972-8.186-7.994-8.265-.189-.702-.858-1.165-1.581-1.102-.726.065-1.3.643-1.361 1.368-.578 6.871-7.646 8.067-7.941 8.114-.763.115-1.313.79-1.273 1.561.04.77.657 1.384 1.428 1.421 6.034.284 7.723 8.644 7.738 8.726.136.712.759 1.22 1.473 1.22.041 0 .083-.001.125-.005.765-.063 1.358-.694 1.376-1.461.13-5.709 8.331-8.633 8.412-8.661.676-.234 1.093-.913.996-1.622-.099-.709-.684-1.251-1.398-1.294zm-9.585 6.795c-.924-1.886-2.34-3.947-4.446-5.28 1.855-1.041 3.697-2.629 4.87-4.916 1.058 1.874 2.654 3.954 4.941 5.223-1.849 1.102-3.988 2.741-5.365 4.973z" fill="#3a312a"/><path d="m184.357 126.483c-.689 8.179-9.213 9.471-9.213 9.471 7.318.344 9.142 9.944 9.142 9.944.156-6.845 9.422-10.045 9.422-10.045-6.941-.416-9.351-9.37-9.351-9.37z" fill="#d7e057"/><path d="m193.798 134.354c-5.766-.345-7.972-8.186-7.994-8.265-.189-.702-.858-1.163-1.581-1.102-.726.065-1.3.643-1.361 1.368-.578 6.871-7.646 8.067-7.941 8.114-.763.115-1.313.79-1.273 1.561.04.77.657 1.384 1.428 1.421 6.034.284 7.723 8.644 7.738 8.726.136.712.759 1.22 1.473 1.22.041 0 .083-.001.125-.005.765-.063 1.358-.694 1.376-1.461.13-5.709 8.331-8.634 8.412-8.662.676-.234 1.093-.913.996-1.622-.099-.708-.684-1.25-1.398-1.293zm-9.585 6.796c-.924-1.886-2.34-3.947-4.446-5.28 1.855-1.041 3.697-2.63 4.87-4.917 1.058 1.874 2.654 3.954 4.941 5.224-1.849 1.101-3.989 2.74-5.365 4.973z" fill="#3a312a"/><path d="m210.416 31.053c-2.795-1.898-6.466-2.847-11.013-2.847-5.839 0-10.173 1.361-12.999 4.083s-4.448 6.315-4.865 10.778l12.139 1.501c.27-2.44.891-4.15 1.861-5.131.969-.98 2.194-1.47 3.676-1.47 1.377 0 2.403.319 3.082.954.677.636 1.016 1.528 1.016 2.675s-.844 2.409-2.534 3.785c-3.171 2.628-5.209 4.464-6.116 5.506-.907 1.043-1.59 2.196-2.049 3.457-.459 1.262-.688 2.905-.688 4.927v1.189h11.888c0-1.626.276-2.946.828-3.957.553-1.011 1.883-2.351 3.989-4.02 3.024-2.378 5.026-4.39 6.007-6.038.98-1.647 1.47-3.358 1.47-5.131.001-4.275-1.897-7.696-5.692-10.261z" fill="#87796f"/><path d="m211.259 29.812c-3.036-2.061-7.025-3.106-11.855-3.106-6.214 0-10.938 1.515-14.041 4.502-3.078 2.966-4.867 6.909-5.316 11.719-.076.808.504 1.529 1.309 1.628l12.14 1.501c.4.05.8-.063 1.114-.312.315-.249.518-.613.562-1.012.286-2.595.939-3.738 1.437-4.241.683-.69 1.535-1.025 2.608-1.025.671 0 1.572.095 2.055.547.135.126.544.511.544 1.582 0 .303-.193 1.166-1.991 2.63-3.262 2.704-5.319 4.56-6.291 5.677-1.023 1.178-1.807 2.5-2.326 3.929-.524 1.44-.779 3.22-.779 5.439v1.189c0 .829.672 1.5 1.5 1.5h11.889c.828 0 1.5-.671 1.5-1.5 0-1.366.217-2.456.645-3.238.312-.57 1.189-1.65 3.6-3.561 3.2-2.516 5.284-4.626 6.369-6.45 1.116-1.875 1.682-3.859 1.682-5.898-.005-4.782-2.142-8.652-6.355-11.5zm2.091 15.866c-.881 1.481-2.78 3.374-5.649 5.629-2.287 1.813-3.719 3.277-4.374 4.477-.483.885-.796 1.949-.933 3.176h-8.966c.021-1.695.222-3.074.596-4.103.395-1.083.99-2.087 1.771-2.985.852-.979 2.851-2.774 5.932-5.328 2.077-1.691 3.087-3.31 3.087-4.948 0-1.572-.501-2.84-1.491-3.77-.962-.902-2.344-1.36-4.107-1.36-1.89 0-3.484.645-4.741 1.916-.995 1.006-1.676 2.492-2.063 4.518l-9.194-1.137c.563-3.447 1.954-6.204 4.227-8.394 2.524-2.431 6.549-3.663 11.96-3.663 4.219 0 7.641.871 10.173 2.59 3.387 2.289 5.033 5.239 5.033 9.019-.002 1.512-.414 2.939-1.261 4.363z" fill="#3a312a"/><path d="m197.901 65.525c-3.31 0-5.993 2.683-5.993 5.993s2.683 5.993 5.993 5.993 5.993-2.683 5.993-5.993-2.683-5.993-5.993-5.993z" fill="#87796f"/><path d="m197.901 64.025c-4.132 0-7.493 3.361-7.493 7.493s3.361 7.493 7.493 7.493 7.493-3.361 7.493-7.493-3.361-7.493-7.493-7.493zm0 11.986c-2.478 0-4.493-2.016-4.493-4.493s2.016-4.493 4.493-4.493 4.493 2.016 4.493 4.493-2.015 4.493-4.493 4.493z" fill="#3a312a"/></svg>