<?xml version="1.0" encoding="iso-8859-1"?>
<!-- Generator: Adobe Illustrator 19.0.0, SVG Export Plug-In . SVG Version: 6.00 Build 0)  -->
<svg version="1.1" id="Capa_1" xmlns="http://www.w3.org/2000/svg" xmlns:xlink="http://www.w3.org/1999/xlink" x="0px" y="0px"
	 viewBox="0 0 512 512" style="enable-background:new 0 0 512 512;" xml:space="preserve">
<path style="fill:#4D4E5B;" d="M369.565,61.654c-46.54-62.831-125.118-77.106-194.762-45.263
	C105.224,48.205,62.43,131.169,76.223,206.317c12.44,67.773,50.507,89.393,49.728,116.495c-0.779,27.102-31.85,34.505-25.17,56.551
	c8.258,27.254,41.212,32.168,144.715,32.168h21.222c103.503,0,136.457-4.913,144.715-32.168c6.68-22.045-24.391-29.448-25.17-56.551
	c-0.779-27.102,37.289-48.723,49.728-116.495S409.643,55.754,369.565,61.654z"/>
<path style="fill:#3A3B4A;" d="M369.565,61.654C336.08,16.448,286.011-3.621,234.616,0.536
	c41.864,3.443,81.025,23.639,108.786,61.118c40.078-5.9,78.866,76.891,66.426,144.664S359.321,295.71,360.1,322.813
	c0.779,27.102,31.85,34.505,25.17,56.551c-8.192,27.035-40.696,32.086-142.244,32.166c0.823,0.001,1.638,0.002,2.471,0.002h21.222
	c103.503,0,136.457-4.913,144.715-32.168c6.68-22.045-24.391-29.448-25.17-56.551c-0.779-27.102,37.289-48.723,49.728-116.495
	S409.643,55.754,369.565,61.654z"/>
<path style="fill:#80B9F9;" d="M344.654,359.214l-64.711-23.229c-15.371-5.517-32.3-5.517-47.671,0l-64.711,23.229
	c-26.933,9.668-45.029,35.391-45.029,64.007v75.078c0,7.555,6.146,13.701,13.701,13.701h239.75c7.555,0,13.701-6.146,13.701-13.701
	v-75.078C389.683,394.605,371.587,368.882,344.654,359.214z"/>
<path style="fill:#E6EFF5;" d="M286.207,475.403V512h-60.2v-36.597c0-6.365,5.159-11.524,11.524-11.524h37.152
	C281.048,463.878,286.207,469.038,286.207,475.403z"/>
<path style="fill:#3185DB;" d="M344.654,359.214l-64.711-23.229c-11.723-4.208-24.352-5.196-36.506-2.985
	c3.781,0.688,7.518,1.676,11.165,2.985l64.711,23.229c26.933,9.668,45.029,35.391,45.029,64.007v75.078
	c0,7.555-6.146,13.701-13.701,13.701h25.341c7.555,0,13.701-6.146,13.701-13.701v-75.078
	C389.683,394.605,371.587,368.882,344.654,359.214z"/>
<g>
	<path style="fill:#3A3B4A;" d="M256.107,471.378c-4.142,0-7.5-3.358-7.5-7.5V451.53c0-4.142,3.358-7.5,7.5-7.5
		c4.143,0,7.5,3.358,7.5,7.5v12.348C263.607,468.021,260.25,471.378,256.107,471.378z"/>
	<path style="fill:#3A3B4A;" d="M256.107,459.031c-2.702,0-5.194-1.453-6.526-3.804l-57.224-101.031
		c-2.042-3.604-0.774-8.181,2.83-10.222c3.604-2.04,8.182-0.774,10.222,2.83l50.698,89.509l50.697-89.509
		c2.042-3.605,6.618-4.872,10.223-2.83c3.604,2.042,4.871,6.618,2.83,10.222l-57.224,101.031
		C261.302,457.578,258.809,459.031,256.107,459.031z"/>
</g>
<path style="fill:#ED6161;" d="M198.883,374.645v25.184c0,9.517,10.973,14.844,18.451,8.957l38.772-30.525l38.772,30.525
	c7.478,5.887,18.451,0.561,18.451-8.957v-25.184c0-19.125-10.579-36.68-27.488-45.616l-7.634-4.034
	c-13.829-7.308-30.376-7.308-44.205,0l-7.634,4.034C209.462,337.965,198.883,355.52,198.883,374.645z"/>
<path style="fill:#E5B67F;" d="M223.368,293.366v59.174c0,18.081,14.658,32.739,32.739,32.739l0,0
	c18.081,0,32.739-14.658,32.739-32.739v-59.174L223.368,293.366L223.368,293.366z"/>
<path style="fill:#F9D1A0;" d="M134.526,252.094h24.966V204.71h-24.966c-13.085,0-23.692,10.607-23.692,23.692l0,0
	C110.834,241.487,121.441,252.094,134.526,252.094z"/>
<path style="fill:#F4CA92;" d="M352.722,149.053V258.11c0,37.073-56.599,78.916-96.615,78.916s-96.615-41.843-96.615-78.916v-103.8
	c25.625,26.924,76.693,14.797,96.849-0.558c15.304-11.651,21.759-25.96,25.92-38.778h36.383c1.187,0,2.365,0.061,3.522,0.172
	C339.326,116.913,352.722,131.415,352.722,149.053z"/>
<path style="fill:#E0A469;" d="M318.64,114.973h-24.598c18.823,0,34.082,15.259,34.082,34.082v109.056
	c0,33.405-45.949,70.671-84.316,77.722c4.214,0.774,8.339,1.19,12.299,1.19c40.016,0,96.615-41.838,96.615-78.912V149.055
	C352.723,130.232,337.463,114.973,318.64,114.973z"/>
<path style="fill:#3A3B4A;" d="M322.165,115.147c-1.157-0.112-2.334-0.172-3.522-0.172H282.26
	c5.977-18.44,7.185-33.805,23.088-33.805C319.232,81.169,321.789,99.599,322.165,115.147z"/>
<path style="fill:#B4CBDB;" d="M344.479,308.416h-17.37c-4.143,0-7.5-3.358-7.5-7.5s3.357-7.5,7.5-7.5h17.37
	c11.31,0,21.187-7.722,24.604-19.225l8.442-31.707c1.064-4.002,5.175-6.384,9.177-5.318c4.003,1.066,6.384,5.174,5.317,9.177
	l-8.468,31.805c-0.016,0.062-0.033,0.123-0.051,0.184C378.215,296.326,362.533,308.416,344.479,308.416z"/>
<path style="fill:#80B9F9;" d="M292.747,315.281h21.02c7.929,0,14.357-6.428,14.357-14.357l0,0c0-7.929-6.428-14.357-14.357-14.357
	h-21.02c-7.929,0-14.357,6.428-14.357,14.357l0,0C278.39,308.853,284.818,315.281,292.747,315.281z"/>
<g>
	<path style="fill:#3A3B4A;" d="M256.343,275.848c-11.417,0-22.83-4.309-31.726-12.93c-2.975-2.882-3.049-7.63-0.167-10.605
		c2.882-2.975,7.631-3.05,10.605-0.167c11.936,11.566,30.636,11.567,42.574,0c2.976-2.881,7.724-2.808,10.605,0.167
		c2.883,2.975,2.809,7.723-0.167,10.605C279.175,271.537,267.757,275.848,256.343,275.848z"/>
	<path style="fill:#3A3B4A;" d="M322.163,212.679c-2.097,0-4.183-0.875-5.666-2.583c-1.374-1.582-3.112-2.453-4.895-2.453
		s-3.521,0.871-4.895,2.453c-2.718,3.129-7.455,3.46-10.581,0.745c-3.127-2.716-3.461-7.453-0.745-10.581
		c4.205-4.841,10.117-7.618,16.221-7.618s12.016,2.776,16.221,7.618c2.716,3.127,2.382,7.865-0.745,10.581
		C325.658,212.074,323.906,212.679,322.163,212.679z"/>
	<path style="fill:#3A3B4A;" d="M211.172,212.679c-2.098,0-4.183-0.875-5.667-2.583c-1.374-1.582-3.112-2.453-4.894-2.453
		c-1.783,0-3.521,0.871-4.895,2.453c-2.714,3.127-7.452,3.462-10.581,0.746c-3.127-2.716-3.461-7.453-0.746-10.581
		c4.205-4.841,10.117-7.618,16.221-7.618s12.016,2.777,16.22,7.618c2.716,3.127,2.382,7.864-0.746,10.581
		C214.667,212.074,212.916,212.679,211.172,212.679z"/>
</g>
<path style="fill:#ED6161;" d="M365.111,188.743c-4.351,0-8.523,0.787-12.389,2.228c0,18.936,0,40.457,0,61.993v7.896
	c3.868,1.443,8.034,2.247,12.389,2.247c20.031,0,36.269-16.647,36.269-37.182S385.142,188.743,365.111,188.743z"/>
<g>
</g>
<g>
</g>
<g>
</g>
<g>
</g>
<g>
</g>
<g>
</g>
<g>
</g>
<g>
</g>
<g>
</g>
<g>
</g>
<g>
</g>
<g>
</g>
<g>
</g>
<g>
</g>
<g>
</g>
</svg>
