<svg height="512pt" viewBox="0 0 512 512" width="512pt" xmlns="http://www.w3.org/2000/svg"><path d="m385.09375 454.570312h-258.1875c-33.191406 0-60.097656-26.902343-60.097656-60.09375v-156.792968h378.382812v156.792968c0 33.1875-26.90625 60.09375-60.097656 60.09375zm0 0" fill="#495059"/><path d="m493.683594 237.683594c0-131.269532-106.414063-237.683594-237.683594-237.683594s-237.683594 106.414062-237.683594 237.683594zm0 0" fill="#80bbe6"/><path d="m64.285156 172.929688h-23.667968c-22.429688 0-40.617188 18.1875-40.617188 40.621093v48.269531c0 22.433594 18.1875 40.617188 40.617188 40.617188h23.667968c11.253906 0 20.378906-9.121094 20.378906-20.375v-88.753906c0-11.253906-9.125-20.378906-20.378906-20.378906zm0 0" fill="#7397da"/><path d="m0 230.183594h84.664062v15h-84.664062zm0 0" fill="#6988c4"/><path d="m447.714844 172.929688h23.667968c22.429688 0 40.617188 18.1875 40.617188 40.621093v48.269531c0 22.433594-18.1875 40.617188-40.617188 40.617188h-23.667968c-11.253906 0-20.378906-9.121094-20.378906-20.375v-88.753906c0-11.253906 9.125-20.378906 20.378906-20.378906zm0 0" fill="#7397da"/><path d="m427.335938 230.183594h84.664062v15h-84.664062zm0 0" fill="#6988c4"/><path d="m400.285156 512c9.132813 0 16.304688-7.898438 15.351563-16.980469-8.484375-80.671875-76.71875-143.542969-159.636719-143.542969s-151.152344 62.871094-159.636719 143.542969c-.953125 9.082031 6.21875 16.980469 15.351563 16.980469zm0 0" fill="#7bd0a7"/><path d="m256 428.828125c42.128906 0 81.78125-10.0625 115.015625-28.796875-29.160156-29.949219-69.914063-48.554688-115.015625-48.554688-82.917969 0-151.152344 62.871094-159.636719 143.542969-.953125 9.082031 6.21875 16.980469 15.351563 16.980469h117.328125c-36.316407-15.683594-50.4375-54.535156-48.746094-94.816406 23.59375 7.644531 49.15625 11.644531 75.703125 11.644531zm0 0" fill="#70bd98"/><path d="m203.261719 360.351562 41.054687 85.058594c4.71875 9.78125 18.648438 9.78125 23.367188.003906 11.605468-24.046874 29.320312-60.742187 41.054687-85.0625-16.515625-5.742187-34.261719-8.871093-52.738281-8.871093s-36.21875 3.125-52.738281 8.871093zm0 0" fill="#f8dccc"/><path d="m203.261719 360.351562 32.675781 67.699219c6.613281.511719 13.304688.777344 20.0625.777344s13.449219-.265625 20.066406-.777344c10.699219-22.171875 23.503906-48.703125 32.675782-67.699219-16.519532-5.746093-34.265626-8.875-52.738282-8.875-18.476562 0-36.222656 3.128907-52.742187 8.875zm0 0" fill="#ebcebe"/><path d="m445.191406 237.683594c0-104.484375-84.703125-189.1875-189.191406-189.1875s-189.191406 84.703125-189.191406 189.1875c0 104.488281 84.703125 170.992187 189.191406 170.992187s189.191406-66.503906 189.191406-170.992187zm0 0" fill="#f8dccc"/><path d="m154.773438 77.832031c-52.867188 33.550781-87.964844 92.601563-87.964844 159.851563 0 104.488281 84.703125 170.992187 189.191406 170.992187 29.160156 0 56.777344-5.183593 81.449219-14.925781-240.5625-12.59375-229.660157-216.496094-182.675781-315.917969zm0 0" fill="#ebcebe"/><path d="m256 48.492188c-89.519531 0-164.511719 62.183593-184.160156 145.707031 62.472656 11.042969 126.378906-10.433594 150.34375-74.953125 29.15625 59.960937 128.175781 78.449218 219.269531 80.863281-17.429687-86.484375-93.832031-151.617187-185.453125-151.617187zm0 0" fill="#495059"/><path d="m357.585938 477.117188h-32.03125c-4.140626 0-7.5-3.355469-7.5-7.5 0-4.140626 3.359374-7.5 7.5-7.5h32.03125c4.140624 0 7.5 3.359374 7.5 7.5 0 4.144531-3.359376 7.5-7.5 7.5zm0 0" fill="#fff"/><path d="m184.960938 276.425781c0-18.269531-18.601563-33.082031-41.542969-33.082031-22.941407 0-41.539063 14.8125-41.539063 33.082031s18.597656 33.082031 41.539063 33.082031c22.941406 0 41.542969-14.8125 41.542969-33.082031zm0 0" fill="#eb8d9a"/><path d="m410.121094 276.425781c0-18.269531-18.597656-33.082031-41.539063-33.082031-22.941406 0-41.542969 14.8125-41.542969 33.082031s18.601563 33.082031 41.542969 33.082031c22.941407 0 41.539063-14.8125 41.539063-33.082031zm0 0" fill="#eb8d9a"/><g fill="#495059"><path d="m187.398438 247.929688c-4.140626 0-7.5-3.359376-7.5-7.5 0-6.769532-5.503907-12.273438-12.269532-12.273438-6.769531 0-12.273437 5.503906-12.273437 12.273438 0 4.140624-3.359375 7.5-7.5 7.5s-7.5-3.359376-7.5-7.5c0-15.039063 12.234375-27.273438 27.273437-27.273438 15.035156 0 27.269532 12.234375 27.269532 27.273438 0 4.140624-3.355469 7.5-7.5 7.5zm0 0"/><path d="m364.144531 247.929688c-4.140625 0-7.5-3.359376-7.5-7.5 0-6.769532-5.503906-12.273438-12.273437-12.273438-6.765625 0-12.269532 5.503906-12.269532 12.273438 0 4.140624-3.359374 7.5-7.5 7.5-4.140624 0-7.5-3.359376-7.5-7.5 0-15.039063 12.234376-27.273438 27.269532-27.273438 15.039062 0 27.273437 12.234375 27.273437 27.273438 0 4.140624-3.359375 7.5-7.5 7.5zm0 0"/><path d="m256 280.59375c-10.203125 0-19.910156-4.421875-26.628906-12.128906-2.71875-3.121094-2.394532-7.859375.726562-10.582032 3.125-2.722656 7.863282-2.394531 10.582032.726563 3.871093 4.4375 9.453124 6.984375 15.320312 6.984375s11.453125-2.546875 15.320312-6.984375c2.722657-3.125 7.460938-3.449219 10.582032-.726563 3.121094 2.722657 3.449218 7.460938.726562 10.582032-6.71875 7.707031-16.425781 12.128906-26.628906 12.128906zm0 0"/></g><path d="m71.839844 194.199219c18.914062 3.34375 37.953125 3.683593 55.980468.773437.703126-43.273437 12-85.492187 26.953126-117.132812-41.101563 26.085937-71.460938 67.578125-82.933594 116.359375zm0 0" fill="#41464f"/><path d="m225.65625 366.765625h-146.945312c-31.023438 0-56.261719-25.238281-56.261719-56.261719v-28.496094c0-4.144531 3.359375-7.5 7.5-7.5 4.144531 0 7.5 3.355469 7.5 7.5v28.496094c0 22.753906 18.511719 41.261719 41.261719 41.261719h146.945312c4.144531 0 7.5 3.359375 7.5 7.5s-3.355469 7.5-7.5 7.5zm0 0" fill="#80bbe6"/><path d="m214.546875 378.496094h22.222656c10.621094 0 19.230469-8.609375 19.230469-19.230469s-8.609375-19.234375-19.230469-19.234375h-22.222656c-10.621094 0-19.230469 8.613281-19.230469 19.234375s8.609375 19.230469 19.230469 19.230469zm0 0" fill="#495059"/></svg>