<svg id="Capa_1" enable-background="new 0 0 512 512" height="512" viewBox="0 0 512 512" width="512" xmlns="http://www.w3.org/2000/svg"><g><path d="m195.21 0h-88.631c-42.633 0-77.275 34.881-77.101 77.514.287 70.166-3.339 121.3-26.355 157.922-6.767 10.768-1.024 25.034 11.333 28.038 90.959 22.115 181.918 22.115 272.876 0 12.358-3.005 18.101-17.27 11.333-28.038-23.016-36.622-26.643-87.757-26.355-157.922.176-42.633-34.466-77.514-77.1-77.514z" fill="#365e7d"/><path d="m298.666 235.437c-23.016-36.622-26.643-87.757-26.355-157.922.175-42.634-34.467-77.515-77.101-77.515h-23.778c42.633 0 77.276 34.881 77.101 77.514-.287 70.166 3.339 121.3 26.355 157.922 6.767 10.768 1.024 25.034-11.333 28.038-41.516 10.094-83.033 15.565-124.549 16.445 49.442 1.047 98.885-4.424 148.327-16.445 12.358-3.004 18.101-17.269 11.333-28.037z" fill="#2b4d66"/><path d="m294.23 512h-286.671c-4.175 0-7.559-3.384-7.559-7.559v-144.854c0-55.325 44.85-100.174 100.175-100.174h101.44c55.325 0 100.175 44.85 100.175 100.174v144.854c-.001 4.175-3.385 7.559-7.56 7.559z" fill="#95d6a4"/><path d="m201.615 259.412h-28.357c55.325 0 100.175 44.85 100.175 100.175v152.413h20.797c4.175 0 7.559-3.384 7.559-7.559v-144.854c0-55.325-44.849-100.175-100.174-100.175z" fill="#78c2a4"/><path d="m150.895 344.332-8.329 4.689c-19.129 10.769-43.266.446-48.692-20.825l-17.546-68.784 21.917-21.447 14.833 40.866z" fill="#f6f1f1"/><path d="m150.895 344.332 8.329 4.689c19.129 10.769 43.266.446 48.692-20.825l17.546-68.784-21.917-21.447-14.833 40.866z" fill="#f6f1f1"/><path d="m150.895 344.332 37.817-65.501h-75.634z" fill="#e2a770"/><path d="m150.895 294.085c-53.865 0-97.532-43.666-97.532-97.532v-84.454c0-6.958 1.885-13.411 5.141-18.926 10.149-17.192 33.342-21.062 49.2-8.933 29.102 22.258 60.898 29.426 96.074 17.663 21.053-7.04 43.614 7.382 44.61 29.558.025.561.038 1.125.038 1.691v63.401c0 53.866-43.666 97.532-97.531 97.532z" fill="#f1d0a5"/><g><path d="m248.388 131.461c-.996-22.176-23.557-36.598-44.61-29.558-.183.061-.364.114-.547.174 12.17 4.291 21.558 15.259 22.192 29.384.025.561.038 1.125.038 1.691v63.401c0 49.98-37.596 91.172-86.049 96.855 3.767.442 7.597.676 11.482.676 53.865 0 97.532-43.666 97.532-97.532v-63.401c0-.565-.012-1.129-.038-1.69z" fill="#f1b986"/></g><g><g><path d="m106.161 173.537c-4.267 0-7.726-3.459-7.726-7.726v-10.759c0-4.268 3.459-7.726 7.726-7.726s7.726 3.459 7.726 7.726v10.759c0 4.267-3.459 7.726-7.726 7.726z" fill="#2b4d66"/></g><g><path d="m195.628 173.537c-4.267 0-7.726-3.459-7.726-7.726v-10.759c0-4.268 3.459-7.726 7.726-7.726s7.726 3.459 7.726 7.726v10.759c0 4.267-3.459 7.726-7.726 7.726z" fill="#2b4d66"/></g></g><g><path d="m150.895 248.062c-7.096 0-14.192-2.135-21.09-6.405-3.628-2.245-4.749-7.008-2.503-10.636 2.246-3.629 7.008-4.751 10.636-2.503 8.84 5.472 17.075 5.472 25.915 0 3.628-2.244 8.39-1.126 10.636 2.503 2.246 3.628 1.125 8.39-2.503 10.636-6.899 4.271-13.995 6.405-21.091 6.405z" fill="#dd636e"/></g><path d="m53.363 187.453h-15.638c-10.849 0-19.644-8.795-19.644-19.644 0-10.849 8.795-19.644 19.644-19.644h15.638z" fill="#e2a770"/><path d="m248.426 187.453h15.638c10.849 0 19.644-8.795 19.644-19.644 0-10.849-8.795-19.644-19.644-19.644h-15.638z" fill="#e2a770"/><g><path d="m255.081 405.351h-44.728c-4.267 0-7.726-3.459-7.726-7.726s3.459-7.726 7.726-7.726h44.728c4.267 0 7.727 3.459 7.727 7.726s-3.46 7.726-7.727 7.726z" fill="#ffc250"/></g><path d="m499.769 95.48h-239.627c-6.755 0-12.231-5.476-12.231-12.231v-71.018c0-6.755 5.476-12.231 12.231-12.231h239.627c6.755 0 12.231 5.476 12.231 12.231v71.019c0 6.755-5.476 12.23-12.231 12.23z" fill="#ffc250"/><path d="m499.769 0h-20.545c6.755 0 12.231 5.476 12.231 12.231v71.019c0 6.755-5.476 12.231-12.231 12.231h20.545c6.755 0 12.231-5.476 12.231-12.231v-71.019c0-6.755-5.476-12.231-12.231-12.231z" fill="#ebb044"/><g fill="#f6f1f1"><path d="m309.442 23.495 7.62 10.998c.391.565.963.98 1.621 1.177l12.815 3.848c2.028.609 2.823 3.057 1.541 4.742l-8.105 10.646c-.416.547-.634 1.218-.619 1.905l.3 13.377c.047 2.117-2.035 3.63-4.033 2.93l-12.629-4.419c-.648-.227-1.355-.227-2.003 0l-12.629 4.419c-1.999.699-4.081-.813-4.033-2.93l.3-13.377c.015-.687-.203-1.358-.619-1.905l-8.105-10.646c-1.283-1.685-.488-4.132 1.541-4.742l12.815-3.848c.658-.198 1.229-.613 1.621-1.177l7.62-10.998c1.202-1.741 3.775-1.741 4.981 0z"/><path d="m382.448 23.495 7.62 10.998c.391.565.963.98 1.621 1.177l12.815 3.848c2.028.609 2.823 3.057 1.541 4.742l-8.105 10.646c-.416.547-.634 1.218-.619 1.905l.3 13.377c.047 2.117-2.035 3.63-4.033 2.93l-12.629-4.419c-.648-.227-1.355-.227-2.003 0l-12.629 4.419c-1.999.699-4.081-.813-4.033-2.93l.3-13.377c.015-.687-.203-1.358-.619-1.905l-8.105-10.646c-1.283-1.685-.488-4.132 1.541-4.742l12.815-3.848c.658-.198 1.229-.613 1.621-1.177l7.62-10.998c1.202-1.741 3.775-1.741 4.981 0z"/><path d="m455.455 23.495 7.62 10.998c.391.565.963.98 1.621 1.177l12.815 3.848c2.028.609 2.823 3.057 1.541 4.742l-8.105 10.646c-.416.547-.634 1.218-.619 1.905l.3 13.377c.047 2.117-2.035 3.63-4.033 2.93l-12.629-4.419c-.648-.227-1.355-.227-2.003 0l-12.629 4.419c-1.999.699-4.081-.813-4.033-2.93l.3-13.377c.015-.687-.203-1.358-.619-1.905l-8.105-10.646c-1.283-1.685-.488-4.132 1.541-4.742l12.815-3.848c.658-.198 1.229-.613 1.621-1.177l7.62-10.998c1.201-1.741 3.775-1.741 4.981 0z"/></g><g><g><path d="m150.895 406.071c-4.267 0-7.726-3.459-7.726-7.726v-9.652c0-4.268 3.459-7.726 7.726-7.726s7.726 3.459 7.726 7.726v9.652c0 4.268-3.459 7.726-7.726 7.726z" fill="#f6f1f1"/></g><g><path d="m150.895 450.414c-4.267 0-7.726-3.459-7.726-7.726v-9.653c0-4.268 3.459-7.726 7.726-7.726s7.726 3.459 7.726 7.726v9.653c0 4.268-3.459 7.726-7.726 7.726z" fill="#f6f1f1"/></g><g><path d="m150.895 494.757c-4.267 0-7.726-3.459-7.726-7.726v-9.652c0-4.268 3.459-7.726 7.726-7.726s7.726 3.459 7.726 7.726v9.652c0 4.267-3.459 7.726-7.726 7.726z" fill="#f6f1f1"/></g></g></g></svg>