<?xml version="1.0" encoding="UTF-8"?>
<!DOCTYPE svg  PUBLIC '-//W3C//DTD SVG 1.1//EN'  'http://www.w3.org/Graphics/SVG/1.1/DTD/svg11.dtd'>
<svg width="135.73mm" height="80.01mm" fill-rule="evenodd" stroke-linejoin="round" stroke-width="28.222" preserveAspectRatio="xMidYMid" version="1.2" viewBox="4149 14462 13573 8001" xml:space="preserve" xmlns="http://www.w3.org/2000/svg">
 <defs class="EmbeddedBulletChars">
  
  
  
  
  
  
  
  
  
  
 </defs>
 <g class="Page">
  <g class="Graphic">
   
    <rect class="BoundingBox" x="4149" y="14462" width="13573" height="8001" fill="none"/>
    <defs>
     <clipPath id="a">
      <path d="m4149 14462h13572v8e3h-13572v-8e3z"/>
     </clipPath>
    </defs>
    <g clip-path="url(#a)">
     <path d="m7549 16035c0-233-190-423-424-423h-2539c-234 0-424 190-424 423 0 234 190 423 424 423h2539c234 0 424-189 424-423z" fill="#ffc107"/>
     <path d="m7125 17305h-1693c-234 0-423 189-423 423s189 423 423 423h1693c234 0 424-189 424-423s-190-423-424-423z" fill="#ffc107"/>
     <path d="m7125 18998h-846c-234 0-424 189-424 423s190 423 424 423h846c234 0 424-189 424-423s-190-423-424-423z" fill="#ffc107"/>
     <path d="m17648 18780-1270-2116c-76-128-214-206-363-206h-2964c-233 0-423 190-423 424v4232c0 233 190 423 423 423h4233c234 0 424-190 424-423v-2116c0-77-21-153-60-218z" fill="#f44336"/>
     <path d="m14321 17305h1454l1016 1693h-2470v-1693z" fill="#fafafa"/>
     <path d="m13051 14765h-5926c-233 0-423 190-423 424v5925c0 233 190 423 423 423h6350v-6348c0-234-190-424-424-424z" fill="#ffc107"/>
     <path d="m16438 21114c0 148-39 294-114 423-74 129-181 236-309 310-129 74-275 113-424 113-148 0-294-39-423-113s-236-181-310-310-113-275-113-423c0-149 39-295 113-423 74-129 181-236 310-310 129-75 275-114 423-114 149 0 295 39 424 114 128 74 235 181 309 310 75 128 114 274 114 423z" fill="#fafafa"/>
     <path d="m15591 22383c-700 0-1270-569-1270-1269s570-1270 1270-1270 1270 570 1270 1270-570 1269-1270 1269zm0-1692c-233 0-423 190-423 423s190 423 423 423 424-190 424-423-191-423-424-423z" fill="#455a64"/>
     <path d="m13475 21537h-6350c-233 0-423-190-423-423v-1270h6773v1693z" fill="#f44336"/>
     <path d="m10512 21114c0 148-39 294-114 423-74 129-181 236-310 310-128 74-274 113-423 113s-294-39-423-113-236-181-310-310-113-275-113-423c0-149 39-295 113-423 74-129 181-236 310-310 129-75 274-114 423-114s295 39 423 114c129 74 236 181 310 310 75 128 114 274 114 423z" fill="#fafafa"/>
     <path d="m9665 22383c-700 0-1270-569-1270-1269s570-1270 1270-1270 1270 570 1270 1270-570 1269-1270 1269zm0-1692c-234 0-423 190-423 423s189 423 423 423 423-190 423-423-189-423-423-423z" fill="#455a64"/>
    </g>
   
  </g>
 </g>
</svg>
