<?xml version="1.0" encoding="UTF-8"?>
<svg width="512pt" height="512pt" viewBox="0 0 512 512" xmlns="http://www.w3.org/2000/svg">
<path d="m455.81 511.66h-399.63c-10.469 0-18.953-8.4844-18.953-18.953v-305.59h437.54v305.59c0 10.469-8.4883 18.953-18.957 18.953z" fill="#ffc73b"/>
<path d="m37.227 187.12h437.54v63.59h-437.54z" fill="#efb025"/>
<path d="m512 120.82v78.781c0 8.4141-6.8281 15.23-15.242 15.23h-481.53c-8.4141 0-15.23-6.8164-15.23-15.23v-78.781c0-8.4141 6.8164-15.23 15.23-15.23h481.53c8.4141 0 15.242 6.8164 15.242 15.23z" fill="#ffc73b"/>
<path d="m238.59 141.81c-3.3242 3.8711-6.5859 7.7969-9.7695 11.766-11.863 14.762-22.723 30.23-32.539 46.285-3.0195 4.9375-5.9336 9.9258-8.7617 14.973h-103.84c6.0664-13.766 12.719-27.277 19.926-40.484 13.07-23.961 27.984-46.953 44.648-68.758 3.9805-5.207 8.0547-10.352 12.23-15.418 2.5-3.0547 5.043-6.0664 7.6211-9.0664 9.4766 8.1641 18.945 16.32 28.426 24.484 1.4688 1.2578 2.9375 2.5312 4.4023 3.793 11.188 9.6328 22.375 19.262 33.559 28.906 1.3711 1.1641 2.7305 2.3477 4.0977 3.5195z" fill="#efb025"/>
<path d="m393.53 214.84h-103.85c-2.8164-5.0469-5.7422-10.035-8.7617-14.973-9.8164-16.055-20.688-31.523-32.539-46.285-3.1953-3.9688-6.457-7.8945-9.7852-11.766 1.3711-1.1719 2.7305-2.3477 4.1016-3.5195 11.195-9.6445 22.383-19.285 33.566-28.906 1.4688-1.2617 2.9375-2.5352 4.4062-3.793 9.4766-8.1641 18.957-16.32 28.426-24.484 2.5781 2.9922 5.1211 6.0117 7.6211 9.0586 4.1836 5.0742 8.2617 10.219 12.23 15.426 16.664 21.805 31.578 44.797 44.656 68.758 7.207 13.207 13.859 26.719 19.926 40.484z" fill="#efb025"/>
<g fill="#ff4440">
<path d="m255.99 141.82c-3.3281 3.8672-6.5898 7.793-9.7734 11.762-11.859 14.762-22.723 30.23-32.539 46.289-31.164 50.941-51.863 107.85-60.594 167.41-13.121-17.402-25.23-36.23-36.125-56.363-19.164 12.5-37.895 26.797-55.93 42.883 9.2617-63.18 29.668-123.91 59.977-179.45 16.188-29.68 35.211-57.879 56.875-84.176 2.5-3.0547 5.043-6.0625 7.6211-9.0664 10.945 9.4258 21.883 18.852 32.832 28.277 11.184 9.6328 22.371 19.262 33.559 28.906 1.3672 1.1641 2.7266 2.3477 4.0977 3.5234z"/>
<path d="m450.96 353.8c-18.035-16.086-36.766-30.383-55.93-42.883-10.895 20.133-23.004 38.961-36.125 56.363-8.7305-59.562-29.426-116.47-60.594-167.41-9.8164-16.059-20.688-31.527-32.539-46.289-3.1953-3.9688-6.457-7.8945-9.7812-11.762 1.3672-1.1758 2.7266-2.3516 4.0977-3.5234 11.195-9.6445 22.383-19.285 33.57-28.906 10.945-9.4375 21.895-18.852 32.828-28.277 2.5781 2.9922 5.1211 6.0117 7.6211 9.0586 21.668 26.297 40.691 54.496 56.887 84.184 30.301 55.539 50.703 116.27 59.965 179.45z"/>
<path d="m215.23 141.82h81.527v73.016h-81.527z"/>
</g>
<path d="m391 174.36-92.684 25.516c-9.8164-16.059-20.688-31.527-32.539-46.289l-5.6836-15.285-4.0977-11.023 37.668-17.883 40.449-19.219c21.668 26.297 40.691 54.496 56.887 84.184z" fill="#ea2f2f"/>
<path d="m255.99 127.27-4.0977 11.023-5.6758 15.285c-11.859 14.762-22.723 30.23-32.539 46.289l-92.672-25.516c16.188-29.68 35.211-57.879 56.875-84.176l40.453 19.211z" fill="#ea2f2f"/>
<path d="m403.91 3.543-147.92 70.246 28.414 76.418 157.88-43.457c20.648-5.6836 31.992-27.844 24.527-47.918l-13.031-35.039c-7.4609-20.074-30.527-29.438-49.875-20.25z" fill="#ff4440"/>
<path d="m108.08 3.543 147.92 70.246-28.414 76.418-157.88-43.457c-20.648-5.6836-31.992-27.844-24.527-47.918l13.027-35.039c7.4648-20.074 30.527-29.438 49.875-20.25z" fill="#ff4440"/>
<path d="m291.32 104.5c-2.6875 0-5.3242-1.3281-6.875-3.7617-2.4258-3.793-1.3203-8.832 2.4727-11.258 1.1211-0.71484 27.762-17.668 58.348-30.039 44.094-17.836 73.539-16.879 87.508 2.8438 2.6055 3.6758 1.7344 8.7656-1.9414 11.367-3.6758 2.6016-8.7617 1.7344-11.363-1.9414-18.938-26.734-97.676 14.836-123.77 31.508-1.3594 0.86719-2.8789 1.2812-4.3828 1.2812z" fill="#ea2f2f"/>
<path d="m219.87 104.5c-1.5039 0-3.0234-0.41406-4.3828-1.2812-26.09-16.672-104.83-58.242-123.77-31.508-2.6055 3.6758-7.6914 4.543-11.367 1.9414-3.6719-2.6055-4.543-7.6914-1.9375-11.367 13.969-19.723 43.41-20.68 87.508-2.8438 30.586 12.367 57.227 29.324 58.348 30.039 3.793 2.4258 4.8984 7.4648 2.4766 11.258-1.5586 2.4336-4.1914 3.7617-6.8789 3.7617z" fill="#ea2f2f"/>
<path d="m279.19 47.523h-46.391c-12.695 0-22.988 10.293-22.988 22.992v67.395c0 12.699 10.293 22.992 22.988 22.992h46.391c12.695 0 22.988-10.293 22.988-22.992v-67.395c0-12.699-10.293-22.992-22.988-22.992z" fill="#ea2f2f"/>
<path d="m215.23 214.84h81.527v296.82h-81.527z" fill="#ff4440"/>
<path d="m215.23 214.84h81.527v35.871h-81.527z" fill="#ea2f2f"/>
</svg>
