<?xml version="1.0" encoding="UTF-8" standalone="no"?>
<svg
   xmlns:dc="http://purl.org/dc/elements/1.1/"
   xmlns:cc="http://creativecommons.org/ns#"
   xmlns:rdf="http://www.w3.org/1999/02/22-rdf-syntax-ns#"
   xmlns:svg="http://www.w3.org/2000/svg"
   xmlns="http://www.w3.org/2000/svg"
   xmlns:sodipodi="http://sodipodi.sourceforge.net/DTD/sodipodi-0.dtd"
   xmlns:inkscape="http://www.inkscape.org/namespaces/inkscape"
   width="101.33542mm"
   height="62.22456mm"
   viewBox="0 0 101.33542 62.22456"
   version="1.1"
   id="svg8"
   inkscape:version="1.0.1 (3bc2e813f5, 2020-09-07)"
   sodipodi:docname="парень с ноутбуком.svg">
  <defs
     id="defs2" />
  <sodipodi:namedview
     id="base"
     pagecolor="#ffffff"
     bordercolor="#666666"
     borderopacity="1.0"
     inkscape:pageopacity="0.0"
     inkscape:pageshadow="2"
     inkscape:zoom="1.4"
     inkscape:cx="315.87601"
     inkscape:cy="41.197038"
     inkscape:document-units="mm"
     inkscape:current-layer="layer1"
     inkscape:document-rotation="0"
     showgrid="false"
     inkscape:window-width="1609"
     inkscape:window-height="1040"
     inkscape:window-x="73"
     inkscape:window-y="0"
     inkscape:window-maximized="0"
     fit-margin-top="0"
     fit-margin-left="0"
     fit-margin-right="0"
     fit-margin-bottom="0" />
  <metadata
     id="metadata5">
    <rdf:RDF>
      <cc:Work
         rdf:about="">
        <dc:format>image/svg+xml</dc:format>
        <dc:type
           rdf:resource="http://purl.org/dc/dcmitype/StillImage" />
        <dc:title></dc:title>
      </cc:Work>
    </rdf:RDF>
  </metadata>
  <g
     inkscape:label="Слой 1"
     inkscape:groupmode="layer"
     id="layer1"
     transform="translate(-27.497766,-98.335109)">
    <g
       id="g383">
      <path
         d="M 128.5686,147.28303 H 27.762351 a 0.264585,0.264585 0 0 1 0,-0.52917 H 128.5686 a 0.264585,0.264585 0 0 1 0,0.52917 z"
         fill="#3f3d56"
         id="path122"
         style="stroke-width:0.264583" />
      <circle
         cx="80.165482"
         cy="105.47886"
         r="7.1437497"
         fill="#2f2e41"
         id="circle124"
         style="stroke-width:0.264583" />
      <polygon
         points="173.405,378.826 172.69,366.588 219.556,358.003 220.612,376.067 "
         fill="#ffb8b8"
         id="polygon126"
         transform="matrix(0.26458333,0,0,0.26458333,27.497767,51.106988)" />
      <path
         d="m 73.978555,145.73285 0.365054,6.24511 -3.932106,0.22985 -0.594902,-10.17722 v 0 a 3.938815,3.938815 0 0 1 4.161954,3.70226 z"
         fill="#2f2e41"
         id="path128"
         style="stroke-width:0.264583" />
      <polygon
         points="193.789,378.714 186.004,388.185 145.768,362.666 157.257,348.688 "
         fill="#ffb8b8"
         id="polygon130"
         transform="matrix(0.26458333,0,0,0.26458333,27.497767,51.106988)" />
      <path
         d="m 74.524137,155.01576 3.972238,-4.8328 3.042876,2.50103 -6.473273,7.87568 v 0 a 3.938815,3.938815 0 0 1 -0.541841,-5.54391 z"
         fill="#2f2e41"
         id="path132"
         style="stroke-width:0.264583" />
      <path
         d="m 72.843813,139.65509 -1.407517,6.63544 a 1.0583333,1.0583333 0 0 0 1.01823,1.27781 l 13.837139,0.22318 a 1.0583333,1.0583333 0 0 0 1.059297,-1.24212 l -1.210345,-6.85863 a 1.0583333,1.0583333 0 0 0 -1.04223,-0.87441 H 73.879111 a 1.0583333,1.0583333 0 0 0 -1.035298,0.83873 z"
         fill="#2f2e41"
         id="path134"
         style="stroke-width:0.264583" />
      <path
         d="m 75.138393,141.99136 c 0,0 -13.49375,-8.46666 -16.139583,-3.96875 -1.322917,2.24896 -0.661458,4.43177 0.330729,6.05235 a 9.1626609,9.1626609 0 0 0 3.810662,3.41077 l 10.939859,5.35355 3.96875,-4.23333 -2.645834,-2.38125 z"
         fill="#2f2e41"
         id="path136"
         style="stroke-width:0.264583" />
      <path
         d="m 82.01756,140.66845 c 0,0 17.462499,-5.02709 14.022916,4.49791 -3.439583,9.525 -16.404166,5.82084 -16.404166,5.82084 l -1.322917,-3.96875 4.497917,-3.175 z"
         fill="#2f2e41"
         id="path138"
         style="stroke-width:0.264583" />
      <circle
         cx="80.255058"
         cy="107.11011"
         r="6.4984388"
         fill="#ffb8b8"
         id="circle140"
         style="stroke-width:0.264583" />
      <path
         d="m 80.595551,141.71851 a 34.923375,34.923375 0 0 1 -8.005519,-1.05471 l -0.07738,-0.0212 -3.626263,-16.68063 a 6.1448685,6.1448685 0 0 1 3.950986,-7.12877 21.288293,21.288293 0 0 1 13.573009,-0.27104 h 6.3e-5 a 6.2096543,6.2096543 0 0 1 4.13676,7.34606 l -4.050334,16.72043 -0.05704,0.0271 c -1.683229,0.79736 -3.788082,1.06273 -5.844281,1.06273 z"
         fill="#cccccc"
         id="path142"
         style="stroke-width:0.264583" />
      <path
         d="m 75.72453,143.01431 a 2.6605785,2.6605785 0 0 1 3.829939,-1.40552 l 7.14018,-6.19774 0.646015,4.87058 -6.879476,5.13876 a 2.6750089,2.6750089 0 0 1 -4.736658,-2.40608 z"
         fill="#ffb8b8"
         id="path144"
         style="stroke-width:0.264583" />
      <path
         d="m 82.534323,144.36615 a 1.1994965,1.1994965 0 0 1 -0.343003,-0.0504 1.1780917,1.1780917 0 0 1 -0.783802,-0.74518 l -0.861833,-2.44171 a 1.1832167,1.1832167 0 0 1 0.344551,-1.29708 l 9.728412,-5.84047 -3.8349,-17.10825 0.09754,-0.0235 c 0.03966,-0.01 3.968816,-0.90408 5.578924,3.38946 1.127514,3.00706 5.299999,9.54541 5.005636,13.96375 a 3.9382197,3.9382197 0 0 1 -3.260195,3.63208 l -10.950623,6.27403 a 1.1789833,1.1789833 0 0 1 -0.720706,0.24728 z"
         fill="#cccccc"
         id="path146"
         style="stroke-width:0.264583" />
      <path
         d="m 83.625441,142.43393 a 2.6605838,2.6605838 0 0 0 -3.829939,-1.40552 l -7.140178,-6.19774 -0.646015,4.87057 6.879476,5.13877 a 2.6750089,2.6750089 0 0 0 4.736656,-2.40608 z"
         fill="#ffb8b8"
         id="path148"
         style="stroke-width:0.264583" />
      <path
         d="m 77.532044,144.36615 a 1.1789833,1.1789833 0 0 1 -0.720693,-0.24727 l -11.744373,-5.74487 a 3.9382197,3.9382197 0 0 1 -3.260195,-3.63208 c -0.294363,-4.41833 4.671872,-11.48586 5.799386,-14.49291 1.609989,-4.29354 5.539197,-3.39953 5.578924,-3.38946 l 0.09754,0.0235 -4.628663,17.63743 10.522162,5.3113 a 1.1832167,1.1832167 0 0 1 0.344551,1.29708 l -0.861833,2.44171 a 1.1780917,1.1780917 0 0 1 -0.783802,0.74518 1.1998325,1.1998325 0 0 1 -0.343003,0.0504 z"
         fill="#cccccc"
         id="path150"
         style="stroke-width:0.264583" />
      <path
         d="M 91.542565,147.01842 H 67.994648 a 1.8542476,1.8542476 0 0 1 -1.852083,-1.85208 v -12.96458 a 1.8542476,1.8542476 0 0 1 1.852083,-1.85209 h 23.547917 a 1.854245,1.854245 0 0 1 1.852083,1.85209 v 12.96458 a 1.8542476,1.8542476 0 0 1 -1.852083,1.85208 z"
         fill="#80bb27"
         id="path152"
         style="stroke-width:0.264583" />
      <circle
         cx="79.7686"
         cy="138.68407"
         r="1.5875"
         fill="#ffffff"
         id="circle154"
         style="stroke-width:0.264583" />
      <path
         d="m 73.691532,106.84562 c -0.385143,-0.97692 0.246767,-2.14112 1.184191,-2.61435 0.937424,-0.47323 2.068634,-0.38323 3.071347,-0.0713 0.842655,0.2621 1.632415,0.6683 2.454507,0.98913 a 5.4931521,5.4931521 0 0 0 2.580447,0.45956 c 0.876903,-0.099 1.749666,-0.59076 2.108483,-1.397 0.371936,-0.83571 0.118965,-1.85557 -0.453803,-2.56879 a 4.9739602,4.9739602 0 0 0 -2.278514,-1.46442 c -1.933443,-0.681147 -4.166735,-0.70106 -5.961682,0.28906 -1.794947,0.99012 -3.014784,3.09833 -2.643767,5.1144"
         fill="#2f2e41"
         id="path156"
         style="stroke-width:0.264583" />
      <path
         d="m 36.139713,144.19229 a 32.290199,32.290199 0 0 1 2.672431,-10.19102 q 0.603147,-1.34738 1.327714,-2.63545 a 0.19679708,0.19679708 0 0 0 -0.339603,-0.1985 32.736432,32.736432 0 0 0 -3.642731,10.04948 q -0.273489,1.47732 -0.411104,2.97549 c -0.02331,0.25192 0.370134,0.25033 0.393298,0 z"
         fill="#e6e6e6"
         id="path158"
         style="stroke-width:0.264583" />
      <circle
         cx="41.092434"
         cy="129.50569"
         r="2.4908934"
         fill="#80bb27"
         id="circle160"
         style="stroke-width:0.264583" />
      <path
         d="m 36.394514,144.25844 a 20.948147,20.948147 0 0 1 1.733727,-6.61138 q 0.39129,-0.87411 0.861349,-1.70974 a 0.12767204,0.12767204 0 0 0 -0.220316,-0.12878 21.237712,21.237712 0 0 0 -2.363208,6.51957 q -0.177427,0.95841 -0.2667,1.93034 c -0.01513,0.16343 0.240123,0.1624 0.255151,0 z"
         fill="#e6e6e6"
         id="path162"
         style="stroke-width:0.264583" />
      <circle
         cx="39.607574"
         cy="134.73056"
         r="1.6159586"
         fill="#80bb27"
         id="circle164"
         style="stroke-width:0.264583" />
      <path
         d="m 36.072477,144.1059 a 20.948121,20.948121 0 0 1 -2.699388,-6.27929 q -0.229108,-0.92989 -0.372435,-1.87788 a 0.12766939,0.12766939 0 0 0 -0.252921,0.034 21.237599,21.237599 0 0 0 2.14658,6.59406 q 0.449578,0.86481 0.97698,1.68607 c 0.08859,0.13817 0.289218,-0.0196 0.201184,-0.15693 z"
         fill="#e6e6e6"
         id="path166"
         style="stroke-width:0.264583" />
      <circle
         cx="32.745697"
         cy="134.61713"
         r="1.6159586"
         fill="#80bb27"
         id="circle168"
         style="stroke-width:0.264583" />
      <path
         d="m 31.111597,145.53563 v -3.175 a 1.1919691,1.1919691 0 0 1 1.190625,-1.19062 h 7.408334 a 1.1919691,1.1919691 0 0 1 1.190625,1.19062 v 3.175 a 1.1919691,1.1919691 0 0 1 -1.190625,1.19063 h -7.408334 a 1.1919691,1.1919691 0 0 1 -1.190625,-1.19063 z"
         fill="#f2f2f2"
         style="isolation:isolate;stroke-width:0.264583"
         id="path170" />
      <path
         d="m 110.68511,149.24111 c 0,1.74018 -1.4107,2.53115 -3.15089,2.53115 -1.74018,0 -3.15088,-0.79097 -3.15088,-2.53115 0,-1.74019 0.7002,-3.77061 3.15088,-3.07042 2.45069,-1.05029 3.15089,1.33023 3.15089,3.07042 z"
         fill="#ff6584"
         id="path172"
         style="stroke-width:0.264583" />
      <path
         d="m 107.38075,146.98587 a 0.5036767,0.5036767 0 0 1 -0.50036,-0.43899 c -0.10432,-0.86817 -0.67935,-2.56858 -0.92171,-3.25924 l -7e-5,-2.6e-4 a 0.45058541,0.45058541 0 0 1 0.0583,-0.41444 0.47268341,0.47268341 0 0 1 0.70467,-0.0509 0.45105372,0.45105372 0 0 1 0.12389,0.33771 c -0.0475,0.88651 0.59874,2.31898 0.98818,3.09413 a 0.50481176,0.50481176 0 0 1 -0.39945,0.72915 0.4665636,0.4665636 0 0 1 -0.0534,0.003 z"
         fill="#3f3d56"
         id="path174"
         style="stroke-width:0.264583" />
      <path
         d="m 109.71227,145.03023 c 1.09377,-0.8952 0.23563,-2.72723 -1.13331,-2.37554 a 1.105453,1.105453 0 0 0 -0.49311,0.26304 c -0.83974,0.79325 -0.96987,2.82286 -0.96987,2.82286 0,0 1.48287,0.20092 2.59629,-0.71036 z"
         fill="#3f3d56"
         id="path176"
         style="stroke-width:0.264583" />
    </g>
  </g>
</svg>
