<svg version="1.2" width="101.88mm" height="36.02mm" viewBox="10913 30800 10188 3602" preserveAspectRatio="xMidYMid" fill-rule="evenodd" stroke-width="28.222" stroke-linejoin="round" xmlns="http://www.w3.org/2000/svg" xmlns:ooo="http://xml.openoffice.org/svg/export" xmlns:xlink="http://www.w3.org/1999/xlink" xmlns:presentation="http://sun.com/xmlns/staroffice/presentation" xmlns:smil="http://www.w3.org/2001/SMIL20/" xmlns:anim="urn:oasis:names:tc:opendocument:xmlns:animation:1.0"><defs class="EmbeddedBulletChars"><g id="bullet-char-template-57356" transform="scale(0.00048828125,-0.00048828125)"><path d="M580 1141l583-570L580 0-4 571l584 570z"/></g><g id="bullet-char-template-57354" transform="scale(0.00048828125,-0.00048828125)"><path d="M8 1128H1137V0H8V1128z"/></g><g id="bullet-char-template-10146" transform="scale(0.00048828125,-0.00048828125)"><path d="M174 0 602 739 174 1481 1456 739 174 0zM1358 739 309 1346 659 739h699z"/></g><g id="bullet-char-template-10132" transform="scale(0.00048828125,-0.00048828125)"><path d="M2015 739 1276 0H717l543 543H174V936H1260L717 1481h557l741-742z"/></g><g id="bullet-char-template-10007" transform="scale(0.00048828125,-0.00048828125)"><path d="M0-2C-7 14-16 27-25 37L356 567C262 823 215 952 215 954c0 25 13 38 40 38 9 0 21-2 34-5 21 4 42 12 65 25l27-13L492 748l280 301 64-25 24 25c21-10 41-24 62-43-36-69-87-143-152-222-1-1-60-68-176-2e2L774 223c0-27-21-55-63-84l16-20c-10-29-28-43-55-43-31 0-102 102-215 305L164-76c-22-34-53-51-92-51-42 0-63 17-64 51C1-67-2-52-2-32-2-23-1-13 0-2z"/></g><g id="bullet-char-template-10004" transform="scale(0.00048828125,-0.00048828125)"><path d="M285-33C182-33 111 30 74 156 52 228 41 333 41 471c0 78 14 145 41 201 34 71 87 106 158 106 53 0 88-31 106-94l23-176c8-64 28-97 59-98l735 706c11 11 33 17 66 17 42 0 63-15 63-46V965c0-36-10-64-30-84L442 47C390-6 338-33 285-33z"/></g><g id="bullet-char-template-9679" transform="scale(0.00048828125,-0.00048828125)"><path d="M813 0C632 0 489 54 383 161 276 268 223 411 223 592c0 181 53 324 160 431 106 107 249 161 430 161 179 0 323-54 432-161 108-107 162-251 162-431 0-180-54-324-162-431C1136 54 992 0 813 0z"/></g><g id="bullet-char-template-8226" transform="scale(0.00048828125,-0.00048828125)"><path d="M346 457c-73 0-137 26-191 78-54 51-81 114-81 188 0 73 27 136 81 188 54 52 118 78 191 78 73 0 134-26 185-79 51-51 77-114 77-187 0-75-25-137-76-188-50-52-112-78-186-78z"/></g><g id="bullet-char-template-8211" transform="scale(0.00048828125,-0.00048828125)"><path d="M-4 459H1135V606H-4V459z"/></g><g id="bullet-char-template-61548" transform="scale(0.00048828125,-0.00048828125)"><path d="M173 740c0 163 58 303 173 419 116 115 255 173 419 173 163 0 302-58 418-173 116-116 174-256 174-419 0-163-58-303-174-418-116-116-255-174-418-174-164 0-303 58-419 174C231 437 173 577 173 740z"/></g></defs><g class="Page"><g class="Group"><g class="com.sun.star.drawing.ClosedBezierShape"><g id="id3"><path class="BoundingBox" stroke="none" fill="none" d="M12248 31013h869v3087h-869z"/><path fill="rgb(128,187,39)" stroke="none" d="M12686 34099c-981-1632-12-3086 12-3086 0 0 946 1549-12 3086z"/></g></g><g class="com.sun.star.drawing.ClosedBezierShape"><g id="id4"><path class="BoundingBox" stroke="none" fill="none" d="M11161 32574h1350v1539H11161z"/><path fill="rgb(128,187,39)" stroke="none" d="M12509 34111c-1360-237-1348-1537-1348-1537 0 0 1017 248 1348 1513v24z"/></g></g><g class="com.sun.star.drawing.ClosedBezierShape"><g id="id5"><path class="BoundingBox" stroke="none" fill="none" d="M12864 32574h1338v1528H12864z"/><path fill="rgb(128,187,39)" stroke="none" d="M12864 341e2c296-1206 1325-1537 1336-1526 0 0 18 532-343 982-520 568-989 544-993 544z"/></g></g><g class="com.sun.star.drawing.CustomShape"><g id="id6"><path class="BoundingBox" stroke="none" fill="none" d="M10913 308e2h3548v3548H10913z"/><path fill="rgb(128,187,39)" stroke="none" d="M14460 32574c0 311-82 617-238 886-155 270-379 494-649 649-269 156-575 238-886 238-312 0-618-82-887-238-270-155-494-379-649-649-156-269-238-575-238-886 0-312 82-618 238-887 155-270 379-494 649-649 269-156 575-238 886-238 312 0 618 82 887 238 270 155 494 379 649 649 156 269 238 575 238 886v1zm-106 0c0 292-77 580-224 833-146 253-357 464-610 610-253 147-541 224-833 224-293 0-581-77-834-224-253-146-464-357-610-610-147-253-224-541-224-833 0-293 77-581 224-834 146-253 357-464 610-610 253-147 541-224 833-224 293 0 581 77 834 224 253 146 464 357 610 610 147 253 224 541 224 833v1z"/></g></g></g><g class="Group"><g class="com.sun.star.drawing.ClosedBezierShape"><g id="id7"><path class="BoundingBox" stroke="none" fill="none" d="M15052 34062h201v264h-201z"/><path fill="rgb(51,51,51)" stroke="none" d="M15052 34062c12 0 24 0 35 0 0 36 0 72 0 108 44 0 87 0 130 0 0-36 0-72 0-108 12 0 23 0 35 0 0 88 0 175 0 263-12 0-23 0-35 0 0-42 0-84 0-125-43 0-86 0-130 0 0 41 0 83 0 125-11 0-23 0-35 0 0-88 0-175 0-263z"/></g></g><g class="com.sun.star.drawing.ClosedBezierShape"><g id="id8"><path class="BoundingBox" stroke="none" fill="none" d="M15307 34121h184v209h-184z"/><path fill="rgb(51,51,51)" stroke="none" d="M15490 34218v15h-149c1 22 8 39 20 51 12 12 29 17 50 17 13 0 25-1 37-4 11-3 23-8 34-14v31c-11 5-23 9-35 11-13 3-25 4-38 4-31 0-56-9-74-27-19-19-28-43-28-75 0-32 9-58 26-77 18-19 41-28 71-28 26 0 47 9 63 26 15 17 23 40 23 70zm-33-10c0-18-5-32-15-42-9-11-22-16-38-16-18 0-32 5-43 15-11 10-17 25-19 43h115z"/></g></g><g class="com.sun.star.drawing.ClosedBezierShape"><g id="id9"><path class="BoundingBox" stroke="none" fill="none" d="M15534 34121h149v209h-149z"/><path fill="rgb(51,51,51)" stroke="none" d="M15636 34218c15 3 26 8 34 17 8 8 12 19 12 32 0 20-7 36-22 46-16 11-37 16-65 16-10 0-19-1-29-2-10-2-20-5-31-8v-30c8 4 18 8 28 10 10 2 20 3 31 3 18 0 32-3 42-10 9-6 14-15 14-25 0-11-4-19-13-25-9-6-21-9-37-9h-26v-28h27c14 0 24-2 32-7 8-5 12-12 12-20 0-8-4-14-12-19-8-6-19-8-33-8-9 0-18 0-27 2-9 1-20 4-31 7v-29c11-3 22-5 32-7 10-1 20-2 28-2 23 0 42 5 55 14 13 9 20 22 20 38 0 11-4 21-11 28-7 8-17 13-30 16z"/></g></g><g class="com.sun.star.drawing.ClosedBezierShape"><g id="id10"><path class="BoundingBox" stroke="none" fill="none" d="M15724 34121h168v209h-168z"/><path fill="rgb(51,51,51)" stroke="none" d="M15826 34226c-26 0-44 3-54 9-10 5-15 16-15 30 0 11 3 20 11 27 8 7 18 10 31 10 18 0 32-6 43-19 11-12 16-29 16-50v-7h-32zm65-14v112h-33v-30c-7 12-16 21-27 27-11 5-25 8-41 8-20 0-36-5-48-17-12-11-18-26-18-45 0-22 7-39 22-50 15-11 37-17 67-17h45v-3c0-15-5-27-14-35-10-8-24-12-42-12-11 0-22 1-33 4-10 2-21 6-30 12v-30c11-5 23-8 34-11 11-2 22-3 33-3 28 0 50 7 64 22 14 15 21 38 21 68z"/></g></g><g class="com.sun.star.drawing.ClosedBezierShape"><g id="id11"><path class="BoundingBox" stroke="none" fill="none" d="M15956 34127h161v2e2h-161z"/><path fill="rgb(51,51,51)" stroke="none" d="M15989 34233v66h46c14 0 26-3 33-9 8-5 12-13 12-24 0-11-4-19-12-24-7-6-19-9-33-9h-46zm0-80v55h42c13 0 22-3 30-8 8-5 12-11 12-20 0-9-4-16-12-20-8-5-17-7-30-7h-42zm-33-26h77c24 0 41 4 54 13 12 8 19 20 19 36 0 12-4 22-10 29-6 7-16 11-28 13 15 3 26 9 34 18 9 9 13 20 13 33 0 18-7 31-21 41-13 10-33 15-58 15h-80v-198z"/></g></g><g class="com.sun.star.drawing.ClosedBezierShape"><g id="id12"><path class="BoundingBox" stroke="none" fill="none" d="M16169 34127h170v2e2h-170z"/><path fill="rgb(51,51,51)" stroke="none" d="M16338 34127c0 66 0 132 0 198-11 0-21 0-32 0 0-53 0-106 0-159-32 53-64 106-96 159-13 0-27 0-41 0 0-66 0-132 0-198 11 0 21 0 32 0 0 53 0 105 0 158 32-53 64-105 95-158 14 0 28 0 42 0z"/></g></g><g class="com.sun.star.drawing.ClosedBezierShape"><g id="id13"><path class="BoundingBox" stroke="none" fill="none" d="M16390 34121h158v209h-158z"/><path fill="rgb(51,51,51)" stroke="none" d="M16547 34135v30c-9-5-18-9-27-11-9-3-19-4-28-4-21 0-38 6-49 20-12 13-18 32-18 56 0 24 6 42 18 56 11 13 28 19 49 19 9 0 19-1 28-3 9-3 18-7 27-12v30c-9 4-18 8-28 10-9 2-20 3-31 3-29 0-53-9-71-28-17-18-26-44-26-75 0-33 9-58 27-76 17-19 42-28 72-28 10 0 20 1 30 3 9 2 19 5 27 10z"/></g></g><g class="com.sun.star.drawing.ClosedBezierShape"><g id="id14"><path class="BoundingBox" stroke="none" fill="none" d="M16604 34127h170v2e2h-170z"/><path fill="rgb(51,51,51)" stroke="none" d="M16773 34127c0 66 0 132 0 198-11 0-21 0-32 0 0-53 0-106 0-159-32 53-64 106-96 159-13 0-27 0-41 0 0-66 0-132 0-198 11 0 21 0 32 0 0 53 0 105 0 158 32-53 64-105 95-158 14 0 28 0 42 0z"/></g></g><g class="com.sun.star.drawing.ClosedBezierShape"><g id="id15"><path class="BoundingBox" stroke="none" fill="none" d="M16839 34127h209v2e2h-209z"/><path fill="rgb(51,51,51)" stroke="none" d="M16840 34127c16 0 32 0 47 0 19 44 38 88 56 132 19-44 38-88 57-132 15 0 31 0 47 0 0 66 0 132 0 198-11 0-22 0-33 0 0-56 0-111 0-167-18 43-36 86-54 129-11 0-22 0-33 0-18-43-36-86-54-129 0 56 0 111 0 167-11 0-22 0-33 0 0-66 0-132 0-198z"/></g></g><g class="com.sun.star.drawing.ClosedBezierShape"><g id="id16"><path class="BoundingBox" stroke="none" fill="none" d="M17113 34127h222v2e2h-222z"/><path fill="rgb(51,51,51)" stroke="none" d="M17302 34127h32v198h-32v-198zm-64 139c0-11-4-19-12-24-7-6-19-9-33-9h-46v66h46c14 0 26-3 33-9 8-5 12-13 12-24zm-124-139h33v81h47c25 0 45 4 58 14 14 10 21 24 21 44 0 20-7 34-21 44-13 10-33 15-58 15h-80v-198z"/></g></g><g class="com.sun.star.drawing.ClosedBezierShape"><g id="id17"><path class="BoundingBox" stroke="none" fill="none" d="M17399 34050h170v276h-170z"/><path fill="rgb(51,51,51)" stroke="none" d="M17568 34127v198h-32v-159l-96 159h-41v-198h32v158l95-158h42zm-140-77h21c1 9 5 15 11 20 5 4 13 6 24 6 10 0 18-2 23-6 6-4 9-11 11-20h21c-1 17-7 30-16 38-9 9-22 13-39 13-18 0-31-4-40-13-9-8-15-21-16-38z"/></g></g><g class="com.sun.star.drawing.ClosedBezierShape"><g id="id18"><path class="BoundingBox" stroke="none" fill="none" d="M17752 34062h201v264h-201z"/><path fill="rgb(51,51,51)" stroke="none" d="M17952 34062c0 88 0 175 0 263-12 0-23 0-35 0 0-78 0-155 0-233-43 0-86 0-130 0 0 78 0 155 0 233-11 0-23 0-35 0 0-88 0-175 0-263 67 0 134 0 2e2.0z"/></g></g><g class="com.sun.star.drawing.ClosedBezierShape"><g id="id19"><path class="BoundingBox" stroke="none" fill="none" d="M18009 34121h169v209h-169z"/><path fill="rgb(51,51,51)" stroke="none" d="M18111 34226c-26 0-44 3-54 9-10 5-15 16-15 30 0 11 3 20 11 27 8 7 18 10 31 10 18 0 32-6 43-19 11-12 16-29 16-50v-7h-32zm65-14v112h-33v-30c-7 12-16 21-27 27-11 5-25 8-41 8-20 0-36-5-48-17-12-11-18-26-18-45 0-22 7-39 22-50 15-11 37-17 67-17h45v-3c0-15-5-27-14-35-10-8-24-12-42-12-11 0-22 1-33 4-10 2-21 6-30 12v-30c11-5 23-8 34-11 11-2 22-3 33-3 28 0 50 7 64 22 14 15 21 38 21 68z"/></g></g><g class="com.sun.star.drawing.ClosedBezierShape"><g id="id20"><path class="BoundingBox" stroke="none" fill="none" d="M18241 34122h178v280h-178z"/><path fill="rgb(51,51,51)" stroke="none" d="M18274 34294v106h-33v-273h33v30c7-12 15-21 26-26 10-6 22-9 37-9 24 0 43 10 58 29 15 19 23 44 23 75 0 31-8 56-23 75-15 19-34 28-58 28-15 0-27-3-37-8-11-6-19-15-26-27zm110-68c0-24-5-43-14-57-10-13-24-20-41-20-17 0-31 7-41 20-9 14-14 33-14 57 0 23 5 42 14 56 10 13 24 20 41 20 17 0 31-7 41-20 9-14 14-33 14-56z"/></g></g><g class="com.sun.star.drawing.ClosedBezierShape"><g id="id21"><path class="BoundingBox" stroke="none" fill="none" d="M18449 34127h190v2e2h-190z"/><path fill="rgb(51,51,51)" stroke="none" d="M18449 34127c63 0 126 0 189 0 0 9 0 17 0 26-26 0-52 0-78 0 0 57 0 114 0 172-11 0-22 0-32 0 0-58 0-115 0-172-27 0-53 0-79 0 0-9 0-17 0-26z"/></g></g><g class="com.sun.star.drawing.ClosedBezierShape"><g id="id22"><path class="BoundingBox" stroke="none" fill="none" d="M18683 34127h171v2e2h-171z"/><path fill="rgb(51,51,51)" stroke="none" d="M18683 34127c11 0 22 0 33 0 0 27 0 54 0 81 35 0 70 0 105 0 0-27 0-54 0-81 11 0 22 0 32 0 0 66 0 132 0 198-10 0-21 0-32 0 0-31 0-61 0-92-35 0-70 0-105 0 0 31 0 61 0 92-11 0-22 0-33 0 0-66 0-132 0-198z"/></g></g><g class="com.sun.star.drawing.ClosedBezierShape"><g id="id23"><path class="BoundingBox" stroke="none" fill="none" d="M18906 34121h184v209h-184z"/><path fill="rgb(51,51,51)" stroke="none" d="M19089 34218v15h-149c1 22 8 39 20 51 12 12 29 17 50 17 13 0 25-1 37-4 11-3 23-8 34-14v31c-11 5-23 9-35 11-13 3-25 4-38 4-31 0-56-9-74-27-19-19-28-43-28-75 0-32 9-58 26-77 18-19 41-28 71-28 26 0 47 9 63 26 15 17 23 40 23 70zm-33-10c0-18-5-32-15-42-9-11-22-16-38-16-18 0-32 5-43 15-11 10-17 25-19 43h115z"/></g></g><g class="com.sun.star.drawing.ClosedBezierShape"><g id="id24"><path class="BoundingBox" stroke="none" fill="none" d="M19141 34122h179v280h-179z"/><path fill="rgb(51,51,51)" stroke="none" d="M19175 34294v106h-33v-273h33v30c7-12 15-21 26-26 10-6 22-9 37-9 24 0 43 10 58 29 15 19 23 44 23 75 0 31-8 56-23 75-15 19-34 28-58 28-15 0-27-3-37-8-11-6-19-15-26-27zm110-68c0-24-5-43-14-57-10-13-24-20-41-20-17 0-31 7-41 20-9 14-14 33-14 57 0 23 5 42 14 56 10 13 24 20 41 20 17 0 31-7 41-20 9-14 14-33 14-56z"/></g></g><g class="com.sun.star.drawing.ClosedBezierShape"><g id="id25"><path class="BoundingBox" stroke="none" fill="none" d="M19490 34062h201v264h-201z"/><path fill="rgb(51,51,51)" stroke="none" d="M19490 34062c12 0 24 0 35 0 0 36 0 72 0 108 44 0 87 0 130 0 0-36 0-72 0-108 12 0 23 0 35 0 0 88 0 175 0 263-12 0-23 0-35 0 0-42 0-84 0-125-43 0-86 0-130 0 0 41 0 83 0 125-11 0-23 0-35 0 0-88 0-175 0-263z"/></g></g><g class="com.sun.star.drawing.ClosedBezierShape"><g id="id26"><path class="BoundingBox" stroke="none" fill="none" d="M19745 34121h184v209h-184z"/><path fill="rgb(51,51,51)" stroke="none" d="M19928 34218v15h-149c1 22 8 39 20 51 12 12 29 17 50 17 13 0 25-1 37-4 11-3 23-8 34-14v31c-11 5-23 9-35 11-13 3-25 4-38 4-31 0-56-9-74-27-19-19-28-43-28-75 0-32 9-58 26-77 18-19 41-28 71-28 26 0 47 9 63 26 15 17 23 40 23 70zm-33-10c0-18-5-32-15-42-9-11-22-16-38-16-18 0-32 5-43 15-11 10-17 25-19 43h115z"/></g></g><g class="com.sun.star.drawing.ClosedBezierShape"><g id="id27"><path class="BoundingBox" stroke="none" fill="none" d="M19982 34122h116v203h-116z"/><path fill="rgb(51,51,51)" stroke="none" d="M20097 34157c-3-2-7-3-11-4-5-1-9-2-15-2-18 0-32 6-42 18-9 12-14 29-14 51v104h-33v-197h33v30c6-12 15-20 26-26 11-6 24-9 40-9 2 0 5 0 7 1 3 0 6 0 9 1v33z"/></g></g><g class="com.sun.star.drawing.ClosedBezierShape"><g id="id28"><path class="BoundingBox" stroke="none" fill="none" d="M20132 34051h178v280h-178z"/><path fill="rgb(51,51,51)" stroke="none" d="M20275 34226c0-24-5-42-14-56-10-13-24-20-41-20-17 0-31 7-41 20-9 14-14 32-14 56 0 24 5 43 14 56 10 14 24 21 41 21 17 0 31-7 41-21 9-13 14-32 14-56zm-110-69c7-11 15-20 26-26 10-6 22-8 37-8 24 0 43 9 58 28 15 19 23 44 23 75 0 31-8 56-23 75-15 19-34 29-58 29-15 0-27-3-37-9-11-5-19-14-26-26v30h-33v-274h33v106z"/></g></g><g class="com.sun.star.drawing.ClosedBezierShape"><g id="id29"><path class="BoundingBox" stroke="none" fill="none" d="M20350 34121h169v209h-169z"/><path fill="rgb(51,51,51)" stroke="none" d="M20452 34226c-26 0-44 3-54 9-10 5-15 16-15 30 0 11 3 20 11 27 8 7 18 10 31 10 18 0 32-6 43-19 11-12 16-29 16-50v-7h-32zm65-14v112h-33v-30c-7 12-16 21-27 27-11 5-25 8-41 8-20 0-36-5-48-17-12-11-18-26-18-45 0-22 7-39 22-50 15-11 37-17 67-17h45v-3c0-15-5-27-14-35-10-8-24-12-42-12-11 0-22 1-33 4-10 2-21 6-30 12v-30c11-5 23-8 34-11 11-2 22-3 33-3 28 0 50 7 64 22 14 15 21 38 21 68z"/></g></g><g class="com.sun.star.drawing.ClosedBezierShape"><g id="id30"><path class="BoundingBox" stroke="none" fill="none" d="M20583 34051h34v275h-34z"/><path fill="rgb(51,51,51)" stroke="none" d="M20583 34051c11 0 22 0 33 0 0 91 0 183 0 274-11 0-22 0-33 0 0-91 0-183 0-274z"/></g></g><g class="com.sun.star.drawing.ClosedBezierShape"><g id="id31"><path class="BoundingBox" stroke="none" fill="none" d="M20683 34051h34v275h-34z"/><path fill="rgb(51,51,51)" stroke="none" d="M20683 34128c11 0 22 0 33 0 0 65 0 131 0 197-11 0-22 0-33 0 0-66 0-132 0-197zm0-77c11 0 22 0 33 0 0 14 0 27 0 41-11 0-22 0-33 0 0-14 0-27 0-41z"/></g></g><g class="com.sun.star.drawing.ClosedBezierShape"><g id="id32"><path class="BoundingBox" stroke="none" fill="none" d="M20758 34051h127v275h-127z"/><path fill="rgb(51,51,51)" stroke="none" d="M20884 34051v27h-31c-12 0-20 2-24 7-5 5-7 13-7 25v18h54v25h-54v172h-33v-172h-31v-25h31v-14c0-22 5-38 16-48 10-10 26-15 48-15h31z"/></g></g><g class="com.sun.star.drawing.ClosedBezierShape"><g id="id33"><path class="BoundingBox" stroke="none" fill="none" d="M20896 34121h184v209h-184z"/><path fill="rgb(51,51,51)" stroke="none" d="M21079 34218v15h-149c1 22 8 39 20 51 12 12 29 17 50 17 13 0 25-1 37-4 11-3 23-8 34-14v31c-11 5-23 9-35 11-13 3-25 4-38 4-31 0-56-9-74-27-19-19-28-43-28-75 0-32 9-58 26-77 18-19 41-28 71-28 26 0 47 9 63 26 15 17 23 40 23 70zm-33-10c0-18-5-32-15-42-9-11-22-16-38-16-18 0-32 5-43 15-11 10-17 25-19 43h115z"/></g></g></g><g class="Group"><g class="com.sun.star.drawing.ClosedBezierShape"><g id="id34"><path class="BoundingBox" stroke="none" fill="none" d="M15026 31053h674v704h-674z"/><path fill="rgb(51,51,51)" stroke="none" d="M15027 31053c72 0 145 0 217 0 0 82 0 164 0 246 79 0 158 0 237 0 0-82 0-164 0-246 73 0 145 0 218 0 0 234 0 468 0 703-73 0-145 0-218 0 0-95 0-190 0-285-79 0-158 0-237 0 0 95 0 190 0 285-72 0-145 0-217 0 0-235 0-469 0-703z"/></g></g><g class="com.sun.star.drawing.ClosedBezierShape"><g id="id35"><path class="BoundingBox" stroke="none" fill="none" d="M15842 31053h594v704h-594z"/><path fill="rgb(51,51,51)" stroke="none" d="M15842 31053c194 0 388 0 581 0 0 50 0 1e2.0 150-121 0-242 0-363 0 0 37 0 74 0 112 112 0 225 0 337 0 0 47 0 95 0 143-112 0-225 0-337 0 0 46 0 92 0 138 124 0 249 0 374 0 0 53 0 106 0 160-197 0-395 0-592 0 0-235 0-469 0-703z"/></g></g><g class="com.sun.star.drawing.ClosedBezierShape"><g id="id36"><path class="BoundingBox" stroke="none" fill="none" d="M16550 31053h693v704h-693z"/><path fill="rgb(51,51,51)" stroke="none" d="M16551 31756v-703h362c67 0 118 6 154 17 35 12 64 33 86 64 21 31 32 69 32 114 0 39-8 73-25 101-16 28-39 51-68 69-19 11-44 20-77 27 26 9 45 18 57 26 8 6 19 18 34 37 16 19 26 34 31 44l105 204h-245l-116-215c-15-28-28-46-40-54-15-11-33-17-53-17h-19v286h-218zm218-419h92c10 0 29-3 58-9 14-3 26-10 35-22 9-12 14-25 14-41 0-22-8-40-22-52-14-12-42-18-81-18h-96v142z"/></g></g><g class="com.sun.star.drawing.ClosedBezierShape"><g id="id37"><path class="BoundingBox" stroke="none" fill="none" d="M17311 31053h651v704h-651z"/><path fill="rgb(51,51,51)" stroke="none" d="M17311 31053h407c67 0 119 17 156 50 36 34 54 76 54 125 0 42-13 77-39 107-17 20-42 36-76 47 51 12 88 33 112 63 24 29 36 66 36 111 0 36-9 69-26 98-17 29-40 52-69 69-19 10-46 18-83 23-49 6-81 10-97 10h-375v-703zm219 276h95c33 0 57-6 70-17 13-12 20-29 20-51 0-21-7-37-20-48-13-12-36-17-69-17h-96v133zm0 276h111c37 0 64-7 79-20 15-13 23-31 23-54 0-20-8-37-23-49-15-13-42-19-80-19h-110v142z"/></g></g><g class="com.sun.star.drawing.ClosedBezierShape"><g id="id38"><path class="BoundingBox" stroke="none" fill="none" d="M17984 31053h767v704h-767z"/><path fill="rgb(51,51,51)" stroke="none" d="M18488 31639c-82 0-165 0-247 0-11 39-23 78-34 117-74 0-148 0-222 0 88-235 176-469 264-703 79 0 158 0 237 0 88 234 176 468 264 703-76 0-151 0-227 0-12-39-24-78-35-117zm-46-151c-25-84-51-169-77-253-26 84-51 169-77 253 52 0 103 0 154 0z"/></g></g><g class="com.sun.star.drawing.ClosedBezierShape"><g id="id39"><path class="BoundingBox" stroke="none" fill="none" d="M18819 31053h557v704h-557z"/><path fill="rgb(51,51,51)" stroke="none" d="M18819 31053c72 0 145 0 217 0 0 176 0 353 0 529 113 0 226 0 339 0 0 58 0 116 0 174-186 0-371 0-556 0 0-235 0-469 0-703z"/></g></g><g class="com.sun.star.drawing.ClosedBezierShape"><g id="id40"><path class="BoundingBox" stroke="none" fill="none" d="M19481 31053h219v704h-219z"/><path fill="rgb(51,51,51)" stroke="none" d="M19481 31053c73 0 145 0 218 0 0 234 0 468 0 703-73 0-145 0-218 0 0-235 0-469 0-703z"/></g></g><g class="com.sun.star.drawing.ClosedBezierShape"><g id="id41"><path class="BoundingBox" stroke="none" fill="none" d="M19856 31053h537v704h-537z"/><path fill="rgb(51,51,51)" stroke="none" d="M19856 31053c179 0 358 0 536 0 0 50 0 101 0 151-106 0-212 0-318 0 0 41 0 82 0 122 90 0 181 0 272 0 0 48 0 95 0 142-91 0-182 0-272 0 0 96 0 192 0 288-73 0-145 0-218 0 0-235 0-469 0-703z"/></g></g><g class="com.sun.star.drawing.ClosedBezierShape"><g id="id42"><path class="BoundingBox" stroke="none" fill="none" d="M20508 31053h593v704h-593z"/><path fill="rgb(51,51,51)" stroke="none" d="M20508 31053c194 0 388 0 581 0 0 50 0 1e2.0 150-121 0-242 0-363 0 0 37 0 74 0 112 112 0 225 0 337 0 0 47 0 95 0 143-112 0-225 0-337 0 0 46 0 92 0 138 124 0 249 0 374 0 0 53 0 106 0 160-197 0-395 0-592 0 0-235 0-469 0-703z"/></g></g></g><g class="Group"><g class="com.sun.star.drawing.ClosedBezierShape"><g id="id43"><path class="BoundingBox" stroke="none" fill="none" d="M15040 32179h334v355h-334z"/><path fill="rgb(128,187,39)" stroke="none" d="M15280 32386l92 28c-6 26-16 48-29 66-13 17-30 30-50 39-20 9-45 13-75 13-37 0-68-5-91-16-24-11-44-30-61-57-17-27-26-62-26-104 0-57 15-1e2 45-130 30-31 73-46 128-46 43 0 77 9 101 26 25 18 43 44 55 81l-93 20c-3-10-7-18-10-23-6-8-13-14-22-18-8-5-18-7-28-7-24 0-43 10-55 29-10 14-15 37-15 67 0 38 6 64 18 78 11 14 27 21 48 21 20 0 35-6 46-17 10-11 17-28 22-50z"/></g></g><g class="com.sun.star.drawing.ClosedBezierShape"><g id="id44"><path class="BoundingBox" stroke="none" fill="none" d="M15426 32183h316v344h-316z"/><path fill="rgb(128,187,39)" stroke="none" d="M15532 32315h56c52 0 90 10 116 28 25 18 37 47 37 85 0 32-11 56-34 73-23 17-56 25-99 25h-182v-342h288v70h-182v61zm0 137h54c33 0 49-12 49-35 0-21-16-32-49-32h-54v67z"/></g></g><g class="com.sun.star.drawing.ClosedBezierShape"><g id="id45"><path class="BoundingBox" stroke="none" fill="none" d="M15765 32183h374v344h-374z"/><path fill="rgb(128,187,39)" stroke="none" d="M16010 32470c-40 0-80 0-120 0-5 19-11 37-17 56-36 0-72 0-108 0 43-114 85-228 128-342 39 0 78 0 117 0 42 114 85 228 128 342-37 0-74 0-111 0-6-19-11-37-17-56zm-22-75c-13-41-25-81-38-122-12 41-25 81-37 122 25 0 50 0 75 0z"/></g></g><g class="com.sun.star.drawing.ClosedBezierShape"><g id="id46"><path class="BoundingBox" stroke="none" fill="none" d="M16139 32184h350v345h-350z"/><path fill="rgb(128,187,39)" stroke="none" d="M16488 32526h-106v-258h-82v105c0 44-3 75-7 96-5 20-16 35-32 44-17 10-45 15-82 15-12 0-25-2-40-4v-69h16c14 0 24-4 30-10 6-6 9-18 9-35v-226h294v342z"/></g></g><g class="com.sun.star.drawing.ClosedBezierShape"><g id="id47"><path class="BoundingBox" stroke="none" fill="none" d="M16525 32183h374v344h-374z"/><path fill="rgb(128,187,39)" stroke="none" d="M16770 32470c-40 0-80 0-120 0-5 19-11 37-17 56-36 0-72 0-108 0 43-114 85-228 128-342 39 0 78 0 117 0 42 114 85 228 128 342-37 0-74 0-111 0-6-19-11-37-17-56zm-22-75c-13-41-25-81-38-122-12 41-25 81-37 122 25 0 50 0 75 0z"/></g></g><g class="com.sun.star.drawing.ClosedBezierShape"><g id="id48"><path class="BoundingBox" stroke="none" fill="none" d="M16934 32183h330v344h-330z"/><path fill="rgb(128,187,39)" stroke="none" d="M16934 32184c35 0 70 0 106 0 0 40 0 80 0 120 38 0 77 0 115 0 0-40 0-80 0-120 36 0 71 0 107 0 0 114 0 228 0 342-36 0-71 0-107 0 0-46 0-92 0-138-38 0-77 0-115 0 0 46 0 92 0 138-36 0-71 0-106 0 0-114 0-228 0-342z"/></g></g><g class="com.sun.star.drawing.ClosedBezierShape"><g id="id49"><path class="BoundingBox" stroke="none" fill="none" d="M17322 32179h333v355h-333z"/><path fill="rgb(128,187,39)" stroke="none" d="M17562 32386l92 28c-6 26-16 48-29 66-13 17-30 30-50 39-20 9-45 13-75 13-37 0-68-5-91-16-24-11-44-30-61-57-17-27-26-62-26-104 0-57 15-1e2 45-130 30-31 73-46 128-46 43 0 77 9 101 26 25 18 43 44 55 81l-93 20c-3-10-7-18-10-23-6-8-13-14-22-18-8-5-18-7-28-7-24 0-43 10-55 29-10 14-15 37-15 67 0 38 6 64 18 78 11 14 27 21 48 21 20 0 35-6 46-17 10-11 17-28 22-50z"/></g></g><g class="com.sun.star.drawing.ClosedBezierShape"><g id="id50"><path class="BoundingBox" stroke="none" fill="none" d="M17708 32183h330v344h-330z"/><path fill="rgb(128,187,39)" stroke="none" d="M18036 32184c0 114 0 228 0 342-34 0-67 0-1e2.0.0-62 0-125 0-188-43 63-86 126-129 188-33 0-66 0-99 0 0-114 0-228 0-342 33 0 66 0 99 0 0 63 0 126 0 189 44-63 87-126 130-189 33 0 66 0 99 0z"/></g></g><g class="com.sun.star.drawing.ClosedBezierShape"><g id="id51"><path class="BoundingBox" stroke="none" fill="none" d="M18108 32183h292v344h-292z"/><path fill="rgb(128,187,39)" stroke="none" d="M18108 32184h176c38 0 67 9 86 27 19 19 29 45 29 78 0 35-11 62-31 81-21 20-53 30-96 30h-58v126h-106v-342zm106 146h26c21 0 35-3 43-11 9-7 13-16 13-27 0-11-4-20-11-27-7-8-21-11-40-11h-31v76z"/></g></g><g class="com.sun.star.drawing.ClosedBezierShape"><g id="id52"><path class="BoundingBox" stroke="none" fill="none" d="M18442 32179h356v355h-356z"/><path fill="rgb(128,187,39)" stroke="none" d="M18442 32356c0-56 16-99 47-130 31-31 74-47 130-47 57 0 101 15 131 46 31 30 47 73 47 128 0 40-7 73-20 98-14 26-33 46-59 60-25 14-57 21-95 21-39 0-71-6-96-18-25-12-46-32-61-58-16-27-24-60-24-1e2zm106 0c0 35 6 59 19 74 13 16 30 23 52 23 23 0 41-7 53-22 13-15 19-41 19-79 0-33-6-56-20-71-13-15-30-22-52-22-22 0-39 8-52 23-13 15-19 40-19 74z"/></g></g><g class="com.sun.star.drawing.ClosedBezierShape"><g id="id53"><path class="BoundingBox" stroke="none" fill="none" d="M18856 32183h317v344h-317z"/><path fill="rgb(128,187,39)" stroke="none" d="M18856 32184h198c33 0 58 8 76 25 18 16 26 36 26 60 0 21-6 38-18 52-9 10-21 18-37 23 24 6 42 16 54 31 12 14 17 32 17 54 0 18-4 34-12 48-8 14-19 25-34 33-9 5-22 9-40 12-24 3-40 4-47 4h-183v-342zm107 134h46c16 0 28-3 34-8 7-6 10-14 10-25 0-10-3-17-10-23-6-6-17-8-33-8h-47v64zm0 134h54c18 0 31-3 38-9 7-7 11-15 11-26 0-10-4-18-11-24-7-6-20-9-39-9h-53v68z"/></g></g><g class="com.sun.star.drawing.ClosedBezierShape"><g id="id54"><path class="BoundingBox" stroke="none" fill="none" d="M19196 32183h374v344h-374z"/><path fill="rgb(128,187,39)" stroke="none" d="M19441 32470c-40 0-80 0-120 0-5 19-11 37-17 56-36 0-72 0-108 0 43-114 85-228 128-342 39 0 78 0 117 0 42 114 85 228 128 342-37 0-74 0-111 0-6-19-11-37-17-56zm-22-75c-13-41-25-81-38-122-12 41-25 81-37 122 25 0 50 0 75 0z"/></g></g><g class="com.sun.star.drawing.ClosedBezierShape"><g id="id55"><path class="BoundingBox" stroke="none" fill="none" d="M19605 32183h329v344h-329z"/><path fill="rgb(128,187,39)" stroke="none" d="M19605 32184c35 0 70 0 106 0 0 40 0 80 0 120 38 0 77 0 115 0 0-40 0-80 0-120 36 0 71 0 107 0 0 114 0 228 0 342-36 0-71 0-107 0 0-46 0-92 0-138-38 0-77 0-115 0 0 46 0 92 0 138-36 0-71 0-106 0 0-114 0-228 0-342z"/></g></g><g class="com.sun.star.drawing.ClosedBezierShape"><g id="id56"><path class="BoundingBox" stroke="none" fill="none" d="M20005 32183h329v344h-329z"/><path fill="rgb(128,187,39)" stroke="none" d="M20005 32184c35 0 70 0 106 0 0 40 0 80 0 120 38 0 77 0 115 0 0-40 0-80 0-120 36 0 71 0 107 0 0 114 0 228 0 342-36 0-71 0-107 0 0-46 0-92 0-138-38 0-77 0-115 0 0 46 0 92 0 138-36 0-71 0-106 0 0-114 0-228 0-342z"/></g></g><g class="com.sun.star.drawing.ClosedBezierShape"><g id="id57"><path class="BoundingBox" stroke="none" fill="none" d="M20391 32179h357v355h-357z"/><path fill="rgb(128,187,39)" stroke="none" d="M20391 32356c0-56 16-99 47-130 31-31 74-47 130-47 57 0 101 15 131 46 31 30 47 73 47 128 0 40-7 73-20 98-14 26-33 46-59 60-25 14-57 21-95 21-39 0-71-6-96-18-25-12-46-32-61-58-16-27-24-60-24-1e2zm106 0c0 35 6 59 19 74 13 16 30 23 52 23 23 0 41-7 53-22 13-15 19-41 19-79 0-33-6-56-20-71-13-15-30-22-52-22-22 0-39 8-52 23-13 15-19 40-19 74z"/></g></g><g class="com.sun.star.drawing.ClosedBezierShape"><g id="id58"><path class="BoundingBox" stroke="none" fill="none" d="M20805 32183h290v344h-290z"/><path fill="rgb(128,187,39)" stroke="none" d="M20805 32184c95 0 189 0 284 0 0 24 0 49 0 73-59 0-118 0-178 0 0 18 0 36 0 54 55 0 110 0 165 0 0 23 0 47 0 70-55 0-110 0-165 0 0 22 0 45 0 67 61 0 122 0 183 0 0 26 0 52 0 78-97 0-193 0-289 0 0-114 0-228 0-342z"/></g></g></g><g class="Group"><g class="com.sun.star.drawing.ClosedBezierShape"><g id="id59"><path class="BoundingBox" stroke="none" fill="none" d="M15035 32910h758v793h-758z"/><path fill="rgb(128,187,39)" stroke="none" d="M15792 33701c-81 0-162 0-243 0 0-199 0-398 0-597-90 0-180 0-270 0 0 199 0 398 0 597-81 0-162 0-243 0 0-264 0-527 0-791 252 0 504 0 756 0 0 264 0 527 0 791z"/></g></g><g class="com.sun.star.drawing.ClosedBezierShape"><g id="id60"><path class="BoundingBox" stroke="none" fill="none" d="M15954 32910h757v793h-757z"/><path fill="rgb(128,187,39)" stroke="none" d="M16710 32910c0 264 0 527 0 791-76 0-153 0-229 0 0-145 0-290 0-434-99 144-198 289-297 434-76 0-153 0-230 0 0-264 0-527 0-791 77 0 153 0 230 0 0 146 0 292 0 438 1e2-146 199-292 299-438 75 0 151 0 227 0z"/></g></g><g class="com.sun.star.drawing.ClosedBezierShape"><g id="id61"><path class="BoundingBox" stroke="none" fill="none" d="M16818 32910h744v793h-744z"/><path fill="rgb(128,187,39)" stroke="none" d="M16818 32910c247 0 495 0 742 0 0 65 0 130 0 195-83 0-166 0-249 0 0 199 0 397 0 596-81 0-163 0-244 0 0-199 0-397 0-596-83 0-166 0-249 0 0-65 0-130 0-195z"/></g></g><g class="com.sun.star.drawing.ClosedBezierShape"><g id="id62"><path class="BoundingBox" stroke="none" fill="none" d="M17591 32910h861v793h-861z"/><path fill="rgb(128,187,39)" stroke="none" d="M18156 33570c-92 0-184 0-277 0-13 44-26 87-39 131-83 0-166 0-249 0 99-264 198-527 297-791 89 0 178 0 267 0 99 264 198 527 296 791-85 0-170 0-255 0-14-44-27-87-40-131zm-51-171c-29-95-58-189-87-284-28 95-57 189-86 284 58 0 115 0 173 0z"/></g></g><g class="com.sun.star.drawing.ClosedBezierShape"><g id="id63"><path class="BoundingBox" stroke="none" fill="none" d="M18531 32910h758v793h-758z"/><path fill="rgb(128,187,39)" stroke="none" d="M18531 32910c81 0 163 0 244 0 0 92 0 185 0 277 89 0 178 0 267 0 0-92 0-185 0-277 82 0 164 0 246 0 0 264 0 527 0 791-82 0-164 0-246 0 0-107 0-213 0-320-89 0-178 0-267 0 0 107 0 213 0 320-81 0-163 0-244 0 0-264 0-527 0-791z"/></g></g><g class="com.sun.star.drawing.ClosedBezierShape"><g id="id64"><path class="BoundingBox" stroke="none" fill="none" d="M19449 32910h758v793h-758z"/><path fill="rgb(128,187,39)" stroke="none" d="M20206 32910c0 264 0 527 0 791-76 0-153 0-229 0 0-145 0-290 0-434-99 144-198 289-297 434-76 0-153 0-230 0 0-264 0-527 0-791 77 0 153 0 230 0 0 146 0 292 0 438 1e2-146 199-292 299-438 75 0 151 0 227 0z"/></g></g><g class="com.sun.star.drawing.ClosedBezierShape"><g id="id65"><path class="BoundingBox" stroke="none" fill="none" d="M20368 32910h667v793h-667z"/><path fill="rgb(128,187,39)" stroke="none" d="M20368 32910c218 0 436 0 655 0 0 56 0 113 0 169-137 0-274 0-410 0 0 42 0 84 0 126 126 0 253 0 380 0 0 54 0 107 0 161-127 0-254 0-380 0 0 52 0 104 0 156 140 0 281 0 421 0 0 60 0 119 0 179-222 0-444 0-666 0 0-264 0-527 0-791z"/></g></g></g></g></svg>