<?xml version="1.0" encoding="UTF-8"?>
<!DOCTYPE svg  PUBLIC '-//W3C//DTD SVG 1.1//EN'  'http://www.w3.org/Graphics/SVG/1.1/DTD/svg11.dtd'>
<svg width="146.47mm" height="53.77mm" fill-rule="evenodd" stroke-linejoin="round" stroke-width="28.222" preserveAspectRatio="xMidYMid" version="1.2" viewBox="4677 2489 14647 5377" xml:space="preserve" xmlns="http://www.w3.org/2000/svg">
 <defs class="EmbeddedBulletChars">
  
  
  
  
  
  
  
  
  
  
 </defs>
 <g class="Page">
  <g class="Group">
   <g class="com.sun.star.drawing.ClosedBezierShape">
    <g>
     <rect class="BoundingBox" x="6597" y="2795" width="1248" height="4438" fill="none"/>
     <path d="m7227 7232c-1410-2346-17-4437 18-4437 0 0 1359 2227-18 4437z" fill="#fff"/>
    </g>
   </g>
   <g class="com.sun.star.drawing.ClosedBezierShape">
    <g>
     <rect class="BoundingBox" x="5034" y="5039" width="1940" height="2212" fill="none"/>
     <path d="m6972 7249c-1955-340-1938-2210-1938-2210s1462 357 1938 2176v34z" fill="#fff"/>
    </g>
   </g>
   <g class="com.sun.star.drawing.ClosedBezierShape">
    <g>
     <rect class="BoundingBox" x="7482" y="5038" width="1923" height="2196" fill="none"/>
     <path d="m7482 7232c425-1734 1904-2209 1921-2193 0 0 25 765-493 1412-748 816-1423 781-1428 781z" fill="#fff"/>
    </g>
   </g>
   <g class="com.sun.star.drawing.CustomShape">
    <g>
     <rect class="BoundingBox" x="4677" y="2489" width="5102" height="5102" fill="none"/>
     <path d="m9778 5040c0 447-118 887-342 1275-224 387-546 709-933 933-388 224-828 342-1275 342-448 0-888-118-1276-342-387-224-709-546-933-933-224-388-342-828-342-1275 0-448 118-888 342-1276 224-387 546-709 933-933 388-224 828-342 1275-342 448 0 888 118 1276 342 387 224 709 546 933 933 224 388 342 828 342 1275v1zm-153 0c0 420-111 834-321 1198-211 365-513 667-878 878-364 210-778 321-1198 321-421 0-835-111-1199-321-365-211-667-513-878-878-210-364-321-778-321-1198 0-421 111-835 321-1199 211-365 513-667 878-878 364-210 778-321 1198-321 421 0 835 111 1199 321 365 211 667 513 878 878 210 364 321 778 321 1198v1z" fill="#fff"/>
    </g>
   </g>
  </g>
  <g class="Group">
   <g class="com.sun.star.drawing.ClosedBezierShape">
    <g>
     <rect class="BoundingBox" x="10628" y="7378" width="289" height="380" fill="none"/>
     <path d="m10628 7379h51v155h186v-155h51v378h-51v-180h-186v180h-51v-378z" fill="#fff"/>
    </g>
   </g>
   <g class="com.sun.star.drawing.ClosedBezierShape">
    <g>
     <rect class="BoundingBox" x="10995" y="7466" width="264" height="299" fill="none"/>
     <path d="m11258 7604v22h-214c2 32 12 56 29 73s41 25 72 25c18 0 35-2 52-6 17-5 33-11 50-20v44c-17 7-34 13-51 16-18 4-36 6-54 6-45 0-81-13-107-40-27-26-40-62-40-106 0-47 13-84 38-111s59-41 101-41c38 0 68 12 91 37 22 25 33 58 33 101zm-47-14c0-26-7-46-21-61s-33-23-55-23c-26 0-47 7-63 22-15 15-24 36-26 62h165z" fill="#fff"/>
    </g>
   </g>
   <g class="com.sun.star.drawing.ClosedBezierShape">
    <g>
     <rect class="BoundingBox" x="11321" y="7466" width="214" height="299" fill="none"/>
     <path d="m11467 7604c21 4 38 12 49 24 12 13 18 28 18 46 0 29-11 52-33 67s-53 23-93 23c-13 0-27-1-42-4-14-2-29-6-44-11v-43c12 6 25 11 40 14 14 3 29 5 45 5 25 0 45-5 60-14 14-10 21-22 21-37s-6-27-19-36-30-13-54-13h-37v-39h39c19 0 35-4 46-11 11-8 17-17 17-29 0-11-6-20-18-27-11-8-27-12-47-12-12 0-25 1-38 3-14 3-29 6-45 11v-42c17-4 32-8 46-10 15-2 28-3 41-3 33 0 59 7 78 20s29 32 29 55c0 16-5 29-15 40s-25 19-44 23z" fill="#fff"/>
    </g>
   </g>
   <g class="com.sun.star.drawing.ClosedBezierShape">
    <g>
     <rect class="BoundingBox" x="11594" y="7466" width="241" height="299" fill="none"/>
     <path d="m11741 7615c-38 0-64 4-78 13-15 8-22 23-22 44 0 16 5 29 16 39 11 9 26 14 45 14 25 0 46-9 62-27 15-18 23-43 23-73v-10h-46zm93-20v162h-47v-43c-11 17-24 30-40 38s-35 12-58 12c-29 0-52-8-69-24-17-17-26-38-26-66 0-32 11-56 32-72s53-24 96-24h65v-5c0-21-7-38-21-49-14-12-34-18-59-18-17 0-32 2-48 6-15 4-30 9-44 17v-43c17-7 34-12 50-15s31-5 47-5c41 0 71 11 92 32 20 22 30 54 30 97z" fill="#fff"/>
    </g>
   </g>
   <g class="com.sun.star.drawing.ClosedBezierShape">
    <g>
     <rect class="BoundingBox" x="11927" y="7473" width="230" height="285" fill="none"/>
     <path d="m11975 7626v94h66c21 0 37-4 48-12s17-20 17-35-6-27-17-35-27-12-48-12h-66zm0-116v79h61c18 0 32-4 43-11s17-16 17-29-6-22-17-29-25-10-43-10h-61zm-47-37h111c34 0 59 6 77 18s27 30 27 52c0 18-5 31-14 42-9 10-22 16-40 19 21 4 38 12 49 25 12 13 18 29 18 48 0 26-10 45-29 59-20 14-48 21-84 21h-115v-284z" fill="#fff"/>
    </g>
   </g>
   <g class="com.sun.star.drawing.ClosedBezierShape">
    <g>
     <rect class="BoundingBox" x="12233" y="7473" width="245" height="285" fill="none"/>
     <path d="m12476 7473v284h-46v-228c-46 76-92 152-137 228h-60v-284h46v227c46-75 92-151 137-227h60z" fill="#fff"/>
    </g>
   </g>
   <g class="com.sun.star.drawing.ClosedBezierShape">
    <g>
     <rect class="BoundingBox" x="12553" y="7466" width="226" height="299" fill="none"/>
     <path d="m12778 7484v44c-13-7-26-13-40-16-13-4-27-6-40-6-30 0-54 10-71 29s-25 46-25 80 8 61 25 80 41 29 71 29c13 0 27-2 40-5 14-4 27-10 40-17v43c-13 6-27 11-40 14-14 3-29 5-45 5-43 0-77-13-102-40s-38-63-38-109 13-83 38-109c26-27 61-40 105-40 14 0 28 2 42 5s27 7 40 13z" fill="#fff"/>
    </g>
   </g>
   <g class="com.sun.star.drawing.ClosedBezierShape">
    <g>
     <rect class="BoundingBox" x="12859" y="7473" width="245" height="285" fill="none"/>
     <path d="m13102 7473v284h-46v-228c-46 76-92 152-137 228h-60v-284h46v227c46-75 92-151 137-227h60z" fill="#fff"/>
    </g>
   </g>
   <g class="com.sun.star.drawing.ClosedBezierShape">
    <g>
     <rect class="BoundingBox" x="13198" y="7473" width="298" height="285" fill="none"/>
     <path d="m13198 7473h68c27 63 54 127 81 190 27-63 53-127 80-190h68v284h-47v-239c-26 61-52 123-78 185h-47c-26-62-52-124-78-185v239h-47v-284z" fill="#fff"/>
    </g>
   </g>
   <g class="com.sun.star.drawing.ClosedBezierShape">
    <g>
     <rect class="BoundingBox" x="13591" y="7473" width="319" height="285" fill="none"/>
     <path d="m13862 7473h47v284h-47v-284zm-92 200c0-15-6-27-17-35s-27-12-48-12h-66v94h66c21 0 37-4 48-12s17-20 17-35zm-178-200h47v116h68c36 0 64 7 84 21 19 13 29 34 29 63 0 28-10 49-29 63-20 14-48 21-84 21h-115v-284z" fill="#fff"/>
    </g>
   </g>
   <g class="com.sun.star.drawing.ClosedBezierShape">
    <g>
     <rect class="BoundingBox" x="14002" y="7362" width="245" height="396" fill="none"/>
     <path d="m14245 7473v284h-46v-228l-137 228h-60v-284h46v227l137-227h60zm-201-111h30c2 13 7 22 15 29 8 6 20 9 35 9 14 0 25-3 34-9 8-7 13-16 15-29h30c-2 24-9 42-23 55-13 12-32 18-56 18-25 0-44-6-57-18-14-13-21-31-23-55z" fill="#fff"/>
    </g>
   </g>
   <g class="com.sun.star.drawing.ClosedBezierShape">
    <g>
     <rect class="BoundingBox" x="14510" y="7378" width="289" height="380" fill="none"/>
     <path d="m14798 7379v378h-51v-335h-186v335h-51v-378h288z" fill="#fff"/>
    </g>
   </g>
   <g class="com.sun.star.drawing.ClosedBezierShape">
    <g>
     <rect class="BoundingBox" x="14879" y="7466" width="241" height="299" fill="none"/>
     <path d="m15026 7615c-38 0-64 4-78 13-15 8-22 23-22 44 0 16 5 29 16 39 11 9 26 14 45 14 25 0 46-9 62-27 15-18 23-43 23-73v-10h-46zm93-20v162h-47v-43c-11 17-24 30-40 38s-35 12-58 12c-29 0-52-8-69-24-17-17-26-38-26-66 0-32 11-56 32-72s53-24 96-24h65v-5c0-21-7-38-21-49-14-12-34-18-59-18-17 0-32 2-48 6-15 4-30 9-44 17v-43c17-7 34-12 50-15s31-5 47-5c41 0 71 11 92 32 20 22 30 54 30 97z" fill="#fff"/>
    </g>
   </g>
   <g class="com.sun.star.drawing.ClosedBezierShape">
    <g>
     <rect class="BoundingBox" x="15212" y="7466" width="256" height="400" fill="none"/>
     <path d="m15260 7714v151h-47v-392h47v43c10-17 22-29 37-38 15-8 33-12 54-12 34 0 62 14 84 41 21 27 32 63 32 108s-11 81-32 108c-22 27-50 41-84 41-21 0-39-4-54-12-15-9-27-21-37-38zm159-99c0-34-7-61-21-81-14-19-34-29-58-29-25 0-45 10-59 29-14 20-21 47-21 81s7 61 21 81c14 19 34 29 59 29 24 0 44-10 58-29 14-20 21-47 21-81z" fill="#fff"/>
    </g>
   </g>
   <g class="com.sun.star.drawing.ClosedBezierShape">
    <g>
     <rect class="BoundingBox" x="15511" y="7473" width="273" height="285" fill="none"/>
     <path d="m15511 7473h272v37h-113v247h-46v-247h-113v-37z" fill="#fff"/>
    </g>
   </g>
   <g class="com.sun.star.drawing.ClosedBezierShape">
    <g>
     <rect class="BoundingBox" x="15848" y="7473" width="247" height="285" fill="none"/>
     <path d="m15848 7473h47v116h151v-116h47v284h-47v-131h-151v131h-47v-284z" fill="#fff"/>
    </g>
   </g>
   <g class="com.sun.star.drawing.ClosedBezierShape">
    <g>
     <rect class="BoundingBox" x="16169" y="7466" width="264" height="299" fill="none"/>
     <path d="m16432 7604v22h-214c2 32 12 56 29 73s41 25 72 25c18 0 35-2 52-6 17-5 33-11 50-20v44c-17 7-34 13-51 16-18 4-36 6-54 6-45 0-81-13-107-40-27-26-40-62-40-106 0-47 13-84 38-111s59-41 101-41c38 0 68 12 91 37 22 25 33 58 33 101zm-47-14c0-26-7-46-21-61s-33-23-55-23c-26 0-47 7-63 22-15 15-24 36-26 62h165z" fill="#fff"/>
    </g>
   </g>
   <g class="com.sun.star.drawing.ClosedBezierShape">
    <g>
     <rect class="BoundingBox" x="16508" y="7466" width="255" height="400" fill="none"/>
     <path d="m16555 7714v151h-47v-392h47v43c10-17 22-29 37-38 15-8 33-12 54-12 34 0 62 14 84 41 21 27 32 63 32 108s-11 81-32 108c-22 27-50 41-84 41-21 0-39-4-54-12-15-9-27-21-37-38zm159-99c0-34-7-61-21-81-14-19-34-29-58-29-25 0-45 10-59 29-14 20-21 47-21 81s7 61 21 81c14 19 34 29 59 29 24 0 44-10 58-29 14-20 21-47 21-81z" fill="#fff"/>
    </g>
   </g>
   <g class="com.sun.star.drawing.ClosedBezierShape">
    <g>
     <rect class="BoundingBox" x="17007" y="7378" width="290" height="380" fill="none"/>
     <path d="m17008 7379h51v155h186v-155h51v378h-51v-180h-186v180h-51v-378z" fill="#fff"/>
    </g>
   </g>
   <g class="com.sun.star.drawing.ClosedBezierShape">
    <g>
     <rect class="BoundingBox" x="17375" y="7466" width="264" height="299" fill="none"/>
     <path d="m17638 7604v22h-214c2 32 12 56 29 73s41 25 72 25c18 0 35-2 52-6 17-5 33-11 50-20v44c-17 7-34 13-51 16-18 4-36 6-54 6-45 0-81-13-107-40-27-26-40-62-40-106 0-47 13-84 38-111s59-41 101-41c38 0 68 12 91 37 22 25 33 58 33 101zm-47-14c0-26-7-46-21-61s-33-23-55-23c-26 0-47 7-63 22-15 15-24 36-26 62h165z" fill="#fff"/>
    </g>
   </g>
   <g class="com.sun.star.drawing.ClosedBezierShape">
    <g>
     <rect class="BoundingBox" x="17715" y="7466" width="167" height="292" fill="none"/>
     <path d="m17881 7517c-5-3-11-5-17-7-6-1-13-2-20-2-27 0-47 9-61 26s-21 41-21 73v150h-47v-284h47v44c10-17 22-30 38-38 16-9 35-13 57-13 3 0 7 0 11 1 4 0 8 1 13 2v48z" fill="#fff"/>
    </g>
   </g>
   <g class="com.sun.star.drawing.ClosedBezierShape">
    <g>
     <rect class="BoundingBox" x="17930" y="7363" width="256" height="402" fill="none"/>
     <path d="m18137 7615c0-34-7-61-21-81-14-19-34-29-58-29-25 0-45 10-59 29-14 20-21 47-21 81s7 61 21 81c14 19 34 29 59 29 24 0 44-10 58-29 14-20 21-47 21-81zm-159-99c10-17 22-29 37-38 15-8 33-12 54-12 34 0 62 14 84 41 21 27 32 63 32 108s-11 81-32 108c-22 27-50 41-84 41-21 0-39-4-54-12-15-9-27-21-37-38v43h-47v-394h47v153z" fill="#fff"/>
    </g>
   </g>
   <g class="com.sun.star.drawing.ClosedBezierShape">
    <g>
     <rect class="BoundingBox" x="18245" y="7466" width="241" height="299" fill="none"/>
     <path d="m18392 7615c-38 0-64 4-78 13-15 8-22 23-22 44 0 16 5 29 16 39 11 9 26 14 45 14 25 0 46-9 62-27 15-18 23-43 23-73v-10h-46zm93-20v162h-47v-43c-11 17-24 30-40 38s-35 12-58 12c-29 0-52-8-69-24-17-17-26-38-26-66 0-32 11-56 32-72s53-24 96-24h65v-5c0-21-7-38-21-49-14-12-34-18-59-18-17 0-32 2-48 6-15 4-30 9-44 17v-43c17-7 34-12 50-15s31-5 47-5c41 0 71 11 92 32 20 22 30 54 30 97z" fill="#fff"/>
    </g>
   </g>
   <g class="com.sun.star.drawing.ClosedBezierShape">
    <g>
     <rect class="BoundingBox" x="18580" y="7362" width="48" height="396" fill="none"/>
     <path d="m18580 7363h47v394h-47v-394z" fill="#fff"/>
    </g>
   </g>
   <g class="com.sun.star.drawing.ClosedBezierShape">
    <g>
     <rect class="BoundingBox" x="18723" y="7362" width="49" height="396" fill="none"/>
     <path d="m18724 7473h47v284h-47v-284zm0-110h47v59h-47v-59z" fill="#fff"/>
    </g>
   </g>
   <g class="com.sun.star.drawing.ClosedBezierShape">
    <g>
     <rect class="BoundingBox" x="18830" y="7362" width="183" height="396" fill="none"/>
     <path d="m19012 7363v39h-44c-17 0-29 3-35 10-7 7-10 19-10 36v25h77v36h-77v248h-47v-248h-45v-36h45v-20c0-31 7-54 22-68 15-15 38-22 70-22h44z" fill="#fff"/>
    </g>
   </g>
   <g class="com.sun.star.drawing.ClosedBezierShape">
    <g>
     <rect class="BoundingBox" x="19030" y="7466" width="264" height="299" fill="none"/>
     <path d="m19293 7604v22h-214c2 32 12 56 29 73s41 25 72 25c18 0 35-2 52-6 17-5 33-11 50-20v44c-17 7-34 13-51 16-18 4-36 6-54 6-45 0-81-13-107-40-27-26-40-62-40-106 0-47 13-84 38-111s59-41 101-41c38 0 68 12 91 37 22 25 33 58 33 101zm-47-14c0-26-7-46-21-61s-33-23-55-23c-26 0-47 7-63 22-15 15-24 36-26 62h165z" fill="#fff"/>
    </g>
   </g>
  </g>
  <g class="Group">
   <g class="com.sun.star.drawing.ClosedBezierShape">
    <g>
     <rect class="BoundingBox" x="10592" y="3053" width="968" height="1012" fill="none"/>
     <path d="m10592 3053h312v353h341v-353h313v1010h-313v-409h-341v409h-312v-1010z" fill="#fff"/>
    </g>
   </g>
   <g class="com.sun.star.drawing.ClosedBezierShape">
    <g>
     <rect class="BoundingBox" x="11763" y="3053" width="852" height="1012" fill="none"/>
     <path d="m11763 3053h836v216h-523v160h485v206h-485v199h538v229h-851v-1010z" fill="#fff"/>
    </g>
   </g>
   <g class="com.sun.star.drawing.ClosedBezierShape">
    <g>
     <rect class="BoundingBox" x="12783" y="3053" width="995" height="1012" fill="none"/>
     <path d="m12783 4063v-1010h520c97 0 171 8 222 25 51 16 92 47 123 92s47 99 47 163c0 56-12 105-36 145-24 41-57 74-99 99-26 16-63 30-110 40 38 13 65 25 82 37 11 9 28 27 50 54 21 27 36 48 43 63l152 292h-353l-167-309c-21-40-40-66-57-78-22-15-48-23-76-23h-28v410h-313zm313-601h132c15 0 42-5 83-14 21-4 38-14 51-31s20-37 20-59c0-32-10-57-31-75-21-17-60-26-117-26h-138v205z" fill="#fff"/>
    </g>
   </g>
   <g class="com.sun.star.drawing.ClosedBezierShape">
    <g>
     <rect class="BoundingBox" x="13876" y="3053" width="936" height="1012" fill="none"/>
     <path d="m13876 3053h584c98 0 173 24 225 72 52 49 78 109 78 180 0 60-19 111-56 154-25 28-61 51-109 67 73 18 126 48 161 90 34 43 51 96 51 160 0 52-12 99-37 141-24 42-57 75-99 99-27 15-66 26-119 33-70 9-117 14-140 14h-539v-1010zm315 397h136c48 0 82-8 101-25s29-41 29-73c0-30-10-53-29-69-19-17-52-25-99-25h-138v192zm0 396h159c54 0 92-10 114-29s33-44 33-76c0-30-11-54-33-72s-60-27-114-27h-159v204z" fill="#fff"/>
    </g>
   </g>
   <g class="com.sun.star.drawing.ClosedBezierShape">
    <g>
     <rect class="BoundingBox" x="14844" y="3053" width="1101" height="1012" fill="none"/>
     <path d="m15567 3896h-354c-17 56-34 111-50 167h-319c127-337 253-673 380-1010h341c126 337 253 673 379 1010h-327c-17-56-33-111-50-167zm-65-218-111-363-111 363h222z" fill="#fff"/>
    </g>
   </g>
   <g class="com.sun.star.drawing.ClosedBezierShape">
    <g>
     <rect class="BoundingBox" x="16043" y="3053" width="800" height="1012" fill="none"/>
     <path d="m16043 3053h312v761h487v249h-799v-1010z" fill="#fff"/>
    </g>
   </g>
   <g class="com.sun.star.drawing.ClosedBezierShape">
    <g>
     <rect class="BoundingBox" x="16994" y="3053" width="315" height="1012" fill="none"/>
     <path d="m16995 3053h313v1010h-313v-1010z" fill="#fff"/>
    </g>
   </g>
   <g class="com.sun.star.drawing.ClosedBezierShape">
    <g>
     <rect class="BoundingBox" x="17534" y="3053" width="773" height="1012" fill="none"/>
     <path d="m17535 3053h771v217h-458v176h391v204h-391v413h-313v-1010z" fill="#fff"/>
    </g>
   </g>
   <g class="com.sun.star.drawing.ClosedBezierShape">
    <g>
     <rect class="BoundingBox" x="18472" y="3053" width="852" height="1012" fill="none"/>
     <path d="m18472 3053h836v216h-523v160h485v206h-485v199h538v229h-851v-1010z" fill="#fff"/>
    </g>
   </g>
  </g>
  <g class="Group">
   <g class="com.sun.star.drawing.ClosedBezierShape">
    <g>
     <rect class="BoundingBox" x="10609" y="4672" width="480" height="509" fill="none"/>
     <path d="m10955 4970 133 40c-9 38-23 69-42 94s-43 44-72 57c-28 13-65 19-109 19-53 0-97-8-130-23-34-16-64-43-88-82-25-39-37-89-37-150 0-81 22-144 65-188 43-43 104-65 183-65 62 0 111 13 146 38 36 25 62 63 79 115l-134 30c-5-15-10-26-15-33-8-11-18-20-31-27-12-6-26-9-41-9-34 0-60 14-78 41-14 21-21 53-21 97 0 54 8 92 25 112 16 20 39 30 69 30 29 0 51-8 66-25 15-16 25-40 32-71z" fill="#fff"/>
    </g>
   </g>
   <g class="com.sun.star.drawing.ClosedBezierShape">
    <g>
     <rect class="BoundingBox" x="11166" y="4680" width="454" height="494" fill="none"/>
     <path d="m11318 4869h81c75 0 130 13 166 40 36 26 54 67 54 122 0 46-17 81-50 105s-80 36-142 36h-261v-492h414v100h-262v89zm0 197h78c47 0 71-17 71-52 0-30-24-45-71-45h-78v97z" fill="#fff"/>
    </g>
   </g>
   <g class="com.sun.star.drawing.ClosedBezierShape">
    <g>
     <rect class="BoundingBox" x="11653" y="4680" width="537" height="494" fill="none"/>
     <path d="m12005 5091h-172c-8 27-16 54-25 81h-155c61-164 123-328 184-492h168c61 164 123 328 184 492h-159c-9-27-17-54-25-81zm-32-107c-18-59-36-118-53-177l-54 177h107z" fill="#fff"/>
    </g>
   </g>
   <g class="com.sun.star.drawing.ClosedBezierShape">
    <g>
     <rect class="BoundingBox" x="12191" y="4680" width="503" height="495" fill="none"/>
     <path d="m12693 5172h-152v-371h-119v151c0 62-3 108-10 137s-22 51-46 65c-25 13-64 20-118 20-16 0-36-2-57-5v-100h23c20 0 35-5 43-14 9-9 13-25 13-49v-326h423v492z" fill="#fff"/>
    </g>
   </g>
   <g class="com.sun.star.drawing.ClosedBezierShape">
    <g>
     <rect class="BoundingBox" x="12745" y="4680" width="537" height="494" fill="none"/>
     <path d="m13097 5091h-172c-8 27-16 54-25 81h-155c61-164 123-328 184-492h168c61 164 123 328 184 492h-159c-9-27-17-54-25-81zm-32-107c-18-59-36-118-53-177l-54 177h107z" fill="#fff"/>
    </g>
   </g>
   <g class="com.sun.star.drawing.ClosedBezierShape">
    <g>
     <rect class="BoundingBox" x="13332" y="4680" width="473" height="494" fill="none"/>
     <path d="m13333 4680h152v172h166v-172h153v492h-153v-199h-166v199h-152v-492z" fill="#fff"/>
    </g>
   </g>
   <g class="com.sun.star.drawing.ClosedBezierShape">
    <g>
     <rect class="BoundingBox" x="13890" y="4672" width="480" height="509" fill="none"/>
     <path d="m14236 4970 133 40c-9 38-23 69-42 94s-43 44-72 57c-28 13-65 19-109 19-53 0-97-8-130-23-34-16-64-43-88-82-25-39-37-89-37-150 0-81 22-144 65-188 43-43 104-65 183-65 62 0 111 13 146 38 36 25 62 63 79 115l-134 30c-5-15-10-26-15-33-8-11-18-20-31-27-12-6-26-9-41-9-34 0-60 14-78 41-14 21-21 53-21 97 0 54 8 92 25 112 16 20 39 30 69 30 29 0 51-8 66-25 15-16 25-40 32-71z" fill="#fff"/>
    </g>
   </g>
   <g class="com.sun.star.drawing.ClosedBezierShape">
    <g>
     <rect class="BoundingBox" x="14446" y="4680" width="472" height="494" fill="none"/>
     <path d="m14917 4680v492h-143v-270c-62 90-123 180-185 270h-143v-492h143v272c62-91 124-181 186-272h142z" fill="#fff"/>
    </g>
   </g>
   <g class="com.sun.star.drawing.ClosedBezierShape">
    <g>
     <rect class="BoundingBox" x="15021" y="4680" width="419" height="494" fill="none"/>
     <path d="m15021 4680h253c55 0 96 13 124 39 27 27 41 64 41 112 0 50-15 89-45 117s-75 42-137 42h-83v182h-153v-492zm153 210h37c30 0 50-5 62-15 12-11 18-24 18-39 0-16-5-29-15-40-11-11-30-16-59-16h-43v110z" fill="#fff"/>
    </g>
   </g>
   <g class="com.sun.star.drawing.ClosedBezierShape">
    <g>
     <rect class="BoundingBox" x="15502" y="4672" width="511" height="509" fill="none"/>
     <path d="m15502 4926c0-80 22-142 67-187s107-67 187-67c82 0 145 22 190 66 44 44 66 105 66 184 0 58-10 105-29 142-19 36-47 65-84 85-37 21-82 31-137 31s-101-9-138-26c-36-18-65-46-88-84s-34-86-34-144zm152 1c0 49 9 85 28 107 18 21 43 32 75 32 33 0 58-11 76-32s27-59 27-114c0-46-9-80-28-101s-44-32-76-32c-31 0-56 11-74 32-19 22-28 58-28 108z" fill="#fff"/>
    </g>
   </g>
   <g class="com.sun.star.drawing.ClosedBezierShape">
    <g>
     <rect class="BoundingBox" x="16097" y="4680" width="456" height="494" fill="none"/>
     <path d="m16097 4680h285c47 0 83 12 109 35 25 24 38 53 38 88 0 29-9 54-27 74-12 14-30 25-53 33 35 9 61 23 78 44s25 47 25 78c0 26-6 49-18 69s-28 36-48 48c-13 8-32 13-58 16-34 5-57 7-68 7h-263v-492zm154 193h66c23 0 40-4 49-12s14-20 14-35-5-26-14-34-25-12-48-12h-67v93zm0 193h77c26 0 44-5 55-14s16-21 16-37c0-14-5-26-16-35-10-9-29-13-55-13h-77v99z" fill="#fff"/>
    </g>
   </g>
   <g class="com.sun.star.drawing.ClosedBezierShape">
    <g>
     <rect class="BoundingBox" x="16585" y="4680" width="537" height="494" fill="none"/>
     <path d="m16937 5091h-172c-8 27-16 54-25 81h-155c61-164 123-328 184-492h168c61 164 123 328 184 492h-159c-9-27-17-54-25-81zm-32-107c-18-59-36-118-53-177l-54 177h107z" fill="#fff"/>
    </g>
   </g>
   <g class="com.sun.star.drawing.ClosedBezierShape">
    <g>
     <rect class="BoundingBox" x="17172" y="4680" width="473" height="494" fill="none"/>
     <path d="m17173 4680h152v172h166v-172h153v492h-153v-199h-166v199h-152v-492z" fill="#fff"/>
    </g>
   </g>
   <g class="com.sun.star.drawing.ClosedBezierShape">
    <g>
     <rect class="BoundingBox" x="17748" y="4680" width="472" height="494" fill="none"/>
     <path d="m17748 4680h152v172h166v-172h153v492h-153v-199h-166v199h-152v-492z" fill="#fff"/>
    </g>
   </g>
   <g class="com.sun.star.drawing.ClosedBezierShape">
    <g>
     <rect class="BoundingBox" x="18304" y="4672" width="511" height="509" fill="none"/>
     <path d="m18304 4926c0-80 22-142 67-187s107-67 187-67c82 0 145 22 190 66 44 44 66 105 66 184 0 58-10 105-29 142-19 36-47 65-84 85-37 21-82 31-137 31s-101-9-138-26c-36-18-65-46-88-84s-34-86-34-144zm152 1c0 49 9 85 28 107 18 21 43 32 75 32 33 0 58-11 76-32s27-59 27-114c0-46-9-80-28-101s-44-32-76-32c-31 0-56 11-74 32-19 22-28 58-28 108z" fill="#fff"/>
    </g>
   </g>
   <g class="com.sun.star.drawing.ClosedBezierShape">
    <g>
     <rect class="BoundingBox" x="18899" y="4680" width="416" height="494" fill="none"/>
     <path d="m18899 4680h408v105h-255v78h236v100h-236v97h262v112h-415v-492z" fill="#fff"/>
    </g>
   </g>
  </g>
  <g class="Group">
   <g class="com.sun.star.drawing.ClosedBezierShape">
    <g>
     <rect class="BoundingBox" x="10605" y="5723" width="1088" height="1138" fill="none"/>
     <path d="m11692 6860h-350v-858h-387v858h-350v-1137h1087v1137z" fill="#fff"/>
    </g>
   </g>
   <g class="com.sun.star.drawing.ClosedBezierShape">
    <g>
     <rect class="BoundingBox" x="11925" y="5723" width="1088" height="1138" fill="none"/>
     <path d="m13012 5723v1137h-330v-624c-142 208-284 416-426 624h-331v-1137h331v629c143-210 286-419 429-629h327z" fill="#fff"/>
    </g>
   </g>
   <g class="com.sun.star.drawing.ClosedBezierShape">
    <g>
     <rect class="BoundingBox" x="13166" y="5723" width="1068" height="1138" fill="none"/>
     <path d="m13166 5723h1067v281h-358v856h-351v-856h-358v-281z" fill="#fff"/>
    </g>
   </g>
   <g class="com.sun.star.drawing.ClosedBezierShape">
    <g>
     <rect class="BoundingBox" x="14277" y="5723" width="1239" height="1138" fill="none"/>
     <path d="m15090 6672h-397c-19 63-38 125-56 188h-359c142-379 285-758 427-1137h384c142 379 284 758 426 1137h-368c-19-63-38-125-57-188zm-73-246c-41-136-83-272-124-408-42 136-83 272-125 408h249z" fill="#fff"/>
    </g>
   </g>
   <g class="com.sun.star.drawing.ClosedBezierShape">
    <g>
     <rect class="BoundingBox" x="15630" y="5723" width="1089" height="1138" fill="none"/>
     <path d="m15630 5723h351v398h384v-398h353v1137h-353v-460h-384v460h-351v-1137z" fill="#fff"/>
    </g>
   </g>
   <g class="com.sun.star.drawing.ClosedBezierShape">
    <g>
     <rect class="BoundingBox" x="16950" y="5723" width="1088" height="1138" fill="none"/>
     <path d="m18037 5723v1137h-330v-624c-142 208-284 416-426 624h-331v-1137h331v629c143-210 286-419 429-629h327z" fill="#fff"/>
    </g>
   </g>
   <g class="com.sun.star.drawing.ClosedBezierShape">
    <g>
     <rect class="BoundingBox" x="18269" y="5723" width="960" height="1138" fill="none"/>
     <path d="m18270 5723h941v243h-589v181h546v232h-546v224h606v257h-958v-1137z" fill="#fff"/>
    </g>
   </g>
  </g>
 </g>
</svg>
