<svg xmlns="http://www.w3.org/2000/svg" width="46" height="48" viewBox="0 0 46 48">
  <defs>
    <clipPath id="ngkwa">
      <path fill="#fff"
            d="M-10 23C-10 6.984 2.984-6 19-6S48 6.984 48 23 35.016 52 19 52s-29-12.984-29-29z"/>
    </clipPath>
    <clipPath id="ngkwb">
      <path d="M-10 23C-10 6.984 2.984-6 19-6S48 6.984 48 23 35.016 52 19 52s-29-12.984-29-29z"/>
    </clipPath>
  </defs>
  <g>
    <g opacity="1">
      <g>
        <path fill="#fff"
              d="M-10 23C-10 6.984 2.984-6 19-6S48 6.984 48 23 35.016 52 19 52s-29-12.984-29-29z"/>
        <path fill="none" stroke="#f8f8f8" stroke-miterlimit="20" stroke-width="2"
              d="M-10 23C-10 6.984 2.984-6 19-6S48 6.984 48 23 35.016 52 19 52s-29-12.984-29-29z"
              clip-path="url(&quot;#ngkwa&quot;)"/>
      </g>
      <g clip-path="url(#ngkwb)">
        <g opacity="1">
          <g>
            <path fill="none" stroke="#b3b4b2" stroke-miterlimit="20"
                  d="M1.137 4.064c0-1.55 6.404-2.808 14.303-2.808 7.9 0 14.303 1.257 14.303 2.808 0 1.552-6.404 2.809-14.303 2.809-7.9 0-14.303-1.257-14.303-2.809z"/>
          </g>
          <g>
            <path fill="none" stroke="#b3b4b2" stroke-linecap="round" stroke-miterlimit="20"
                  d="M1.137 43.696c0 1.56 7.33 2.866 15.235 2.866 6.27.2 13.888-1.028 13.888-2.07v-1.66 0"/>
          </g>
          <g>
            <path fill="none" stroke="#b3b4b2" stroke-linecap="round"
                  stroke-linejoin="round" stroke-miterlimit="20"
                  d="M26.622 40.524c-2.6.624-6.657 1.04-11.182 1.04-7.905 0-14.303-1.248-14.303-2.809"/>
          </g>
          <g>
            <path fill="none" stroke="#b3b4b2" stroke-miterlimit="20"
                  d="M29.795 9.265c0 1.56-6.397 2.809-14.303 2.809-7.905 0-14.303-1.248-14.303-2.809"/>
          </g>
          <g>
            <path fill="none" stroke="#b3b4b2" stroke-miterlimit="20"
                  d="M1.137 4.064v39.632"/>
          </g>
          <g/>
          <g/>
          <g>
            <path fill="none" stroke="#b3b4b2" stroke-miterlimit="20"
                  d="M29.795 4.064v19.647"/>
          </g>
          <g>
            <path fill="none" stroke="#b3b4b2" stroke-miterlimit="20"
                  d="M17.52 25.129c0 2.964-.624 5.72-1.924 5.72-1.248 0-2.236-2.756-2.236-5.72 0-4.213 2.236-6.502 2.236-6.502v0s1.925 2.497 1.925 6.502z"/>
          </g>
          <g>
            <path fill="none" stroke="#b3b4b2" stroke-miterlimit="20"
                  d="M11.54 26.48c.936 1.821 1.248 3.954.467 4.318-.936.468-2.912-.989-3.848-2.86-.936-1.925-.468-4.37-.468-4.37v0s2.704.624 3.848 2.913z"/>
          </g>
          <g>
            <path fill="none" stroke="#b3b4b2" stroke-miterlimit="20"
                  d="M19.34 26.48c-.935 1.821-1.247 3.954-.467 4.318.936.468 2.912-.989 3.849-2.86.936-1.925.468-4.37.468-4.37v0s-2.653.624-3.85 2.913z"/>
          </g>
        </g>
        <g opacity="1">
          <g>
            <path fill="none" stroke="#78be20" stroke-miterlimit="20"
                  d="M34.892 22.58v0c.832-.52 1.924-.312 2.444.52v0c.364.572 1.093.884 1.82.78v0c.989-.156 1.925.468 2.03 1.405v0a1.724 1.724 0 0 0 1.3 1.404v0c.988.208 1.56 1.144 1.248 2.08v0c-.208.676.052 1.353.624 1.769v0c.78.572.936 1.664.26 2.392v0c-.468.52-.572 1.248-.208 1.872v0c.468.833.104 1.873-.78 2.289v0c-.676.312-1.04.936-.989 1.612v0c.104.936-.676 1.769-1.664 1.769v0c-.728 0-1.352.468-1.612 1.092v0c-.312.884-1.404 1.352-2.289.988v0c-.676-.26-1.456-.104-1.924.364v0a1.79 1.79 0 0 1-2.496 0v0c-.469-.52-1.249-.676-1.925-.364v0c-.936.364-1.976-.104-2.288-.988v0c-.26-.624-.884-1.092-1.613-1.092v0c-.988 0-1.768-.833-1.664-1.769v0c.052-.676-.312-1.352-.988-1.612v0c-.884-.416-1.248-1.456-.78-2.289v0c.364-.624.26-1.352-.208-1.872v0c-.676-.728-.52-1.82.26-2.392v0c.572-.416.832-1.145.624-1.769v0c-.312-.884.312-1.872 1.248-2.08v0c.728-.156 1.248-.728 1.3-1.404v0c.104-.937 1.04-1.56 2.029-1.405v0c.728.104 1.404-.156 1.82-.78v0c.52-.832 1.664-1.04 2.445-.52v0c.624.364 1.404.364 1.976 0z"/>
          </g>
          <g>
            <path fill="none" stroke="#78be20" stroke-miterlimit="20"
                  d="M26.31 32.826c0-3.964 3.4-7.177 7.594-7.177 4.194 0 7.593 3.213 7.593 7.177 0 3.964-3.4 7.177-7.593 7.177-4.194 0-7.594-3.213-7.594-7.177z"/>
          </g>
          <g>
            <path fill="none" stroke="#78be20" stroke-linecap="round"
                  stroke-linejoin="round" stroke-miterlimit="20"
                  d="M33.54 33.762v0l2.912-4.317v0l1.56 1.093v0l-4.16 6.189v0"/>
          </g>
          <g>
            <path fill="none" stroke="#78be20" stroke-linecap="round"
                  stroke-linejoin="round" stroke-miterlimit="20"
                  d="M33.852 36.727v0l-3.485-2.757v0l1.3-1.456v0l1.873 1.248v0"/>
          </g>
        </g>
      </g>
    </g>
  </g>
</svg>