<?xml version="1.0" encoding="UTF-8" standalone="no"?>
<svg
   xmlns:dc="http://purl.org/dc/elements/1.1/"
   xmlns:cc="http://creativecommons.org/ns#"
   xmlns:rdf="http://www.w3.org/1999/02/22-rdf-syntax-ns#"
   xmlns:svg="http://www.w3.org/2000/svg"
   xmlns="http://www.w3.org/2000/svg"
   xmlns:sodipodi="http://sodipodi.sourceforge.net/DTD/sodipodi-0.dtd"
   xmlns:inkscape="http://www.inkscape.org/namespaces/inkscape"
   width="230.45209mm"
   height="125.91158mm"
   viewBox="0 0 230.45209 125.91158"
   version="1.1"
   id="svg8"
   inkscape:version="1.0.1 (3bc2e813f5, 2020-09-07)"
   sodipodi:docname="illustration.svg">
  <defs
     id="defs2">
    <pattern
       id="EMFhbasepattern"
       patternUnits="userSpaceOnUse"
       width="6"
       height="6"
       x="0"
       y="0" />
  </defs>
  <sodipodi:namedview
     id="base"
     pagecolor="#ffffff"
     bordercolor="#666666"
     borderopacity="1.0"
     inkscape:pageopacity="0.0"
     inkscape:pageshadow="2"
     inkscape:zoom="0.7"
     inkscape:cx="58.905888"
     inkscape:cy="450.84481"
     inkscape:document-units="mm"
     inkscape:current-layer="layer1"
     inkscape:document-rotation="0"
     showgrid="false"
     inkscape:window-width="1609"
     inkscape:window-height="1040"
     inkscape:window-x="24"
     inkscape:window-y="0"
     inkscape:window-maximized="0"
     fit-margin-top="0"
     fit-margin-left="0"
     fit-margin-right="0"
     fit-margin-bottom="0" />
  <metadata
     id="metadata5">
    <rdf:RDF>
      <cc:Work
         rdf:about="">
        <dc:format>image/svg+xml</dc:format>
        <dc:type
           rdf:resource="http://purl.org/dc/dcmitype/StillImage" />
        <dc:title></dc:title>
      </cc:Work>
    </rdf:RDF>
  </metadata>
  <g
     inkscape:label="Слой 1"
     inkscape:groupmode="layer"
     id="layer1"
     transform="translate(11.660562,-15.039245)">
    <path
       style="fill:#80bb27;fill-opacity:1;fill-rule:evenodd;stroke:none;stroke-width:0.791752"
       d="m 166.10498,77.924543 c 0,11.029929 -2.9119,21.85396 -8.41215,31.413207 -5.52966,9.55929 -13.47123,17.50083 -23.0305,23.03049 -9.55927,5.50026 -20.3833,8.41217 -31.41323,8.41217 -11.059319,0 -21.883376,-2.91191 -31.442643,-8.41217 -9.559268,-5.52966 -17.500815,-13.4712 -23.030478,-23.03049 -5.500275,-9.559247 -8.41217,-20.383278 -8.41217,-31.413207 0,-11.059341 2.911895,-21.883377 8.41217,-31.442647 5.529663,-9.559273 13.47121,-17.500822 23.030478,-23.030492 9.559267,-5.500257 20.383324,-8.412159 31.413233,-8.412159 11.05934,0 21.88337,2.911902 31.44264,8.412159 9.55927,5.52967 17.50084,13.471219 23.0305,23.030492 5.50025,9.55927 8.41215,20.383306 8.41215,31.413235 z m -3.76487,0 c 0,10.353428 -2.73543,20.559779 -7.91213,29.530767 -5.20615,9.00043 -12.64766,16.44195 -21.64809,21.64808 -8.971,5.17671 -19.17735,7.91213 -29.53079,7.91213 -10.382816,0 -20.5892,-2.73542 -29.560211,-7.91213 -9.000397,-5.20613 -16.441937,-12.64765 -21.648055,-21.64808 -5.176732,-8.970988 -7.912131,-19.177339 -7.912131,-29.530767 0,-10.382837 2.735399,-20.589198 7.912131,-29.560206 5.206118,-9.000422 12.647658,-16.441949 21.648055,-21.648073 8.971011,-5.176714 19.177395,-7.912138 29.530801,-7.912138 10.38285,0 20.5892,2.735424 29.5602,7.912138 9.00043,5.206124 16.44194,12.647651 21.64809,21.648073 5.1767,8.971008 7.91213,19.177369 7.91213,29.530794 z"
       id="path192" />
    <path
       d="M 30.298329,139.97713 A 37.512852,37.512852 0 0 1 2.2385313,103.09582 c 0.03225,-2.09338 0.2523543,-4.230703 1.1323531,-6.130425 0.8799989,-1.899721 2.5145841,-3.542805 4.5592629,-3.992938 2.2314667,-0.491252 4.5861527,0.512961 6.2491227,2.07989 1.662969,1.566929 2.753349,3.634317 3.756554,5.687203 6.042506,12.36504 10.633466,25.63278 12.352311,39.28751 z"
       fill="#f2f2f2"
       id="path10"
       style="stroke-width:0.264583" />
    <path
       d="m 6.9177986,93.385012 4.2349364,9.622118 4.234934,9.62212 c 1.341213,3.04735 2.679867,6.09603 4.066154,9.12323 1.374113,3.00062 2.795323,5.98049 4.311451,8.91223 1.513994,2.92757 3.123081,5.80737 4.869672,8.60298 q 0.326256,0.52221 0.658924,1.04036 c 0.15348,0.23925 0.537141,0.0173 0.382572,-0.22362 -1.780096,-2.77486 -3.420327,-5.63706 -4.958715,-8.55236 -1.540047,-2.91845 -2.979447,-5.88896 -4.365678,-8.88319 -1.393637,-3.01023 -2.733675,-6.04485 -4.070152,-9.08076 q -2.11016,-4.79343 -4.219575,-9.58718 L 7.8273858,94.358821 7.3003729,93.161402 c -0.114607,-0.260398 -0.4964774,-0.03517 -0.3825743,0.223623 z"
       fill="#ffffff"
       id="path12"
       style="stroke-width:0.264583" />
    <path
       d="M 28.531719,140.04401 A 21.951619,21.951619 0 0 1 4.0069745,128.47095 c -0.5483939,-1.09556 -1.0111131,-2.26464 -1.0670857,-3.48851 -0.055973,-1.22387 0.3491044,-2.5182 1.2891478,-3.30389 1.0259193,-0.85746 2.5195318,-0.97177 3.8059334,-0.60718 1.2864015,0.36458 2.410619,1.14357 3.485668,1.93857 6.475267,4.78847 12.440605,10.43746 17.01927,17.06274 z"
       fill="#f2f2f2"
       id="path14"
       style="stroke-width:0.264583" />
    <path
       d="m 3.8148156,122.16604 4.796319,3.85237 4.7963194,3.85236 c 1.519004,1.22006 3.03704,2.4415 4.57401,3.63892 1.523471,1.18692 3.065783,2.35034 4.644398,3.46313 1.576374,1.11123 3.189224,2.17197 4.850733,3.1519 q 0.310357,0.18304 0.622962,0.36225 c 0.144272,0.0828 0.283551,-0.13601 0.138255,-0.21938 -1.673302,-0.9601 -3.297571,-2.0033 -4.883298,-3.10157 -1.587439,-1.09946 -3.136675,-2.25311 -4.664715,-3.43343 -1.536203,-1.18663 -3.051162,-2.40039 -4.564621,-3.6158 q -2.389608,-1.919 -4.778904,-3.83837 l -4.7963269,-3.85235 -0.5968762,-0.47941 c -0.1297992,-0.10425 -0.2672582,0.11577 -0.1382553,0.21938 z"
       fill="#ffffff"
       id="path16"
       style="stroke-width:0.264583" />
    <path
       d="m 178.91388,139.73616 a 52.313186,52.313186 0 0 0 39.13051,-51.432455 c -0.045,-2.91932 -0.35192,-5.899886 -1.57911,-8.549119 -1.22719,-2.649233 -3.50668,-4.940586 -6.35807,-5.568312 -3.11188,-0.685073 -6.39558,0.71534 -8.71466,2.9005 -2.31908,2.185159 -3.83965,5.068199 -5.23866,7.931036 -8.42651,17.24355 -14.82879,35.74593 -17.22579,54.788 z"
       fill="#f2f2f2"
       id="path18"
       style="stroke-width:0.264583" />
    <path
       d="m 211.51897,74.761592 -5.90579,13.418428 -5.90579,13.41843 c -1.87038,4.24965 -3.73718,8.50116 -5.67042,12.72271 -1.91625,4.18449 -3.89817,8.34003 -6.01249,12.42845 -2.11132,4.08262 -4.35526,8.09861 -6.79095,11.99721 q -0.45497,0.72823 -0.9189,1.45082 c -0.21403,0.33364 -0.74906,0.0241 -0.53351,-0.31185 2.48242,-3.86965 4.76979,-7.86111 6.91513,-11.92661 2.14766,-4.0699 4.15496,-8.21239 6.08811,-12.38796 1.94348,-4.19788 3.81223,-8.42979 5.67599,-12.66349 q 2.9427,-6.68462 5.88437,-13.369705 l 5.90579,-13.418433 0.73493,-1.669849 c 0.15983,-0.363135 0.69236,-0.04905 0.53353,0.311851 z"
       fill="#ffffff"
       id="path20"
       style="stroke-width:0.264583" />
    <path
       d="m 181.37749,139.82943 a 30.612413,30.612413 0 0 0 34.20075,-16.13908 c 0.76475,-1.52781 1.41001,-3.15813 1.48809,-4.86486 0.0781,-1.70674 -0.48683,-3.51175 -1.79779,-4.60742 -1.43068,-1.19576 -3.51359,-1.35517 -5.30751,-0.84674 -1.79394,0.50844 -3.36171,1.59476 -4.8609,2.70342 -9.03002,6.67771 -17.34892,14.55546 -23.73405,23.79468 z"
       fill="#f2f2f2"
       id="path22"
       style="stroke-width:0.264583" />
    <path
       d="m 215.84621,114.89789 -6.68868,5.37228 -6.68867,5.37228 c -2.11831,1.70141 -4.23527,3.40476 -6.37863,5.07462 -2.12455,1.65519 -4.27536,3.27764 -6.4768,4.82949 -2.19832,1.54966 -4.4475,3.0289 -6.76455,4.39544 q -0.43281,0.25526 -0.86874,0.50517 c -0.20119,0.11544 -0.39542,-0.18968 -0.1928,-0.30593 2.33348,-1.3389 4.59859,-2.79369 6.80995,-4.32527 2.21375,-1.53323 4.37422,-3.14205 6.50513,-4.78806 2.1423,-1.6548 4.25497,-3.34744 6.36555,-5.04236 q 3.3324,-2.67612 6.66438,-5.35277 l 6.68867,-5.37228 0.83236,-0.66854 c 0.18102,-0.14539 0.37272,0.16144 0.19283,0.30593 z"
       fill="#ffffff"
       id="path24"
       style="stroke-width:0.264583" />
    <path
       d="m 45.471731,53.603921 v 0.0026 l -2.206583,1.844146 -15.173881,3.370791 a 3.8357602,3.8357602 0 1 0 2.876053,7.112 l 9.665171,-1.627187 a 11.858908,11.858908 0 0 0 1.582208,-0.375709 c 0.203729,-0.06085 0.404887,-0.129645 0.603324,-0.201083 a 61.732524,61.732524 0 0 1 3.603525,-10.916708 z"
       fill="#2f2e41"
       id="path26"
       style="stroke-width:0.264583" />
    <path
       d="m 171.50331,62.917254 -2.10336,-0.01323 -1.12448,-0.0053 -6.44263,-11.263312 a 3.1565982,3.1565982 0 0 0 0.14018,-0.362479 c 0.71713,-2.211917 -1.17474,-3.733271 -2.97657,-3.701521 a 2.6030343,2.6030343 0 0 0 -0.60849,0.07144 61.969697,61.969697 0 0 1 7.02993,20.679833 3.5940603,3.5940603 0 0 0 0.55837,0.111125 11.923543,11.923543 0 0 0 2.94736,-0.100542 c 1.31234,-0.166688 2.55334,-0.402167 3.2148,-0.351896 z"
       fill="#a0616a"
       id="path28"
       style="stroke-width:0.264583" />
    <path
       d="m 178.43803,63.131567 -7.73105,-1.074209 a 1.1919294,1.1919294 0 0 0 -1.30703,0.846667 1.2130802,1.2130802 0 0 0 -0.0371,0.16932 l -0.61908,4.452938 a 1.1978137,1.1978137 0 0 0 1.01338,1.344083 l 7.73105,1.074208 a 3.439455,3.439455 0 1 0 0.94981,-6.813021 z"
       fill="#80bb27"
       id="path30"
       style="stroke-width:0.264583" />
    <path
       d="m 95.147251,79.832066 c 0,-1.461254 4.738319,-2.645833 10.583329,-2.645833 5.84502,0 10.58334,1.184579 10.58334,2.645833 0,1.461255 -4.73832,6.879167 -10.58334,6.879167 -5.84501,0 -10.583329,-5.417912 -10.583329,-6.879167 z"
       fill="#3f3d56"
       id="path42"
       style="stroke-width:0.264583" />
    <polygon
       points="197.857,416.075 197.859,463.363 210.119,463.362 215.951,416.074 "
       fill="#ffb8b8"
       id="polygon48"
       transform="matrix(0.26458333,0,0,0.26458333,-11.66056,14.744567)" />
    <path
       d="m 50.189223,140.88341 -10.194589,4.7e-4 -1.8e-4,-3.93882 6.255779,-2.8e-4 a 3.938815,3.938815 0 0 1 3.93899,3.93863 z"
       fill="#2f2e41"
       id="path50"
       style="stroke-width:0.264583" />
    <polygon
       points="136.857,416.075 136.859,463.363 149.119,463.362 154.951,416.074 "
       fill="#ffb8b8"
       id="polygon52"
       transform="matrix(0.26458333,0,0,0.26458333,-11.66056,14.744567)" />
    <path
       d="m 34.049636,140.88342 -10.194589,4.6e-4 -1.8e-4,-3.93881 6.255779,-2.9e-4 a 3.938815,3.938815 0 0 1 3.93899,3.93863 v 0 z"
       fill="#2f2e41"
       id="path54"
       style="stroke-width:0.264583" />
    <path
       d="m 41.576236,86.349042 2.851377,22.591678 q 0.587994,4.65874 0.822783,9.35192 l 0.76821,15.36397 a 1.0583333,1.0583333 0 0 1 -1.057011,1.11118 h -4.327628 a 1.0583333,1.0583333 0 0 1 -1.046348,-0.89951 l -3.892044,-25.6417 a 0.52916666,0.52916666 0 0 0 -1.043353,-0.0177 l -4.688832,25.11338 a 1.0583333,1.0583333 0 0 1 -0.959442,0.8425 l -3.983038,0.25272 a 1.0583333,1.0583333 0 0 1 -1.135062,-1.08857 l 1.286219,-41.159024 z"
       fill="#2f2e41"
       id="path56"
       style="stroke-width:0.264583" />
    <circle
       cx="28.942904"
       cy="47.671959"
       r="6.4984388"
       fill="#ffb8b8"
       id="circle58"
       style="stroke-width:0.264583" />
    <path
       d="m 23.849153,92.699042 c 1.5875,3.704167 8.466666,6.35 10.054166,1.058334 1.227704,-4.090459 6.090708,-5.81025 8.236447,-6.379105 A 1.0625878,1.0625878 0 0 0 42.89657,86.092383 L 36.898357,62.531238 a 8.2740499,8.2740499 0 0 0 -5.57214,-5.863167 c -4.767668,-1.476375 -9.794751,1.563688 -10.601809,6.487583 a 36.289345,36.289345 0 0 0 -0.420646,4.169834 c -0.497514,10.395495 2.500236,22.934085 3.545391,25.373554 z"
       fill="#80bb27"
       id="path60"
       style="stroke-width:0.264583" />
    <path
       d="M 59.943891,71.473085 A 2.660597,2.660597 0 0 0 56.01105,72.55784 l -9.413099,-0.887487 2.307897,4.33745 8.585012,0.1778 a 2.6750089,2.6750089 0 0 0 2.453031,-4.712518 z"
       fill="#ffb8b8"
       id="path62"
       style="stroke-width:0.264583" />
    <path
       d="m 55.262835,76.296871 a 1.191932,1.191932 0 0 1 -0.886796,0.395023 L 42.088771,76.411075 a 12.26965,12.26965 0 0 1 -8.0821,-3.0462 L 26.6392,66.903467 a 3.8355375,3.8355375 0 1 1 3.692525,-6.723875 l 12.202014,9.628518 11.880699,2.289564 a 1.1945091,1.1945091 0 0 1 0.902385,1.02829 l 0.243946,2.246691 a 1.1921146,1.1921146 0 0 1 -0.137623,0.697103 1.1787717,1.1787717 0 0 1 -0.160311,0.227113 z"
       fill="#2f2e41"
       id="path64"
       style="stroke-width:0.264583" />
    <path
       d="m 24.010424,52.98723 a 1.0602039,1.0602039 0 0 0 1.561775,-0.626605 l 0.0036,-0.01479 c 0.117941,-0.493212 0.02,-1.008242 -0.01384,-1.514231 -0.03385,-0.50599 0.01569,-1.061842 0.360296,-1.433875 0.642408,-0.69351 1.785292,-0.325874 2.714212,-0.501224 a 2.2924293,2.2924293 0 0 0 1.783308,-2.448169 c -0.01323,-0.105172 -0.03397,-0.210463 -0.05724,-0.315687 a 1.7655355,1.7655355 0 0 1 1.832705,-2.138178 c 0.938768,0.05368 1.952096,0.338111 2.728798,-0.357216 a 2.0128785,2.0128785 0 0 0 0.48327,-2.169935 C 34.963835,40.187183 33.71038,39.51701 32.469973,39.148596 a 10.747457,10.747457 0 0 0 -9.109699,1.494777 c -0.783481,0.552249 -1.515168,1.246142 -1.849101,2.144646 -0.333934,0.898504 -0.172832,2.032079 0.58017,2.625212 a 4.8503416,4.8503416 0 0 0 -1.123468,4.711287 c 0.371922,1.19843 2.146945,2.347388 3.042552,2.862712 z"
       fill="#2f2e41"
       id="path66"
       style="stroke-width:0.264583" />
    <polygon
       points="664.135,415.887 664.132,463.174 651.873,463.174 646.04,415.886 "
       fill="#a0616a"
       id="polygon68"
       transform="matrix(0.26458333,0,0,0.26458333,-11.66056,14.744567)" />
    <path
       d="m 158.49708,136.89493 h 6.25578 v 3.93882 h -10.19459 v 0 a 3.9388123,3.9388123 0 0 1 3.93881,-3.93882 z"
       fill="#2f2e41"
       id="path70"
       style="stroke-width:0.264583" />
    <polygon
       points="751.135,415.887 751.132,463.174 738.873,463.174 733.04,415.886 "
       fill="#a0616a"
       id="polygon72"
       transform="matrix(0.26458333,0,0,0.26458333,-11.66056,14.744567)" />
    <path
       d="m 181.51584,136.89493 h 6.25577 v 3.93882 h -10.19459 v 0 a 3.938815,3.938815 0 0 1 3.93882,-3.93882 z"
       fill="#2f2e41"
       id="path74"
       style="stroke-width:0.264583" />
    <path
       d="m 164.11248,129.54369 c -0.0351,0 -0.0705,-0.002 -0.106,-0.004 l -4.591,-0.36742 A 1.3228426,1.3228426 0 0 1 158.2149,127.642 l 6.96069,-43.052929 0.46625,-6.0725 a 1.3154263,1.3154263 0 0 1 1.03618,-1.190889 l 7.00125,-1.531422 a 1.3143415,1.3143415 0 0 1 1.37459,0.545187 l 1.70713,2.495196 a 29.209833,29.209833 0 0 0 2.18146,2.780451 c 1.21123,1.379503 3.27066,4.442354 3.45541,9.454977 a 33.498268,33.498268 0 0 0 0.51166,4.909003 l 5.63654,30.363776 a 1.3224801,1.3224801 0 0 1 -1.17454,1.52523 l -4.35199,0.3297 a 1.3174054,1.3174054 0 0 1 -1.40282,-0.97359 l -7.71969,-28.707548 a 0.26454364,0.26454364 0 0 0 -0.51115,7.94e-4 l -7.9955,30.043644 a 1.3243613,1.3243613 0 0 1 -1.27789,0.98263 z"
       fill="#2f2e41"
       id="path76"
       style="stroke-width:0.264583" />
    <circle
       cx="176.3212"
       cy="49.784573"
       r="6.4984388"
       fill="#a0616a"
       id="circle78"
       style="stroke-width:0.264583" />
    <path
       d="m 165.30672,79.493516 -0.13449,-9.280054 c -0.49493,-5.935297 2.1336,-9.051644 4.42589,-10.619247 a 5.2701507,5.2701507 0 0 1 4.07547,-0.780058 l 5.11428,1.105617 a 5.3902212,5.3902212 0 0 1 3.45412,2.459799 5.032584,5.032584 0 0 1 0.57477,3.970817 5.4496228,5.4496228 0 0 1 -2.22241,3.043224 c -4.39443,3.102136 -4.70402,8.31293 -4.70669,8.365381 l -0.005,0.107746 z"
       fill="#80bb27"
       id="path80"
       style="stroke-width:0.264583" />
    <path
       d="m 151.11271,74.06742 a 2.919894,2.919894 0 0 1 -4.36471,0.126267 c -2.56285,-2.687849 1.62664,-6.723795 4.19922,-4.030162 v 0 a 2.8251467,2.8251467 0 0 1 0.25199,0.296365 l 12.97201,-0.322461 1.54834,-2.83187 4.75849,1.847691 c -0.91351,1.41672 -1.96252,6.976997 -4.35186,6.706309 -0.31327,0.0084 -14.69312,-1.769287 -15.01348,-1.792139 z"
       fill="#a0616a"
       id="path82"
       style="stroke-width:0.264583" />
    <path
       d="m 168.466,71.924729 -3.6262,-2.661198 a 1.1919664,1.1919664 0 0 1 -0.25544,-1.664308 l 4.61796,-6.292519 a 3.4395833,3.4395833 0 1 1 5.54594,4.070061 l -4.61795,6.292517 a 1.1919691,1.1919691 0 0 1 -1.66431,0.255447 z"
       fill="#80bb27"
       id="path84"
       style="stroke-width:0.264583" />
    <path
       d="m 174.74151,48.160444 a 10.608326,10.608326 0 0 1 -2.83546,0.488276 c -0.96218,-0.0109 -1.96211,-0.316651 -2.6119,-1.026351 -0.92295,-1.008031 -0.91082,-2.650254 -0.19652,-3.815471 0.7143,-1.165217 1.99647,-1.891089 3.32217,-2.223458 1.32571,-0.33237 2.71048,-0.316706 4.07709,-0.298281 1.62283,-1.183187 3.98912,-1.003186 5.65436,0.119513 1.66524,1.122698 2.68283,3.025806 3.11482,4.987157 0.43199,1.961351 0.33773,3.997664 0.17393,5.999332 -0.0898,1.096899 0.002,2.521016 1.05007,2.857307 0.66131,0.212222 1.37597,-0.177133 1.84992,-0.684819 0.47395,-0.507685 0.80497,-1.138462 1.30032,-1.625287 1.05562,-1.037458 2.74962,-1.247775 4.14425,-0.752139 1.39462,0.495636 2.50709,1.599432 3.29146,2.854589 A 9.9318629,9.9318629 0 0 1 185.79735,69.8165 c -3.57823,-1.074391 -6.27975,-4.094326 -8.01815,-7.401298 a 24.443671,24.443671 0 0 1 -2.65079,-13.870114 z"
       fill="#2f2e41"
       id="path86"
       style="stroke-width:0.264583" />
    <path
       d="M 218.52694,140.95082 H -11.395977 a 0.264585,0.264585 0 0 1 0,-0.52917 H 218.52694 a 0.264585,0.264585 0 0 1 0,0.52917 z"
       fill="#3f3d56"
       id="path88"
       style="stroke-width:0.264583" />
    <path
       style="fill:#80bb27;fill-opacity:1;fill-rule:evenodd;stroke:none;stroke-width:0.791752"
       d="m 103.74886,131.92705 c -34.766338,-57.826213 -0.44119,-109.358039 0.4412,-109.358039 0,0 33.50158,54.884921 -0.4412,109.358039 z"
       id="path186" />
    <path
       style="fill:#80bb27;fill-opacity:1;fill-rule:evenodd;stroke:none;stroke-width:0.791752"
       d="M 97.454443,132.36824 C 49.27573,123.98551 49.687522,77.895131 49.687522,77.895131 c 0,0 36.031094,8.794531 47.766921,53.620129 z"
       id="path188" />
    <path
       style="fill:#80bb27;fill-opacity:1;fill-rule:evenodd;stroke:none;stroke-width:0.791752"
       d="m 110.04326,131.92705 c 10.4711,-42.737272 46.9434,-54.473118 47.35516,-54.031919 0,0 0.61768,18.853821 -12.14761,34.766309 -18.44204,20.1186 -35.06046,19.26561 -35.20755,19.26561 z"
       id="path190" />
  </g>
</svg>
