<?xml version="1.0" encoding="UTF-8"?>
<!DOCTYPE svg  PUBLIC '-//W3C//DTD SVG 1.1//EN'  'http://www.w3.org/Graphics/SVG/1.1/DTD/svg11.dtd'>
<svg width="61.76mm" height="61.76mm" fill-rule="evenodd" stroke-linejoin="round" stroke-width="28.222" preserveAspectRatio="xMidYMid" version="1.2" viewBox="8626 3601 6176 6176" xml:space="preserve" xmlns="http://www.w3.org/2000/svg">
 <defs class="EmbeddedBulletChars">
  
  
  
  
  
  
  
  
  
  
 </defs>
 <g class="Page">
  <g class="Group">
   <g class="com.sun.star.drawing.CustomShape">
    
     <rect class="BoundingBox" x="8679" y="3654" width="6070" height="6070" fill="none"/>
     <path d="m14747 6689c0 532-140 1055-406 1516-267 461-650 844-1111 1111-461 266-984 406-1516 406-533 0-1056-140-1517-406-461-267-844-650-1111-1111-266-461-406-984-406-1516 0-533 140-1056 406-1517 267-461 650-844 1111-1111 461-266 984-406 1516-406 533 0 1056 140 1517 406 461 267 844 650 1111 1111 266 461 406 984 406 1516v1z" fill="#fff"/>
     <path d="m14747 6689c0 532-140 1055-406 1516-267 461-650 844-1111 1111-461 266-984 406-1516 406-533 0-1056-140-1517-406-461-267-844-650-1111-1111-266-461-406-984-406-1516 0-533 140-1056 406-1517 267-461 650-844 1111-1111 461-266 984-406 1516-406 533 0 1056 140 1517 406 461 267 844 650 1111 1111 266 461 406 984 406 1516v1z" fill="none" stroke="#3465a4"/>
    
   </g>
   <g class="com.sun.star.drawing.ClosedBezierShape">
    <g>
     <rect class="BoundingBox" x="10949" y="3971" width="1512" height="5373" fill="none"/>
     <path d="m11713 9343c-1708-2840-21-5372 20-5372 0 0 1647 2696-20 5372z" fill="#80bb27"/>
    </g>
   </g>
   <g class="com.sun.star.drawing.ClosedBezierShape">
    <g>
     <rect class="BoundingBox" x="9058" y="6688" width="2348" height="2677" fill="none"/>
     <path d="m11404 9363c-2366-411-2346-2675-2346-2675s1770 432 2346 2634v41z" fill="#80bb27"/>
    </g>
   </g>
   <g class="com.sun.star.drawing.ClosedBezierShape">
    <g>
     <rect class="BoundingBox" x="12021" y="6687" width="2328" height="2658" fill="none"/>
     <path d="m12022 9343c514-2099 2305-2676 2325-2655 0 0 31 926-597 1708-905 988-1722 947-1728 947z" fill="#80bb27"/>
    </g>
   </g>
   <g class="com.sun.star.drawing.CustomShape">
    <g>
     <rect class="BoundingBox" x="8626" y="3601" width="6176" height="6176" fill="none"/>
     <path d="m14801 6689c0 541-143 1074-414 1543-271 470-660 859-1130 1130-469 271-1002 414-1543 414-542 0-1075-143-1544-414-470-271-859-660-1130-1130-271-469-414-1002-414-1543 0-542 143-1075 414-1544 271-470 660-859 1130-1130 469-271 1002-414 1543-414 542 0 1075 143 1544 414 470 271 859 660 1130 1130 271 469 414 1002 414 1543v1zm-185 0c0 509-134 1009-389 1451-255 441-621 807-1062 1062-442 255-942 389-1451 389-510 0-1010-134-1452-389-441-255-807-621-1062-1062-255-442-389-942-389-1451 0-510 134-1010 389-1452 255-441 621-807 1062-1062 442-255 942-389 1451-389 510 0 1010 134 1452 389 441 255 807 621 1062 1062 255 442 389 942 389 1451v1z" fill="#80bb27"/>
    </g>
   </g>
  </g>
 </g>
</svg>
