<svg height="512" viewBox="0 0 512 512" width="512" xmlns="http://www.w3.org/2000/svg"><g id="Flat"><path d="m456 496h-368c0-133.28 87.16992-156.46 129.48-173.76h.01c13.56005-5.54 22.51-10.47 22.51-18.24 0-32-56-32-56-88 0-80-16-152 88-152s88 72 88 152c0 56-56 56-56 88 0 7.77 8.95 12.7 22.51 18.24 42.31007 17.3 129.49 40.47 129.49 173.76z" fill="#f5a971"/><path d="m221.45524 312.00017a87.8415 87.8415 0 0 0 98.545 1.72622h18.82792v182.27361h-134.82816v-184z" fill="#b1cdb4"/><path d="m272 352a111.74847 111.74847 0 0 1 -74.66895-28.58838 3.99972 3.99972 0 0 1 5.3379-5.958 103.80839 103.80839 0 0 0 139.123-.4165 4.00017 4.00017 0 0 1 5.375 5.92578 111.69681 111.69681 0 0 1 -75.16695 29.0371z" fill="#6eb4a4"/><path d="m456 496h-160c0-56 0-96 8-128 5.47-21.89 14.68994-36.29 22.51-45.76 42.31007 17.3 129.49 40.47 129.49 173.76z" fill="#f57a08"/><path d="m248 496h-160c0-133.28 87.16992-156.46 129.48-173.76h.01c7.82007 9.47 17.04 23.87 22.51 45.76 8 32 8 72 8 128z" fill="#f57a08"/><path d="m217.49 322.24c7.82007 9.47 17.04 23.87 22.51 45.76 0 0-8-16-24-16s-24 16-24 16v-32c0-40 8-40 24-40h22.7a24.39727 24.39727 0 0 1 1.3 8c0 7.77-8.94995 12.7-22.51 18.24z" fill="#f3b73f"/><path d="m303.81065 304c0-24 88-40 88-88 0-88 8.18935-192-79.81065-192-23.81065 0-40.18935 8-40.18935 8h.18935s-16-8-40-8c-88 0-80 104-80 192 0 48 88 64 88 88z" fill="#084c4f"/><path d="m360 216c0 56-56 56-56 88l-30.33333 12.00007-33.66667-12.00007c0-32-56-32-56-88 0-80-16-152 88-152s88 72 88 152z" fill="#f5a971"/><path d="m326.51 322.24c-7.82007 9.47-17.04 23.87-22.51 45.76 0 0 8-16 24-16s24 16 24 16v-32c0-40-8-40-24-40h-22.69995a24.39727 24.39727 0 0 0 -1.3 8c-.00005 7.77 8.94995 12.7 22.50995 18.24z" fill="#f3b73f"/><path d="m304.00293 372.001a4.00491 4.00491 0 0 1 -3.88379-4.97119c8.26856-33.07471 25.00781-49.814 33.05274-57.8584a3.99991 3.99991 0 0 1 5.65624 5.65722c-8.11328 8.11377-23.21582 23.21631-30.94726 54.1416a4.003 4.003 0 0 1 -3.87793 3.03077z" fill="#e0802b"/><path d="m239.99707 372.001a4.003 4.003 0 0 1 -3.87793-3.03077c-7.73144-30.92529-22.834-46.02783-30.94726-54.1416a3.99991 3.99991 0 1 1 5.65624-5.65722c8.04493 8.04443 24.78418 24.78369 33.05274 57.8584a4.00491 4.00491 0 0 1 -3.88379 4.97119z" fill="#e0802b"/><g fill="#084c4f"><path d="m204.84654 161.17384 5.664-5.673a8 8 0 0 1 8.18878-1.938l18.37171 6.11738a4.26913 4.26913 0 0 1 1.67487 1.03661 4.2692 4.2692 0 0 1 -3.02366 7.28317h-28.045a4 4 0 0 1 -2.8307-6.82616z"/><path d="m339.15346 161.17384-5.66395-5.673a8 8 0 0 0 -8.18878-1.938l-18.37173 6.1174a4.26913 4.26913 0 0 0 -1.67487 1.03661 4.2692 4.2692 0 0 0 3.02363 7.28315h28.045a4 4 0 0 0 2.8307-6.82616z"/><circle cx="224" cy="184" r="8"/><circle cx="320" cy="184" r="8"/></g><path d="m136.1107 360q-.108 3.82855-.1107 8v128h-64l-17.24448-123.442z" fill="#f57a08"/><path d="m144 312s-6.92993 13.85-7.89014 48a28.66718 28.66718 0 0 1 -16.10986 24c-10.02 5.01-29.43994 6.88-44.53 3.65l-.72-3.65s-4.23-16.94-8.34009-35.56c-3.88991-17.58-7.65991-36.67-7.65991-44.44 0-15.82 7.82007-31.64 23.47-31.99a20.5885 20.5885 0 0 1 16.53-8.01 12.11049 12.11049 0 0 1 6.95 1.99 19.72439 19.72439 0 0 1 5.5-1.71c-1.54-17.02-3.73-56.28 8.8-56.28 11.40991 0 14.67993 40.67 15.62012 64.01.12988-.01.25-.01.37988-.01 16 0 8 40 8 40z" fill="#f5a971"/><path d="m135.52832 268.00537a15.03865 15.03865 0 0 0 -5.95752 1.26166 15.794 15.794 0 0 0 -14.8208-9.26703 25.16276 25.16276 0 0 0 -8.814 1.55084 16.71393 16.71393 0 0 0 -7.19088-1.55084 24.5763 24.5763 0 0 0 -19.63867 9.48535 4.00025 4.00025 0 0 0 3.19726 6.5166l.44141-.002c3.82129 0 6.43066 1.814 7.97558 5.54541 1.81446 4.37939 1.58594 9.89307.21192 14.18457-.04492.11523-.083.23242-.11621.3501a13.36872 13.36872 0 0 1 -2.89942 5.09131c-1.90332 1.90332-3.66308 2.54052-5.23144 1.88916-2.21-.915-3.94043-4.0166-3.94043-7.06055a4 4 0 0 0 -8 0c0 6.34375 3.65136 12.28662 8.8789 14.45166a11.1111 11.1111 0 0 0 4.27637.86377c3.34766-.00049 6.7207-1.53467 9.67285-4.48682a18.29093 18.29093 0 0 0 3.002-4.04687c3.35864 1.06506 7.43505.69183 11.49072-2.59815a12.04187 12.04187 0 0 0 6.24658 3.01514c.34131.05.7124.08 1.09619.09833-6.99975 10.15649.65991 25.78473 1.01319 26.492a4.00046 4.00046 0 0 0 7.15624-3.57812c-1.74121-3.48145-5.61621-14.51612-.75-19.38233 4.19239-4.19238 4.92188-10.75732 5.62793-17.10644 1.1504-10.35547 2.30274-13.59912 7.26563-13.71875a4.00019 4.00019 0 0 0 -.19336-7.998zm-36.21094 27.2583a29.29055 29.29055 0 0 0 -1.20508-16.77978 16.70379 16.70379 0 0 0 -7.4023-8.53223 16.64189 16.64189 0 0 1 8.03512-1.95166c3.82129 0 6.43066 1.814 7.97558 5.54541 2.77539 6.69873.77149 16.05078-2.80371 19.626-1.95019 1.95066-3.49023 2.29197-4.59961 2.09226zm13.71192-1.37823c3.39843-6.78406 4.03857-16.26557 1.083-23.40155a19.739 19.739 0 0 0 -1.18237-2.39069c.59668-.05786 1.20215-.0932 1.82007-.0932 5.478 0 7.74463 3.92712 8.6626 7.68469-1.88867 4.01953-2.4419 8.96027-2.90772 13.15369-.15942 1.43268-.32153 2.87738-.52246 4.264-.02.02056-.04053.049-.06054.069-1.10059 1.10009-2.76758 2.35742-4.44922 2.11181a4.37978 4.37978 0 0 1 -2.44336-1.39775z" fill="#e37066"/><path d="m75.47 387.65c-9.01-1.92-16.48-5.67-19.47-11.65-5.42993-10.85 3.87012-21.7 10.40991-27.56 4.11009 18.62 8.34009 35.56 8.34009 35.56z" fill="#ea5003"/><path d="m176 136c40 0 32-40 64-40s32 16 32 16 0-16 32-16 24 40 64 40v-77.66667h-192z" fill="#084c4f"/><path d="m360 176 3.02944-3.02944a16.97054 16.97054 0 0 1 12-4.97056 16.97054 16.97054 0 0 1 16.97056 16.97055v3.53983a16.97055 16.97055 0 0 1 -10.66784 15.75676l-26.55346 10.624z" fill="#f5a971"/><path d="m184 176-3.02944-3.02944a16.97054 16.97054 0 0 0 -12-4.97056 16.97054 16.97054 0 0 0 -16.97056 16.97055v3.53983a16.97055 16.97055 0 0 0 10.66784 15.75676l26.55346 10.624z" fill="#f5a971"/><path d="m272 212h-4a16 16 0 0 1 0-32h4a4 4 0 0 1 0 8h-4a8 8 0 0 0 0 16h4a4 4 0 0 1 0 8z" fill="#e37066"/><path d="m164 496v-64a4 4 0 0 1 8 0v64z" fill="#ea5003"/><path d="m372 496v-64a4 4 0 0 1 8 0v64z" fill="#ea5003"/><path d="m264 76a3.98686 3.98686 0 0 1 -2.82812-1.17139c-14.01172-14.01123-35.69727-7.10254-35.915-7.03125a4 4 0 0 1 -2.52149-7.59228c1.0752-.3584 26.54688-8.58008 44.09277 8.96631a4 4 0 0 1 -2.82816 6.82861z" fill="#0c6c71"/><path d="m264.00293 60.001a4.00167 4.00167 0 0 1 -3.58105-2.21192c-6.89356-13.78908-20.57715-13.78908-36.42188-13.78908a4 4 0 0 1 0-8c16.1582 0 34.47168 0 43.57812 18.21094a4.0021 4.0021 0 0 1 -3.57519 5.79z" fill="#0c6c71"/><path d="m280 76a4 4 0 0 1 -2.82812-6.82861c17.54687-17.54737 43.01757-9.32422 44.09277-8.96631a4.0001 4.0001 0 0 1 -2.52344 7.5918c-.32715-.10645-21.93945-6.94385-35.91309 7.03173a3.98686 3.98686 0 0 1 -2.82812 1.17139z" fill="#0c6c71"/><path d="m279.99707 60.001a4.0021 4.0021 0 0 1 -3.57519-5.79c9.10644-18.211 27.41992-18.211 43.57812-18.211a4 4 0 0 1 0 8c-15.84473 0-29.52832 0-36.42188 13.78906a4.00167 4.00167 0 0 1 -3.58105 2.21194z" fill="#0c6c71"/><path d="m136 444a4.0002 4.0002 0 0 1 -4-4v-72q0-2.08374.02734-4.08154a4.00035 4.00035 0 0 1 8 .10644q-.02634 1.94678-.02734 3.9751v72a4.0002 4.0002 0 0 1 -4 4z" fill="#ea5003"/><ellipse cx="268" cy="240" fill="#e37066" rx="12" ry="16"/></g></svg>