<?xml version="1.0" encoding="UTF-8"?>
<!DOCTYPE svg  PUBLIC '-//W3C//DTD SVG 1.1//EN'  'http://www.w3.org/Graphics/SVG/1.1/DTD/svg11.dtd'>
<svg width="135.47mm" height="135.47mm" fill-rule="evenodd" stroke-linejoin="round" stroke-width="28.222" preserveAspectRatio="xMidYMid" version="1.2" viewBox="2500 3354 13547 13547" xml:space="preserve" xmlns="http://www.w3.org/2000/svg">
 <defs class="EmbeddedBulletChars">
  
  
  
  
  
  
  
  
  
  
 </defs>
 <g class="Page">
  <g class="Graphic">
   
    <rect class="BoundingBox" x="2500" y="3354" width="13547" height="13547" fill="none"/>
    <defs>
     <clipPath id="a">
      <path d="m2500 3354h13546v13546h-13546v-13546z"/>
     </clipPath>
    </defs>
    <g clip-path="url(#a)">
     <path d="m9211 9768c39 20 85 20 124 0 477-245 3751-2002 3751-4438-4-40-8-80-14-120-337-2469-3328-2225-3799-721-471-1504-3462-1748-3799 721-6 40-10 80-14 120 0 2353 3274 4193 3751 4438z" fill="#da4a54"/>
     <path d="m5460 5330c-234 2545 3239 4428 3751 4691 39 20 85 20 124 0 512-263 3985-2146 3751-4691-209 2293-3274 3955-3751 4200-39 20-85 20-124 0-477-245-3542-1907-3751-4200z" fill="#d82e3d"/>
     <path d="m4609 10127c21 76 102 118 177 91 107-37 579-268 579-268v-1604c0-320-259-580-579-580-194 0-366 96-471 242h1l293 2119z" fill="#edbca4"/>
     <path d="m4764 11119h1c-48-218 23-454 204-609 115-99 256-148 396-150v-2014c0-320-259-580-579-580s-579 260-579 580v789l557 1984z" fill="#edbca4"/>
     <path d="m5030 10009c-75 27-156-15-177-91l-537-1910c-69 95-109 212-109 338v1267l526 1964 632-1217v-410c-115 1-228 21-335 59z" fill="#eaab92"/>
     <path d="m7022 11926-1175-1351c-225-259-617-288-878-65-181 155-252 391-204 609l-871-3099c-92-328-401-538-731-516-327 105-443 392-392 620l680 2994c108 476 296 931 557 1344l1276 2027c214 339 327 732 327 1133v1049l238 229h2093c75 0 137-61 137-137v-794c0-308 74-612 217-884 146-278 304-708 260-1218-112-1288-1534-1941-1534-1941z" fill="#ffd6bd"/>
     <path d="m5200 10933c-119-140-164-317-142-486-31 18-61 39-89 63-262 223-293 616-71 879l1118 1319c226-176 261-506 75-725l-891-1050z" fill="#f9c6aa"/>
     <path d="m5358 16763v-896c0-401-114-793-327-1132l-1277-2027c-260-414-448-868-557-1345l-679-2993c-86-379 149-757 527-848 39-9 79-15 118-18-141 165-205 392-154 620l680 2993c108 477 297 932 557 1345l1276 2027c214 339 327 732 327 1133v1278h-355c-75 0-136-61-136-137z" fill="#f9c6aa"/>
     <path d="m13937 10127c-21 76-102 118-177 91-107-37-579-268-579-268v-1604c0-320 259-580 579-580 194 0 366 96 471 242h-1l-293 2119z" fill="#edbca4"/>
     <path d="m13782 11119h-1c48-218-23-454-204-609-115-99-256-148-396-150v-2014c0-320 259-580 579-580s579 260 579 580v789l-557 1984z" fill="#edbca4"/>
     <path d="m13516 10009c75 27 156-15 177-91l537-1910c69 95 109 212 109 338v1267l-526 1964-632-1217v-410c115 1 228 21 335 59z" fill="#eaab92"/>
     <path d="m11524 11926 1175-1351c225-259 617-288 878-65 181 155 252 391 204 609h1l870-3099c92-328 401-538 731-516 327 105 443 392 392 620l-680 2994c-108 476-296 931-557 1344l-1276 2027c-214 339-327 732-327 1133v1049l-238 229h-2093c-75 0-137-61-137-137v-794c0-308-74-612-217-884-146-278-305-708-260-1218 112-1288 1534-1941 1534-1941z" fill="#ffd6bd"/>
     <path d="m13346 10933c119-140 164-317 142-486 31 18 61 39 89 63 262 223 293 616 71 879l-1118 1319c-226-176-261-506-75-725l891-1050z" fill="#f9c6aa"/>
     <path d="m13188 15867c0-401 114-793 327-1132l1277-2027c260-414 448-868 557-1345l679-2993c86-379-149-757-527-848-39-9-79-15-118-18 141 165 205 392 154 620l-680 2993c-108 477-296 932-557 1345l-1276 2027c-214 339-327 732-327 1133v1278h355c75 0 136-61 136-137v-896z" fill="#f9c6aa"/>
    </g>
   
  </g>
  <g class="com.sun.star.drawing.ClosedBezierShape">
   <g>
    <rect class="BoundingBox" x="8108" y="5335" width="2310" height="2104" fill="none"/>
    <path d="m8797 7381c-17 30-38 48-62 53-25 6-48 3-70-9-21-13-36-31-43-55-8-25-3-52 14-82l1089-1897c17-30 38-48 62-53 25-6 47-3 68 10 21 12 35 30 44 55 8 24 4 51-13 81l-1089 1897zm-209-799c-151 0-268-53-353-161-85-107-127-256-127-448s42-341 127-448c85-106 202-159 353-159 148 0 266 53 351 159 86 107 129 256 129 448s-43 341-129 448c-85 108-203 161-351 161zm0-166c86 0 155-37 206-112 51-74 76-185 76-331 0-147-25-257-76-331-51-73-120-110-206-110-89 0-158 37-208 110-50 74-74 184-74 331 0 146 24 257 74 331 50 75 119 112 208 112zm1349 987c-149 0-266-53-352-160-85-108-128-257-128-449 0-190 43-339 128-446 86-107 203-161 352-161 150 0 268 54 352 161 85 107 127 256 127 446 0 192-42 341-127 449-84 107-202 160-352 160zm0-166c88 0 157-37 207-112 50-74 75-184 75-331s-25-257-75-330c-50-74-119-110-207-110-87 0-155 36-205 110-50 73-75 183-75 330 0 148 25 259 75 333 50 73 118 110 205 110z" fill="#fff"/>
   </g>
  </g>
 </g>
</svg>
