<?xml version="1.0" encoding="iso-8859-1"?>
<!-- Generator: Adobe Illustrator 19.0.0, SVG Export Plug-In . SVG Version: 6.00 Build 0)  -->
<svg version="1.1" id="Capa_1" xmlns="http://www.w3.org/2000/svg" xmlns:xlink="http://www.w3.org/1999/xlink" x="0px" y="0px"
	 viewBox="0 0 496.776 496.776" style="enable-background:new 0 0 496.776 496.776;" xml:space="preserve">
<polygon style="fill:#F0BC5E;" points="464.388,336 464.388,256 136.388,371.408 124.148,376.496 32.388,368 32.388,448 
	464.388,488 464.388,408 301.988,392.96 305.236,392 "/>
<g>
	<path style="fill:#231F20;" d="M216.388,168c0,17.648,14.352,32,32,32s32-14.352,32-32s-14.352-32-32-32
		c-0.416,0-0.8,0.104-1.208,0.12l-7.92-26.408l-15.328,4.6l7.928,26.424C222.628,146.36,216.388,156.424,216.388,168z M264.388,168
		c0,8.824-7.176,16-16,16s-16-7.176-16-16s7.176-16,16-16S264.388,159.176,264.388,168z"/>
	<path style="fill:#231F20;" d="M472.388,341.768v-97.032l-16,5.584V168c0-22.056-17.944-40-40-40H383.98
		C379.804,56.736,320.676,0,248.388,0S116.972,56.736,112.796,128H80.388c-22.056,0-40,17.944-40,40v192.712l-16-1.48v96.064
		l16.08,1.488C40.892,478.472,58.604,496,80.388,496h336c3.376,0,6.736-0.424,9.992-1.256l4.976-1.752l41.032,3.784v-96.072
		l-16-1.48v-52.128L472.388,341.768z M456.388,330.232l-161.984,53.992l-136.96-12.68l82.944-28.936V360h16v-22.968l24-8.376V336h16
		v-12.92l24-8.376V336h16v-26.88l24-8.376V312h16v-16h-2.384l26.384-9.2V312h16v-30.784l40-13.952V330.232z M334.004,387.896
		l74.384-24.8v31.68L334.004,387.896z M248.388,16c63.472,0,115.448,49.56,119.592,112h-16c-4.112-53.608-48.952-96-103.592-96
		s-99.48,42.392-103.592,96h-16C132.94,65.56,184.916,16,248.388,16z M56.388,168c0-13.232,10.768-24,24-24h96v-16h-15.592
		c1.656-18.264,8.888-34.928,20.008-48.272l11.016,11.016l11.312-11.312l-11.016-11.016c13.344-11.128,30.008-18.352,48.272-20.008
		V64h16V48.408c18.264,1.656,34.928,8.888,48.272,20.016L293.644,79.44l11.312,11.312l11.016-11.016
		c11.128,13.336,18.352,30.008,20.008,48.272h-15.592v16h96c13.232,0,24,10.768,24,24v87.904l-16,5.584V248h-16v19.064
		L119.052,367.992l-30.664-2.84V176h60c11.032,0,20,8.976,20,20c0,19.848,16.152,36,36,36h88c19.848,0,36-16.152,36-36
		c0-11.024,8.968-20,20-20h60v56h16v-72h-76c-19.848,0-36,16.152-36,36c0,11.024-8.968,20-20,20h-88c-11.032,0-20-8.976-20-20
		c0-19.848-16.152-36-36-36h-76v203.672l-16-1.48V168z M80.388,480c-12.456,0-22.6-9.568-23.768-21.72L291.228,480H80.388z
		 M456.388,479.224l-416-38.52v-63.936l40,3.704V408h16v-26.04l24,2.224V400h16v-14.336l24,2.224V416h16v-26.632l24,2.224V408h16
		v-14.928l24,2.224V424h16v-27.224l24,2.224v17h16v-15.52l24,2.224V432h16v-27.816l24,2.224V424h16v-16.112l24,2.224V440h16v-28.408
		l40,3.704V479.224z M440.388,397.744l-16-1.48v-38.496l16-5.336V397.744z"/>
</g>
<g>
</g>
<g>
</g>
<g>
</g>
<g>
</g>
<g>
</g>
<g>
</g>
<g>
</g>
<g>
</g>
<g>
</g>
<g>
</g>
<g>
</g>
<g>
</g>
<g>
</g>
<g>
</g>
<g>
</g>
</svg>
