<?xml version="1.0" encoding="UTF-8"?>
<!DOCTYPE svg  PUBLIC '-//W3C//DTD SVG 1.1//EN'  'http://www.w3.org/Graphics/SVG/1.1/DTD/svg11.dtd'>
<svg width="116.41mm" height="135.47mm" fill-rule="evenodd" stroke-linejoin="round" stroke-width="28.222" preserveAspectRatio="xMidYMid" version="1.2" viewBox="2821 10568 11641 13547" xml:space="preserve" xmlns="http://www.w3.org/2000/svg">
 <defs class="EmbeddedBulletChars">
  
  
  
  
  
  
  
  
  
  
 </defs>
 <g class="Page">
  <g class="Graphic">
   
    <rect class="BoundingBox" x="2821" y="10568" width="11641" height="13547" fill="none"/>
    <defs>
     <clipPath>
      <path d="m2821 10568h11640v13546h-11640v-13546z"/>
     </clipPath>
    </defs>
    
    <defs>
     <clipPath id="a">
      <path d="m2821 10568h11640v13546h-11640v-13546z"/>
     </clipPath>
    </defs>
    <g clip-path="url(#a)">
     <path d="m13773 19614c-365 987-915 1845-1637 2550-822 802-1898 1440-3199 1895-42 15-87 27-132 36-59 12-119 18-179 19h-11c-64 0-128-6-191-19-45-9-89-21-131-36-1302-454-2380-1091-3203-1894-722-705-1272-1562-1636-2549-661-1794-623-3771-593-5359l1-24c6-132 10-269 12-421 11-747 605-1365 1351-1407 1558-87 2762-595 3792-1598l9-8c171-157 386-234 600-231 207 3 413 80 578 231l9 8c1029 1003 2234 1511 3791 1598 747 42 1341 660 1352 1407 2 153 6 290 12 421v10c31 1591 68 3572-595 5371z" fill="#8ed02b"/>
     <path d="m13773 19614c-365 987-915 1845-1637 2550-822 802-1898 1440-3199 1895-42 15-87 27-132 36-59 12-119 18-179 19v-13546c207 3 413 80 578 231l9 8c1029 1003 2234 1511 3791 1598 747 42 1341 660 1352 1407 2 153 6 290 12 421v10c31 1591 68 3572-595 5371z" fill="#669932"/>
     <path d="m11990 17341c0 1857-1508 3369-3364 3376h-11c-1862 0-3376-1514-3376-3376 0-1861 1514-3376 3376-3376h11c1856 7 3364 1519 3364 3376z" fill="#fff"/>
     <path d="m11990 17341c0 1857-1508 3369-3364 3376v-6752c1856 7 3364 1519 3364 3376z" fill="#e1ebf0"/>
     <path d="m10147 16855-1849 1849c-78 78-179 116-281 116s-204-38-281-116l-707-707c-155-155-155-406 0-562 155-155 407-155 562 0l426 426 1568-1568c155-155 407-155 562 0s155 407 0 562z" fill="#b4d2d7"/>
     <path d="m10147 16855-1521 1521v-1125l959-958c155-155 407-155 562 0s155 407 0 562z" fill="#6fa5aa"/>
    </g>
    
   
  </g>
 </g>
</svg>
