<?xml version="1.0" encoding="UTF-8"?>
<svg width="79.658mm" height="63.245mm" version="1.1" viewBox="0 0 79.658 63.245" xmlns="http://www.w3.org/2000/svg" xmlns:cc="http://creativecommons.org/ns#" xmlns:dc="http://purl.org/dc/elements/1.1/" xmlns:rdf="http://www.w3.org/1999/02/22-rdf-syntax-ns#">
<metadata>
<rdf:RDF>
<cc:Work rdf:about="">
<dc:format>image/svg+xml</dc:format>
<dc:type rdf:resource="http://purl.org/dc/dcmitype/StillImage"/>
<dc:title/>
</cc:Work>
</rdf:RDF>
</metadata>
<g transform="translate(-39.115 -23.811)">
<g transform="matrix(.26458 0 0 .26458 26.279 17.108)">
<path d="m135.83 115.23a0.52 0.52 0 0 1-0.29-0.09 0.51 0.51 0 0 1-0.12-0.7c0.12-0.17 12.13-17.17 26.45-27.19a0.49 0.49 0 0 1 0.69 0.12 0.5 0.5 0 0 1-0.12 0.7c-14.17 9.93-26.08 26.77-26.2 26.93a0.5 0.5 0 0 1-0.41 0.23z" fill="#231f20"/>
<path d="m303 256.22h-0.08l-41-6.74a20.14 20.14 0 0 1-16.79-17.26l-5.03-37.22a0.48 0.48 0 0 1 0.42-0.56 0.5 0.5 0 0 1 0.57 0.42l5 37.28a19.17 19.17 0 0 0 16 16.41l40.76 6.69 18.15-13.54-30-5.83a23.35 23.35 0 0 1-18.76-21.06l-6.5-83.91-31.22 15.89a0.53 0.53 0 0 1-0.39 0 0.51 0.51 0 0 1-0.29-0.25l-12.16-24.54a0.51 0.51 0 0 1 0-0.42 0.5 0.5 0 0 1 0.32-0.28l30.16-8.54a0.49 0.49 0 0 1 0.52 0.17l13.83 16.67 76.42 9.62a0.51 0.51 0 0 1 0.44 0.56 0.5 0.5 0 0 1-0.56 0.44l-76-9.57 6.5 84a22.33 22.33 0 0 0 18 20.15l31.08 6.05a0.51 0.51 0 0 1 0.39 0.38 0.5 0.5 0 0 1-0.19 0.51l-19.24 14.3a0.47 0.47 0 0 1-0.35 0.18zm-80.15-134.08 11.72 23.53 30.89-15.67-13.35-16.09z" fill="#d1d3d4"/>
<path d="m240.59 195.38a0.50894 0.50894 0 0 1-0.19-1l29.7-12.38a0.48 0.48 0 0 1 0.26 0l62.17 8.59a0.51 0.51 0 0 1 0.43 0.57 0.5 0.5 0 0 1-0.57 0.42l-62-8.57-29.58 12.35a0.41 0.41 0 0 1-0.22 0.02z" fill="#d1d3d4"/>
<ellipse cx="281.41" cy="237.42" rx="4.42" ry="5.23" fill="#fff"/>
<path d="m281.41 243.16c-2.71 0-4.92-2.58-4.92-5.74s2.21-5.73 4.92-5.73 4.92 2.57 4.92 5.73-2.2 5.74-4.92 5.74zm0-10.47c-2.16 0-3.92 2.12-3.92 4.73s1.76 4.74 3.92 4.74 3.92-2.13 3.92-4.74-1.76-4.73-3.92-4.73z" fill="#d1d3d4"/>
<ellipse cx="264.57" cy="255" rx="4.42" ry="5.23" fill="#fff"/>
<path d="m264.57 260.73c-2.71 0-4.92-2.57-4.92-5.73s2.21-5.73 4.92-5.73 4.93 2.57 4.93 5.73-2.21 5.73-4.93 5.73zm0-10.46c-2.16 0-3.92 2.12-3.92 4.73s1.76 4.73 3.92 4.73 3.93-2.12 3.93-4.73-1.76-4.73-3.93-4.73z" fill="#d1d3d4"/>
<ellipse cx="288.78" cy="258.63" rx="4.42" ry="5.23" fill="#fff"/>
<path d="m288.78 264.37c-2.71 0-4.92-2.58-4.92-5.74s2.21-5.73 4.92-5.73 4.92 2.57 4.92 5.73-2.21 5.74-4.92 5.74zm0-10.47c-2.16 0-3.92 2.12-3.92 4.73s1.76 4.74 3.92 4.74 3.92-2.13 3.92-4.74-1.76-4.73-3.92-4.73z" fill="#d1d3d4"/>
<ellipse cx="308.35" cy="243.73" rx="4.42" ry="5.23" fill="#fff"/>
<path d="m308.35 249.46c-2.71 0-4.92-2.57-4.92-5.73s2.21-5.74 4.92-5.74 4.92 2.58 4.92 5.74-2.21 5.73-4.92 5.73zm0-10.47c-2.16 0-3.92 2.13-3.92 4.74s1.76 4.73 3.92 4.73 3.92-2.12 3.92-4.73-1.76-4.73-3.92-4.73z" fill="#d1d3d4"/>
<path d="m313.28 188.92h-0.11a0.49 0.49 0 0 1-0.38-0.59l11-50.19a0.49 0.49 0 0 1 0.59-0.38 0.5 0.5 0 0 1 0.38 0.6l-11 50.18a0.5 0.5 0 0 1-0.48 0.38z" fill="#d1d3d4"/>
<path d="m297.73 186.76a0.49 0.49 0 0 1-0.48-0.51l1.34-52a0.5 0.5 0 0 1 1 0l-1.34 52a0.5 0.5 0 0 1-0.52 0.51z" fill="#d1d3d4"/>
<path d="m255.68 189.18a0.51 0.51 0 0 1-0.5-0.44l-6.78-49.74a0.50421 0.50421 0 1 1 1-0.13l6.78 49.73a0.5 0.5 0 0 1-0.42 0.56z" fill="#d1d3d4"/>
<path d="m259.66 151.16c0.28-1-3.92-44.22-3.92-44.22l46.61-6.24 12.86 48.3z" fill="#fff"/>
<path d="m259.66 151.62a0.47 0.47 0 0 1-0.36-0.18 0.44 0.44 0 0 1-0.09-0.38c0.14-1.29-2.27-27-3.92-44.08a0.45 0.45 0 0 1 0.39-0.49l46.61-6.25a0.45 0.45 0 0 1 0.5 0.34l12.86 48.28a0.43 0.43 0 0 1-0.07 0.38 0.45 0.45 0 0 1-0.35 0.19l-55.55 2.19zm-3.42-44.29c1 9.94 3.73 38.75 3.87 43.35l54.51-2.14-12.62-47.34z" fill="#231f20"/>
<polygon points="263.51 180.26 324.31 189.94 332.46 123.26 295.73 113.41" fill="#fff"/>
<path d="m324.31 190.4h-0.07l-60.8-9.68a0.48 0.48 0 0 1-0.33-0.24 0.46 0.46 0 0 1 0-0.41l32.21-66.85a0.48 0.48 0 0 1 0.53-0.24l36.74 9.85a0.45 0.45 0 0 1 0.33 0.49l-8.15 66.68a0.5 0.5 0 0 1-0.18 0.31 0.47 0.47 0 0 1-0.28 0.09zm-60.12-10.5 59.73 9.52 8-65.82-35.92-9.6z" fill="#231f20"/>
<path d="m295.61 130.25a0.45 0.45 0 0 1-0.45-0.55c0-1.16-2.81-15.69-7.26-20.34-1.56-1.64-3.15-1.75-4.37-0.47-3.74 3.92-3.06 18.92-3.06 19.07a0.46 0.46 0 1 1-0.91 0c0-0.63-0.7-15.54 3.31-19.74a3.41 3.41 0 0 1 2.51-1.15c1.83 0 3.6 1.55 5.26 4.6 3.36 6.13 5.78 17.71 5.36 18.33a0.44 0.44 0 0 1-0.39 0.25z" fill="#231f20"/>
<path d="m284.7 188.77a0.5 0.5 0 0 1-0.5-0.47l-3.38-54.24a0.5 0.5 0 0 1 0.47-0.53 0.51 0.51 0 0 1 0.53 0.47l3.38 54.24a0.51 0.51 0 0 1-0.47 0.53z" fill="#d1d3d4"/>
<path d="m255.58 193.31c-0.32-0.8 6.21-63.51 6.21-63.51l37.21 6.45 5.19 58.5z" fill="#fff"/>
<path d="m304.17 195.21-48.59-1.44a0.47 0.47 0 0 1-0.41-0.29c-0.33-0.81 4.21-44.84 6.18-63.73a0.44 0.44 0 0 1 0.17-0.32 0.42 0.42 0 0 1 0.36-0.08l37.18 6.45a0.47 0.47 0 0 1 0.38 0.41l5.2 58.5a0.45 0.45 0 0 1-0.46 0.5zm-48.17-2.34 47.64 1.41-5.12-57.64-36.36-6.31c-1.71 16.78-5.94 58.03-6.16 62.54z" fill="#231f20"/>
<polygon points="298.98 136.25 261.79 129.8 267.5 123.34 308.98 126.38" fill="#fff"/>
<path d="m299 136.71h-0.08l-37.19-6.45a0.47 0.47 0 0 1-0.35-0.3 0.46 0.46 0 0 1 0.09-0.46l5.71-6.46a0.5 0.5 0 0 1 0.38-0.15l41.47 3a0.48 0.48 0 0 1 0.4 0.3 0.47 0.47 0 0 1-0.11 0.49l-10 9.87a0.48 0.48 0 0 1-0.32 0.16zm-36.31-7.22 36.15 6.27 9.12-9-40.24-3z" fill="#231f20"/>
<polygon points="298.98 136.25 308.98 126.38 315.38 189.31 304.17 194.75" fill="#fff"/>
<path d="m304.17 195.21a0.46 0.46 0 0 1-0.22-0.06 0.45 0.45 0 0 1-0.23-0.36l-5.2-58.5a0.45 0.45 0 0 1 0.14-0.36l10-9.88a0.46 0.46 0 0 1 0.77 0.28l6.41 62.93a0.47 0.47 0 0 1-0.26 0.46l-11.21 5.45a0.45 0.45 0 0 1-0.2 0.04zm-4.72-58.78 5.12 57.62 10.33-5-6.28-61.66z" fill="#231f20"/>
<path d="m288.16 140.69h-0.05a0.45 0.45 0 0 1-0.4-0.5c0.89-8.24 1.77-29.84-4.77-30.77a3.7 3.7 0 0 0-2.86 0.86c-6.17 4.74-8.73 25.82-8.76 26a0.46 0.46 0 1 1-0.91-0.11c0.11-0.88 2.64-21.67 9.11-26.65a4.62 4.62 0 0 1 3.55-1c8.75 1.24 5.68 30.52 5.54 31.77a0.45 0.45 0 0 1-0.45 0.4z" fill="#231f20"/>
<path d="m268.09 109.14a0.46 0.46 0 0 1-0.45-0.44c0-0.85-0.84-20.85 8-22.6a10.16 10.16 0 0 1 8.09 1.66c6.88 4.84 8.82 17.2 8.9 17.73a0.46 0.46 0 0 1-0.9 0.14c0-0.13-2-12.51-8.52-17.12a9.27 9.27 0 0 0-7.4-1.51c-8 1.59-7.23 21.46-7.22 21.66a0.47 0.47 0 0 1-0.44 0.48z" fill="#231f20"/>
<path d="m321.88 126.38h-0.11a0.46 0.46 0 0 1-0.33-0.55c0-0.1 2.39-9.55 2.42-12.54 0-2-1.75-6.5-4.69-8.06-1.74-0.91-3.63-0.68-5.63 0.71-6.66 4.62-7.53 15.33-7.54 15.43a0.46 0.46 0 1 1-0.91-0.06c0-0.46 0.91-11.25 7.93-16.12 2.87-2 5.16-1.51 6.57-0.76 3.39 1.79 5.2 6.8 5.18 8.87 0 3.1-2.35 12.36-2.45 12.75a0.44 0.44 0 0 1-0.44 0.33z" fill="#231f20"/>
<path d="m321.29 179.69h-0.06l-84.46-9.41a0.51 0.51 0 0 1-0.44-0.56 0.52 0.52 0 0 1 0.55-0.44l84.26 9.39 15.88-12a0.5 0.5 0 0 1 0.7 0.1 0.51 0.51 0 0 1-0.1 0.7l-16 12.08a0.49 0.49 0 0 1-0.33 0.14z" fill="#d1d3d4"/>
<path d="m261.88 196.83a0.5 0.5 0 0 1-0.49-0.44l-6.21-47.8a0.51 0.51 0 0 1 0.43-0.56 0.49 0.49 0 0 1 0.56 0.43l6.21 47.8a0.49 0.49 0 0 1-0.43 0.56z" fill="#d1d3d4"/>
<path d="m281.41 198.15a0.5 0.5 0 0 1-0.5-0.5v-46.49a0.5 0.5 0 0 1 0.5-0.5 0.5 0.5 0 0 1 0.5 0.5v46.49a0.5 0.5 0 0 1-0.5 0.5z" fill="#d1d3d4"/>
<path d="m299.44 199.19-0.37-0.34v-0.5 0.5l-0.47-0.15c0.41-1.72 4.56-44 4.44-45.21a0.53 0.53 0 0 1 0.44-0.56 0.5 0.5 0 0 1 0.56 0.42c0.05 0.36-4.04 45.24-4.6 45.84z" fill="#d1d3d4"/>
<path d="m317.21 200.58-76.61-5.2a0.52 0.52 0 0 1-0.47-0.44l-6.24-48.53a0.52 0.52 0 0 1 0.11-0.41 0.49 0.49 0 0 1 0.41-0.15l91.52 9.36a0.53 0.53 0 0 1 0.36 0.2 0.49 0.49 0 0 1 0.08 0.39l-8.66 44.38a0.51 0.51 0 0 1-0.5 0.4zm-76.21-6.17 75.77 5.14 8.48-43.4-90.35-9.24z" fill="#d1d3d4"/>
<path d="m317.21 200.58a0.5 0.5 0 0 1-0.29-0.09 0.49 0.49 0 0 1-0.2-0.5l8.66-44.38a0.56 0.56 0 0 1 0.15-0.27l17-16a0.5 0.5 0 0 1 0.83 0.47l-10.36 51.36a0.48 0.48 0 0 1-0.24 0.33l-15.25 9a0.47 0.47 0 0 1-0.3 0.08zm9.12-44.58-8.42 43.12 14.1-8.33 10.05-49.55z" fill="#d1d3d4"/>
<path d="m337.32 167.61h-10.89a0.5 0.5 0 0 1-0.5-0.5 0.5 0.5 0 0 1 0.5-0.5h10.89a0.5 0.5 0 0 1 0.5 0.5 0.51 0.51 0 0 1-0.5 0.5z" fill="#d1d3d4"/>
<path d="m236.83 170.28a0.50804 0.50804 0 0 1-0.18-1l21.6-8.24a0.50329 0.50329 0 1 1 0.36 0.94l-21.61 8.27a0.47 0.47 0 0 1-0.17 0.03z" fill="#d1d3d4"/>
<path d="m243.17 214.41a0.5 0.5 0 0 1-0.49-0.44c-0.07-0.5-0.11-0.76 28.93-12.55a0.51 0.51 0 0 1 0.65 0.27 0.51 0.51 0 0 1-0.28 0.66c-10.85 4.41-27.25 11.16-28.44 11.9a0.54 0.54 0 0 1-0.3 0.15z" fill="#d1d3d4"/>
<path d="m266.15 255.61a2.29 2.29 0 0 0 0-0.52c-0.3-1.84-2.52-2.44-3-0.38a2.64 2.64 0 0 0 0.23 2c1.02 1.73 2.62 0.43 2.77-1.1z" fill="#d1d3d4"/>
<path d="m283.54 237.65c0-0.14 0-0.28-0.06-0.42a1.46 1.46 0 0 0-0.05-0.2 4.84 4.84 0 0 0-0.21-0.47 3.91 3.91 0 0 0-0.3-0.41h-0.05a0.48 0.48 0 0 0-0.09-0.11 2.25 2.25 0 0 0-0.3-0.24l-0.08-0.05-0.31-0.13a1 1 0 0 0-0.51 0 0.62 0.62 0 0 0-0.32 0.09 0.92 0.92 0 0 0-0.41 0.27c-0.05 0.05-0.09 0.11-0.14 0.17l-0.13 0.17a3.7 3.7 0 0 0-0.19 0.42 2.27 2.27 0 0 0-0.1 0.58v0.12a0.15 0.15 0 0 0 0 0.07 2.57 2.57 0 0 0 0.05 0.4 2.52 2.52 0 0 0 0.21 0.54l0.07 0.11a2.86 2.86 0 0 0 0.28 0.35 4 4 0 0 0 0.34 0.27 2.35 2.35 0 0 0 0.43 0.19 1.45 1.45 0 0 0 0.8 0 1.14 1.14 0 0 0 0.36-0.15l0.13-0.1 0.14-0.11 0.11-0.14 0.11-0.15a1.83 1.83 0 0 0 0.14-0.32 2.6 2.6 0 0 0 0-0.39 0.55 0.55 0 0 0 0-0.18z" fill="#d1d3d4"/>
<path d="m290.68 258.57a2.07 2.07 0 0 0-0.05-0.4 1.31 1.31 0 0 0-0.16-0.42v-0.06l-0.2-0.26a1.59 1.59 0 0 0-0.66-0.39 1.34 1.34 0 0 0-0.69 0 1.28 1.28 0 0 0-0.56 0.33 2.6 2.6 0 0 0-0.27 0.38 2.65 2.65 0 0 0-0.18 0.42 0.64 0.64 0 0 0 0 0.07c0 0.13 0 0.27-0.05 0.4a0.71 0.71 0 0 0 0 0.14v0.23a2 2 0 0 0 0 0.24 1.66 1.66 0 0 0 0.1 0.29c0 0.09 0.08 0.18 0.13 0.27a2.54 2.54 0 0 0 0.29 0.36 1.28 1.28 0 0 0 0.56 0.33 0.89 0.89 0 0 0 0.51 0 0.85 0.85 0 0 0 0.48-0.15 1.2 1.2 0 0 0 0.46-0.46 0.56 0.56 0 0 0 0.05-0.08l0.13-0.33a2.6 2.6 0 0 0 0.05-0.39 0.19 0.19 0 0 0 0-0.07 2.18 2.18 0 0 0 0.06-0.45z" fill="#d1d3d4"/>
<path d="m310 243.68a1.62 1.62 0 0 0-0.2-0.78 0.43 0.43 0 0 0 0-0.07 2.09 2.09 0 0 0-0.22-0.28l-0.28-0.22-0.31-0.13a1 1 0 0 0-0.51 0 0.87 0.87 0 0 0-0.47 0.15l-0.26 0.2a1.28 1.28 0 0 0-0.33 0.56 2.76 2.76 0 0 0-0.08 0.27 4.09 4.09 0 0 0-0.07 0.6v0.14 0.11a0.93 0.93 0 0 0 0.1 0.47 0.83 0.83 0 0 0 0 0.15 1.3 1.3 0 0 0 0.89 0.89 1.29 1.29 0 0 0 1.25-0.33c0.08-0.1 0.17-0.2 0.24-0.3a2.12 2.12 0 0 0 0.18-0.42 0.65 0.65 0 0 0 0-0.13v-0.25a1.37 1.37 0 0 0 0.07-0.63z" fill="#d1d3d4"/>
<path d="m85.12 84.7a0.44 0.44 0 0 1-0.24-0.07 0.46 0.46 0 0 1-0.15-0.63c2.43-3.94 14.69-23.6 17.68-24a0.83 0.83 0 0 1 0.7 0.22c2 1.94-4.39 16-6.4 20.26a0.46 0.46 0 0 1-0.83-0.39c4-8.45 7.64-18.2 6.59-19.21-1.49 0-9.8 12-17 23.59a0.44 0.44 0 0 1-0.35 0.23z" fill="#231f20"/>
<polygon points="49.01 125.12 54.15 129.19 56.27 138.13 97.31 123.22 105.32 80.79 82.47 82.42" fill="#fff"/>
<path d="m56.26 138.62a0.46 0.46 0 0 1-0.23-0.06 0.45 0.45 0 0 1-0.25-0.32l-2.07-8.77-5-4a0.5 0.5 0 0 1-0.09-0.7l33.47-42.7a0.48 0.48 0 0 1 0.35-0.19l22.85-1.63a0.49 0.49 0 0 1 0.41 0.17 0.49 0.49 0 0 1 0.12 0.42l-8 42.44a0.52 0.52 0 0 1-0.32 0.37l-41 14.9a0.57 0.57 0 0 1-0.24 0.07zm-6.55-13.62 4.75 3.77a0.53 0.53 0 0 1 0.18 0.28l2 8.38 40.25-14.61 7.84-41.51-22 1.56z" fill="#d1d3d4"/>
<polygon points="103.76 79.56 86.55 89.66 81.03 82.37 99.58 74.9" fill="#d1d3d4"/>
<path d="m86.55 90.16a0.51 0.51 0 0 1-0.4-0.2l-5.52-7.28a0.53 0.53 0 0 1-0.08-0.44 0.5 0.5 0 0 1 0.29-0.33l18.55-7.47a0.49 0.49 0 0 1 0.56 0.13l4.19 4.66a0.5 0.5 0 0 1 0.12 0.41 0.49 0.49 0 0 1-0.26 0.36l-17.19 10.09a0.48 0.48 0 0 1-0.26 0.07zm-4.73-7.57 4.86 6.41 16.32-9.56-3.56-3.94z" fill="#d1d3d4"/>
<path d="m95.9 88.11h-0.07a0.45 0.45 0 0 1-0.38-0.52c1-6.39 4.43-27.26 7.71-27.42a1.17 1.17 0 0 1 0.91 0.39c2.49 2.52 1.43 20.36 1.3 22.39a0.46 0.46 0 1 1-0.91-0.06c0.5-7.79 0.63-20-1-21.69a0.28 0.28 0 0 0-0.22-0.12c-1.72 0.09-4.89 13.9-6.85 26.65a0.45 0.45 0 0 1-0.49 0.38z" fill="#231f20"/>
<polygon points="90.22 142.9 109.3 128.46 111.81 83.23 90.75 88.29 79.39 135.54" fill="#fff"/>
<path d="m90.22 143.4a0.49 0.49 0 0 1-0.28-0.09l-10.83-7.31a0.49 0.49 0 0 1-0.2-0.53l11.36-47.3a0.51 0.51 0 0 1 0.37-0.37l21-5a0.5 0.5 0 0 1 0.44 0.1 0.51 0.51 0 0 1 0.18 0.41l-2.51 45.22a0.48 0.48 0 0 1-0.2 0.37l-19.03 14.4a0.45 0.45 0 0 1-0.3 0.1zm-10.22-8.08 10.25 7 18.61-14.08 2.45-44.32-20.14 4.78z" fill="#d1d3d4"/>
<polygon points="107.2 78.75 89.61 87.81 97.07 91.57 111.81 83.23" fill="#d1d3d4"/>
<path d="m97.07 92.07a0.64 0.64 0 0 1-0.23 0l-7.46-3.77a0.49 0.49 0 0 1-0.27-0.44 0.5 0.5 0 0 1 0.27-0.45l17.62-9.11a0.49 0.49 0 0 1 0.57 0.09l4.62 4.49a0.5 0.5 0 0 1 0.14 0.42 0.49 0.49 0 0 1-0.25 0.37l-14.76 8.33a0.47 0.47 0 0 1-0.25 0.07zm-6.36-4.27 6.35 3.2 13.94-7.87-3.87-3.77z" fill="#d1d3d4"/>
<line x1="85.69" x2="58.86" y1="92.46" y2="132.82" fill="#d1d3d4"/>
<path d="m58.86 133.32a0.45 0.45 0 0 1-0.27-0.08 0.49 0.49 0 0 1-0.14-0.69l26.83-40.37a0.5 0.5 0 1 1 0.83 0.55l-26.83 40.37a0.52 0.52 0 0 1-0.42 0.22z" fill="#d1d3d4"/>
<line x1="98.15" x2="92.05" y1="96.15" y2="139.63" fill="#d1d3d4"/>
<path d="m92.05 140.13h-0.05a0.5 0.5 0 0 1-0.43-0.56l6.11-43.48a0.50488 0.50488 0 0 1 1 0.14l-6.14 43.47a0.5 0.5 0 0 1-0.49 0.43z" fill="#d1d3d4"/>
<path d="m101.77 93.78a0.46 0.46 0 0 1-0.45-0.46c0-0.08 0.1-8 0.51-15.87 0.84-16.27 2.17-16.38 2.87-16.45 2.63 0 4.6 18.68 5.54 29.86a0.46 0.46 0 1 1-0.91 0.08c-1.16-13.79-3.21-28.42-4.65-29-1.32 0.78-2.33 16.58-2.5 31.41a0.46 0.46 0 0 1-0.41 0.43z" fill="#231f20"/>
<path d="m201 81.83s10.92 22.53 21.49 27.33a131.83 131.83 0 0 0 25 8.65c6.16 1.43 9.37 10.18 9.37 11.94s-3.36 3.19-5.52 1.75-6.73-5.29-6.73-5.29 0.72 6-1.44 4.81-3.12-7.21-3.12-7.21-10.43 1-17.23-2.16-20.48-9.85-27.21-18" fill="#fff"/>
<path d="m253.31 132.54a4.12 4.12 0 0 1-2.3-0.66c-1.61-1.08-4.49-3.43-5.92-4.61 0.09 1.44 0 3.57-0.87 4.18a1.2 1.2 0 0 1-1.34 0c-2-1.13-3-5.64-3.28-7.12-2 0.15-10.91 0.59-17-2.23-13.28-6.11-22.49-12.22-27.37-18.14a0.47 0.47 0 0 1 0.06-0.65 0.46 0.46 0 0 1 0.64 0.06c4.8 5.83 13.9 11.85 27.05 17.9 6.61 3 16.89 2.13 17 2.12a0.46 0.46 0 0 1 0.5 0.38c0.26 1.61 1.28 6 2.89 6.88 0.18 0.1 0.31 0.12 0.39 0.07 0.5-0.34 0.6-2.56 0.38-4.42a0.45 0.45 0 0 1 0.74-0.41s4.57 3.85 6.69 5.26a3.67 3.67 0 0 0 3.67 0 1.81 1.81 0 0 0 1.14-1.41c0-1.53-3.13-10.13-9-11.5a133.74 133.74 0 0 1-25.07-8.67c-10.65-4.81-21.31-26.57-21.77-27.57a0.45 0.45 0 0 1 0.21-0.61 0.46 0.46 0 0 1 0.61 0.21c0.11 0.23 11 22.43 21.27 27.11a131.74 131.74 0 0 0 24.9 8.62c6.48 1.51 9.72 10.45 9.72 12.39a2.7 2.7 0 0 1-1.63 2.22 5 5 0 0 1-2.31 0.6z" fill="#231f20"/>
<path d="m120.43 184.51-11.93 15-26.83-23.13s-14.91 14.11-12.78 14.93 10.22 0 10.22 0 32 34 37.06 30.83 28.54-33.84 28.54-33.84" fill="#fff"/>
<path d="m115.35 222.84c-1.85 0-6.53-2-19.94-14.59-7.88-7.41-15.32-15.24-16.48-16.46-1.35 0.13-8.18 0.73-10.21 0a0.75 0.75 0 0 1-0.48-0.57c-0.42-2.12 9.93-12.11 13.11-15.13a0.46 0.46 0 0 1 0.61 0l26.48 22.78 11.63-14.59a0.46 0.46 0 0 1 0.64-0.07 0.45 0.45 0 0 1 0.07 0.64l-11.92 15a0.48 0.48 0 0 1-0.32 0.17 0.53 0.53 0 0 1-0.34-0.11l-26.52-22.91c-6.22 5.92-12.46 12.58-12.54 13.93 1.77 0.59 7.74 0.16 9.92-0.06a0.46 0.46 0 0 1 0.38 0.14c12.26 13 33 32.92 36.49 30.75 5-3.09 28.18-33.42 28.41-33.72a0.46 0.46 0 0 1 0.73 0.55c-1 1.25-23.54 30.77-28.66 33.95a1.84 1.84 0 0 1-1.06 0.3z" fill="#231f20"/>
<path d="m193.84 194.35 0.51 56.48s18.43 4.26 16.3 5.11-31.2 0-31.2 0l-6.75-70.56" fill="#fff"/>
<path d="m201.35 256.78c-8.56 0-20-0.32-21.91-0.38a0.45 0.45 0 0 1-0.44-0.4l-6.75-70.57a0.47 0.47 0 0 1 0.41-0.5 0.46 0.46 0 0 1 0.5 0.41l6.71 70.17c10.81 0.31 26.63 0.57 30 0.13-2-0.92-9.08-2.83-15.68-4.35a0.46 0.46 0 0 1-0.35-0.44l-0.51-56.48a0.46 0.46 0 0 1 0.46-0.46 0.46 0.46 0 0 1 0.46 0.45l0.5 56.12c16.37 3.79 16.45 4.9 16.48 5.26a0.63 0.63 0 0 1-0.46 0.64c-0.72 0.3-4.62 0.4-9.42 0.4z" fill="#231f20"/>
<path d="m166.24 77.91c-10.27 8.42-11.86 27.9-13.79 42.46l48.08 9.38s6.41-41 0.42-47.92-24.44-12.34-34.71-3.92z" fill="#80bb27"/>
<path d="m169.8 70.21q0.49-0.17 1-0.36c-3.44 0.12-6.67-1.86-8.9-4.48s-3.61-5.83-5-9a12.16 12.16 0 0 0 9.8 0.77 12.19 12.19 0 0 1-8.86-9.26c6.27 0.67 12-3.27 17.06-7s11-7.39 17.69-4.83c7.27 2.77 9.48 11.35 9.79 18.36 0.39 9-3.39 17.38-12.41 20.5-6.05 2.1-12.78 1.35-18.82-0.77a15.22 15.22 0 0 1-5.47-3 23 23 0 0 0 4.12-0.93z" fill="#fff"/>
<path d="m182.26 76.62a34.69 34.69 0 0 1-11.23-2 15.79 15.79 0 0 1-5.63-3.07 0.46 0.46 0 0 1-0.13-0.47 0.47 0.47 0 0 1 0.37-0.32 20.88 20.88 0 0 0 2.93-0.61 12.83 12.83 0 0 1-7-4.44c-2.29-2.69-3.68-6-5-9.11a0.45 0.45 0 0 1 0.11-0.51 0.47 0.47 0 0 1 0.53-0.07 11.73 11.73 0 0 0 8 1.15 12.65 12.65 0 0 1-7.79-9.17 0.46 0.46 0 0 1 0.11-0.4 0.47 0.47 0 0 1 0.39-0.14c6 0.63 11.31-2.92 16.74-6.93 5.09-3.77 11.11-7.56 18.12-4.89 8.2 3.13 9.84 13.1 10.08 18.77 0.45 10.21-4.3 18-12.71 21a23.9 23.9 0 0 1-7.89 1.21zm-15.49-5.15a16.63 16.63 0 0 0 4.56 2.24c4.7 1.65 11.74 3.12 18.52 0.77 8-2.77 12.53-10.27 12.1-20.05-0.24-5.45-1.79-15-9.49-18-6.58-2.51-12.36 1.14-17.26 4.76-5.18 3.83-10.73 7.51-16.75 7.16a11.89 11.89 0 0 0 8.39 8.31 0.46 0.46 0 0 1 0.35 0.42 0.45 0.45 0 0 1-0.3 0.45 12.69 12.69 0 0 1-9.06-0.26 30.24 30.24 0 0 0 4.41 7.76c2.39 2.8 5.58 4.41 8.53 4.32a0.47 0.47 0 0 1 0.47 0.36 0.47 0.47 0 0 1-0.29 0.52l-1 0.37a24.73 24.73 0 0 1-3.18 0.87z" fill="#231f20"/>
<path d="m191.76 68.66 0.05 9.12s-0.92 5.09-6.47 3.54a11.47 11.47 0 0 1-7.34-6.54l0.61-15.78a28.74 28.74 0 0 0 0.91-8.47c6.74-0.1 12-5.19 12-5.19s2.32 3.48 3.32 4.58a13.58 13.58 0 0 1 2.16 2.75c0.93 1.75 0.9 3.95 0.85 5.89a38.53 38.53 0 0 1-0.68 6.86c-0.92 4.3-5.41 3.24-5.41 3.24z" fill="#fff"/>
<path d="m187.31 82.07a7.73 7.73 0 0 1-2.09-0.31 11.83 11.83 0 0 1-7.67-6.82 0.47 0.47 0 0 1 0-0.17s0.63-15.68 0.63-15.79a4.6 4.6 0 0 1 0.16-0.8 25.94 25.94 0 0 0 0.75-7.64 0.46 0.46 0 0 1 0.13-0.32 0.43 0.43 0 0 1 0.32-0.14c6.49-0.11 11.68-5 11.73-5.07a0.46 0.46 0 0 1 0.37-0.12 0.43 0.43 0 0 1 0.33 0.2s2.31 3.46 3.28 4.52a14.32 14.32 0 0 1 2.15 2.84c1 1.89 0.95 4.23 0.91 6.12a37.28 37.28 0 0 1-0.7 6.94 4.43 4.43 0 0 1-1.91 3 5.43 5.43 0 0 1-3.45 0.68l0.05 8.59a5.56 5.56 0 0 1-2.34 3.58 4.79 4.79 0 0 1-2.65 0.71zm-8.87-7.36a11.12 11.12 0 0 0 7 6.17 4.86 4.86 0 0 0 4-0.29 4.74 4.74 0 0 0 1.92-2.89l-0.06-9a0.45 0.45 0 0 1 0.56-0.44 4.94 4.94 0 0 0 3.32-0.49 3.56 3.56 0 0 0 1.51-2.4 37.31 37.31 0 0 0 0.68-6.78c0-1.88 0.09-4-0.81-5.67a13.12 13.12 0 0 0-2-2.65 49.53 49.53 0 0 1-3.07-4.2c-1.35 1.16-5.86 4.68-11.5 4.95a26.36 26.36 0 0 1-0.78 7.42 6.11 6.11 0 0 0-0.14 0.62s-0.02 0.24-0.63 15.65z" fill="#231f20"/>
<path d="m191.71 73.14a8.77 8.77 0 0 1-6.08-2.3 6.4 6.4 0 0 1-2-5 17.67 17.67 0 0 0 8.16 2.78z" fill="#231f20"/>
<path d="m191.54 73.58a9 9 0 0 1-6.23-2.44 6.81 6.81 0 0 1-2.15-5.32 0.44 0.44 0 0 1 0.26-0.34 0.42 0.42 0 0 1 0.42 0s3.95 2.61 7.93 2.7a0.44 0.44 0 0 1 0.43 0.45v4.47a0.45 0.45 0 0 1-0.42 0.44zm0.17-0.44m-7.71-6.47a6.4 6.4 0 0 0 1.9 3.86 8.09 8.09 0 0 0 5.33 2.16v-3.61a17.72 17.72 0 0 1-7.23-2.41z" fill="#231f20"/>
<path d="m189.94 61.57a6.12 6.12 0 0 1-1.4-0.18 0.44385 0.44385 0 0 1 0.22-0.86c0.55 0.14 1.82 0.3 2.21-0.13 0.15-0.39-0.91-2.55-2.28-4.59a0.45 0.45 0 0 1 0.13-0.62 0.44 0.44 0 0 1 0.61 0.13c1.43 2.13 3 4.84 2.19 5.68a2.26 2.26 0 0 1-1.68 0.57z" fill="#231f20"/>
<path d="m181.65 54.32a8.73 8.73 0 0 0-1.7-3.09 2.93 2.93 0 0 0-3.23-0.78c-1.18 0.58-1.57 2.07-1.57 3.38a14.29 14.29 0 0 0 0.8 4.37 5.07 5.07 0 0 0 1.25 2.27 2 2 0 0 0 2.41 0.34" fill="#fff"/>
<path d="m178.72 61.53a2.82 2.82 0 0 1-1.83-0.72 5.45 5.45 0 0 1-1.37-2.47 14.46 14.46 0 0 1-0.82-4.51c0-0.87 0.17-3 1.82-3.79a3.38 3.38 0 0 1 3.75 0.87 9.06 9.06 0 0 1 1.81 3.25 0.46 0.46 0 0 1-0.85 0.33 8.45 8.45 0 0 0-1.6-2.93 2.51 2.51 0 0 0-2.71-0.7c-1.22 0.6-1.31 2.42-1.31 3a13.78 13.78 0 0 0 0.77 4.22 4.59 4.59 0 0 0 1.13 2.08 1.57 1.57 0 0 0 1.84 0.31 0.45 0.45 0 0 1 0.63 0.11 0.45 0.45 0 0 1-0.12 0.64 2 2 0 0 1-1.14 0.31z" fill="#231f20"/>
<path d="m177.79 84.22c0.72-4.3-0.51-8.33-5.79-8.71-7.92-0.56-16 6-23 9.1-2.46 1.07-13 7.28-15.76 5.64-1.47-0.88-2.46-3.61-3.24-5-1.73-3.2-3.34-6.47-4.94-9.74-3.3-6.78-5.92-13.34-10.9-19.1-1-1.18-2.1-2.33-3.24-3.4a24.51 24.51 0 0 0-10.92-6.29 0.93 0.93 0 0 0-0.75 0.05c-0.47 0.34 0 1.07 0.5 1.41l5.7 4.06a21.18 21.18 0 0 0-5.17-2.94c-0.86-0.34-3.51-1.77-4.28-0.82-1.09 1.33 1.75 2.1 2.42 2.54 1.58 1 3.09 2.16 4.7 3.1a28.71 28.71 0 0 0-6.56-2.83c-1.09-0.32-2.71-0.25-2.85 0.88-0.09 0.74 0.6 1.31 1.21 1.74l4.87 3.34c-1.35-0.93-3.46 1.33-3.8 2.45a5.56 5.56 0 0 0 1.31 5.18 2.63 2.63 0 0 0 1.07 0.73 1.26 1.26 0 0 0 1.23-0.22c1.31-1.22-0.48-3.72 1.74-4.54a2 2 0 0 1 2.37 1.15 2.75 2.75 0 0 1-0.43 2.72c-0.48 0.62-1.21 1.19-1.12 2a1.47 1.47 0 0 0 0.8 1.06 2.51 2.51 0 0 0 3.4-1.19c0.24-0.6 0.48-1.48 1.12-1.39a1.14 1.14 0 0 1 0.59 0.38c0.87 0.85 5.14 16.42 6.27 21.56 1.55 7.09 4.39 22.3 13.6 23.44a6.36 6.36 0 0 0 0.87 0.06c8.61 0 17.15-3.08 24.9-6.54 6.45-2.88 13.94-5.43 19.25-10.23a18 18 0 0 0 4.83-9.65z" fill="#fff"/>
<path d="m129 111h-0.17c-0.31 0-0.62 0-0.92-0.06-9.11-1.14-12.14-15.21-13.77-22.77l-0.23-1c-1.2-5.49-5.35-20.39-6.15-21.33a0.77 0.77 0 0 0-0.32-0.24c-0.21 0-0.41 0.5-0.54 0.86l-0.1 0.24a3 3 0 0 1-4 1.42 1.93 1.93 0 0 1-1-1.41 2.53 2.53 0 0 1 0.88-1.89l0.33-0.4a2.29 2.29 0 0 0 0.38-2.26 1.54 1.54 0 0 0-1.81-0.87c-0.9 0.33-0.93 0.95-0.91 2a2.94 2.94 0 0 1-0.68 2.42 1.72 1.72 0 0 1-1.68 0.33 3.06 3.06 0 0 1-1.31-0.85 6 6 0 0 1-1.42-5.63 5.36 5.36 0 0 1 2.69-2.82l-3.58-2.46c-0.71-0.49-1.52-1.18-1.4-2.17a1.47 1.47 0 0 1 0.62-1.11 3.59 3.59 0 0 1 2.76-0.19l1 0.3h-0.09c-0.91-0.41-2-0.91-2.25-1.78a1.32 1.32 0 0 1 0.32-1.14c0.74-0.89 2.31-0.39 3.6 0.16a1.8 1.8 0 0 1-0.64-1.21 0.89 0.89 0 0 1 0.39-0.74 1.34 1.34 0 0 1 1.11-0.12 24.65 24.65 0 0 1 11.12 6.35c1.07 1 2.14 2.13 3.28 3.44 4.15 4.81 6.65 10.09 9.29 15.69 0.55 1.16 1.1 2.33 1.67 3.51 1.53 3.13 3.17 6.46 4.94 9.73 0.18 0.33 0.37 0.73 0.57 1.16 0.66 1.37 1.48 3.09 2.5 3.7 2 1.17 9.39-2.65 13-4.49 1-0.54 1.87-1 2.38-1.18 2-0.89 4.14-2.07 6.37-3.32 5.48-3.06 11.14-6.22 16.87-5.81a6.62 6.62 0 0 1 5 2.33c1.28 1.62 1.7 4 1.22 6.91a18.39 18.39 0 0 1-5 9.83c-4.33 3.93-10 6.33-15.52 8.66q-2 0.83-3.84 1.65c-7.36 3.26-16.02 6.56-24.96 6.56zm-21.6-46.36h0.17a1.6 1.6 0 0 1 0.84 0.5c1 1 5.45 17.49 6.39 21.79l0.23 1c1.58 7.34 4.53 21 13 22a6.37 6.37 0 0 0 1 0c8.78 0 17.33-3.28 24.55-6.5 1.25-0.56 2.54-1.11 3.85-1.66 5.43-2.3 11.05-4.68 15.27-8.49a17.69 17.69 0 0 0 4.69-9.31c0.31-1.84 0.37-4.41-1-6.19a5.77 5.77 0 0 0-4.39-1.78c-5.45-0.39-11 2.71-16.36 5.7-2.25 1.26-4.38 2.45-6.46 3.35-0.48 0.21-1.29 0.63-2.32 1.16-5.86 2.96-11.66 5.79-13.86 4.44-1.26-0.76-2.14-2.61-2.85-4.1-0.2-0.42-0.38-0.8-0.56-1.12-1.77-3.28-3.42-6.62-4.95-9.76-0.57-1.18-1.13-2.36-1.68-3.52-2.61-5.54-5.08-10.77-9.16-15.48a44.19 44.19 0 0 0-3.2-3.37 23.81 23.81 0 0 0-10.7-6.13c-0.29-0.07-0.36 0-0.38 0a1.13 1.13 0 0 0 0.5 0.67l4.39 3.12c0.45 0.3 0.89 0.61 1.32 1a0.45 0.45 0 0 1 0.09 0.63 0.46 0.46 0 0 1-0.63 0.1l-1.3-0.92a21.55 21.55 0 0 0-3.78-2l-0.54-0.23c-0.76-0.34-2.79-1.25-3.22-0.72-0.17 0.21-0.15 0.32-0.14 0.35 0.1 0.43 1.16 0.9 1.73 1.15a7.11 7.11 0 0 1 0.73 0.36c0.62 0.4 1.23 0.82 1.84 1.24 0.9 0.62 1.84 1.27 2.8 1.83a0.46 0.46 0 0 1 0.16 0.62 0.47 0.47 0 0 1-0.63 0.17 28.4 28.4 0 0 0-6.41-2.76 2.73 2.73 0 0 0-2 0.08 0.52 0.52 0 0 0-0.26 0.42c-0.07 0.5 0.54 1 1 1.3l4.83 3.29a0.46 0.46 0 0 1 0.12 0.64 0.45 0.45 0 0 1-0.63 0.12 0.92 0.92 0 0 0-0.89-0.06 4.45 4.45 0 0 0-2.22 2.26 5.13 5.13 0 0 0 1.22 4.73 2 2 0 0 0 0.87 0.61 0.81 0.81 0 0 0 0.78-0.12c0.42-0.39 0.4-1 0.39-1.73 0-1 0-2.32 1.51-2.9a2.45 2.45 0 0 1 3 1.36 3.2 3.2 0 0 1-0.48 3.19l-0.37 0.44c-0.36 0.41-0.7 0.8-0.66 1.19a1 1 0 0 0 0.58 0.71 2 2 0 0 0 2.74-1l0.09-0.23c0.2-0.54 0.53-1.41 1.33-1.41z" fill="#231f20"/>
<path d="m152.13 120s-10.65 11.84-44.32 65.3c0 0 59 20.49 91.59 19.76l0.82-75.33z" fill="#231f20"/>
<path d="m197.69 205.54c-32.6 0-89.45-19.6-90-19.8a0.51 0.51 0 0 1-0.27-0.27 0.43 0.43 0 0 1 0-0.38c33.31-52.89 44.26-65.24 44.37-65.36a0.43 0.43 0 0 1 0.41-0.14l48.09 9.72a0.46 0.46 0 0 1 0.35 0.44l-0.82 75.33a0.44 0.44 0 0 1-0.43 0.44zm-89.21-20.46c5.91 2 60 20.07 90.49 19.56l0.8-74.53-47.47-9.61c-1.47 1.72-12.97 15.64-43.82 64.58z" fill="#231f20"/>
<path d="m179.25 253.25c0 0.14 15.56 0 15.56 0s1.8-3.49 3.12-3.61 16.28 4.24 16.19 6.68-36.12 2.81-36.12 2.81z" fill="#231f20"/>
<path d="m178 259.57a0.44 0.44 0 0 1-0.34-0.16 0.45 0.45 0 0 1-0.09-0.37l1.26-5.88a0.44 0.44 0 0 1 0.46-0.35h0.11c0.79 0.08 9.34 0 15.15 0 0.51-0.94 2-3.49 3.35-3.61s13.27 3.29 16 5.91a1.69 1.69 0 0 1 0.64 1.23c0 0.72-0.08 1.93-18.52 2.74-8.93 0.39-17.95 0.49-18 0.49zm1.62-5.88-1.07 5c16.4-0.18 34.15-1.09 35.16-2.45a3.1 3.1 0 0 0-0.39-0.48c-2.52-2.4-14.3-5.78-15.34-5.67-0.75 0.07-2.07 2-2.77 3.37a0.44 0.44 0 0 1-0.39 0.24c-10.17 0.08-13.82 0.12-15.21-0.01z" fill="#231f20"/>
<path d="m84.93 178-10.8 11.29 2 3.61s-12.25 4.81-13.93 2.89 18-21.51 18-21.51z" fill="#231f20"/>
<path d="m63.89 196.63a2.65 2.65 0 0 1-2-0.58c-0.45-0.52-1.31-1.5 8.39-12.06 4.66-5.09 9.6-10 9.65-10.05a0.43 0.43 0 0 1 0.58 0l4.68 3.72a0.44 0.44 0 0 1 0.17 0.31 0.46 0.46 0 0 1-0.12 0.34l-10.57 11.02 1.88 3.32a0.45 0.45 0 0 1 0 0.36 0.44 0.44 0 0 1-0.25 0.27c-1.65 0.65-8.73 3.35-12.41 3.35zm16.39-21.79c-9.13 9.11-18.19 19.25-17.7 20.65 1 1.11 8-1 13-2.85l-1.79-3.16a0.44 0.44 0 0 1 0.07-0.52l10.42-10.96z" fill="#231f20"/>
<path d="m189.48 65a3.68 3.68 0 0 1-0.73-0.07c-1.66-0.33-3-1.77-4-4.29a0.44478 0.44478 0 0 1 0.83-0.32c0.88 2.22 2 3.48 3.35 3.74 2 0.4 4-1.58 4-1.61a0.45 0.45 0 0 1 0.64 0.62 6.48 6.48 0 0 1-4.09 1.93z" fill="#231f20"/>
<path d="m187.67 53.52a0.45 0.45 0 0 1-0.42-0.3c-0.16-0.48-0.38-0.74-0.64-0.8-0.57-0.11-1.42 0.67-1.67 0.95a0.44 0.44 0 0 1-0.62 0 0.45 0.45 0 0 1 0-0.63c0.13-0.15 1.33-1.46 2.5-1.22a1.82 1.82 0 0 1 1.31 1.37 0.44 0.44 0 0 1-0.28 0.56 0.32 0.32 0 0 1-0.18 0.07z" fill="#231f20"/>
<path d="m194.7 54.6a0.43 0.43 0 0 1-0.41-0.29c-0.12-0.31-0.55-1.17-1.17-1.37s-1 0.77-1 0.78a0.45 0.45 0 0 1-0.58 0.25 0.45 0.45 0 0 1-0.24-0.58c0.24-0.6 1-1.64 2.05-1.29a3.39 3.39 0 0 1 1.72 1.9 0.45 0.45 0 0 1-0.27 0.57 0.4 0.4 0 0 1-0.1 0.03z" fill="#231f20"/>
<path d="m168.16 117.89-33.39-3.45s-12.97 22.56-10.57 28.46 17.06 11.66 27.39 8.78 16.57-33.79 16.57-33.79z" fill="#fff"/>
<path d="m145.52 152.91c-9.41 0-19.66-4.75-21.74-9.84-2.46-6 10.06-27.92 10.6-28.85a0.45 0.45 0 0 1 0.44-0.23l33.39 3.45a0.48 0.48 0 0 1 0.32 0.18 0.5 0.5 0 0 1 0.08 0.36c-0.26 1.27-6.42 31.21-16.9 34.14a23.29 23.29 0 0 1-6.19 0.79zm-10.5-38c-1.42 2.51-12.55 22.51-10.39 27.8 2.36 5.8 16.91 11.28 26.83 8.51 9.24-2.59 15.29-29 16.15-32.95z" fill="#231f20"/>
<path d="m142.91 130.35a10.32 10.32 0 0 1-1.48-0.1c-3.75-0.53-6.17-3.48-7-8.51a28 28 0 0 1-0.12-7.36 0.45 0.45 0 0 1 0.51-0.39 0.48 0.48 0 0 1 0.4 0.52c0 0.13-1.76 13.69 6.33 14.83 8.35 1.18 21.85-9.57 22-9.67a0.46 0.46 0 1 1 0.57 0.71c-0.53 0.43-12.52 9.97-21.21 9.97z" fill="#231f20"/>
<path d="m143.42 123.25a1.28 1.28 0 0 0 0 2.56 1.28 1.28 0 0 0 0-2.56z" fill="#231f20"/>
<path d="m166.48 118.39a0.5 0.5 0 0 1-0.44-0.25 0.52 0.52 0 0 1 0.19-0.69c0.27-0.14 26.65-15.22 31.12-38.92a0.50804 0.50804 0 0 1 1 0.18c-4.56 24.16-31.34 39.46-31.61 39.62a0.5 0.5 0 0 1-0.26 0.06z" fill="#231f20"/>
</g>
<g transform="matrix(.38382 0 0 .38382 53.673 17.718)">
<path d="m169.26 36.888c0 3.6171-0.95342 7.1851-2.7718 10.321-1.8086 3.1453-4.4133 5.75-7.5586 7.5586-3.1355 1.8184-6.7035 2.7718-10.321 2.7718-3.6269 0-7.1949-0.95343-10.33-2.7718-3.1453-1.8086-5.75-4.4133-7.5586-7.5586-1.8184-3.1355-2.7718-6.7034-2.7718-10.321 0-3.6269 0.95342-7.1949 2.7718-10.33 1.8086-3.1453 4.4133-5.75 7.5586-7.5586 3.1355-1.8184 6.7035-2.7718 10.321-2.7718 3.6269 0 7.1949 0.95342 10.33 2.7718 3.1453 1.8086 5.75 4.4133 7.5586 7.5586 1.8184 3.1355 2.7718 6.7034 2.7718 10.321z" fill="#fff" fill-rule="evenodd"/>
<path d="m169.26 36.888c0 3.6171-0.95342 7.1851-2.7718 10.321-1.8086 3.1453-4.4133 5.75-7.5586 7.5586-3.1355 1.8184-6.7035 2.7718-10.321 2.7718-3.6269 0-7.1949-0.95343-10.33-2.7718-3.1453-1.8086-5.75-4.4133-7.5586-7.5586-1.8184-3.1355-2.7718-6.7034-2.7718-10.321 0-3.6269 0.95342-7.1949 2.7718-10.33 1.8086-3.1453 4.4133-5.75 7.5586-7.5586 3.1355-1.8184 6.7035-2.7718 10.321-2.7718 3.6269 0 7.1949 0.95342 10.33 2.7718 3.1453 1.8086 5.75 4.4133 7.5586 7.5586 1.8184 3.1355 2.7718 6.7034 2.7718 10.321v0.01" fill="none" stroke="#3465a4" stroke-linecap="round" stroke-linejoin="round" stroke-width=".0098291px"/>
<path d="m148.6 54.934c-11.618-19.324-0.14744-36.545 0.14744-36.545 0 0 11.195 18.341-0.14744 36.545z" fill="#80bb27" fill-rule="evenodd"/>
<path d="m146.49 55.082c-16.1-2.8013-15.962-18.204-15.962-18.204s12.041 2.9389 15.962 17.918z" fill="#80bb27" fill-rule="evenodd"/>
<path d="m150.7 54.934c3.4992-14.282 15.687-18.204 15.825-18.056 0 0 0.20641 6.3005-4.0594 11.618-6.1628 6.7231-11.716 6.4381-11.765 6.4381z" fill="#80bb27" fill-rule="evenodd"/>
<path d="m169.61 36.888c0 3.6859-0.97308 7.303-2.8111 10.497-1.8479 3.1945-4.5017 5.8483-7.6962 7.6962-3.1945 1.838-6.8116 2.8111-10.497 2.8111-3.6958 0-7.3129-0.97308-10.507-2.8111-3.1945-1.8479-5.8483-4.5017-7.6962-7.6962-1.838-3.1945-2.8111-6.8116-2.8111-10.497 0-3.6957 0.97308-7.3129 2.8111-10.507 1.8479-3.1945 4.5017-5.8483 7.6962-7.6962 3.1945-1.838 6.8116-2.8111 10.497-2.8111 3.6958 0 7.3129 0.97308 10.507 2.8111 3.1945 1.8479 5.8483 4.5017 7.6962 7.6962 1.838 3.1945 2.8111 6.8116 2.8111 10.497zm-1.2581 0c0 3.4598-0.91411 6.8706-2.644 9.8684-1.7398 3.0077-4.2265 5.4945-7.2342 7.2342-2.9979 1.7299-6.4086 2.644-9.8684 2.644-3.4697 0-6.8804-0.91411-9.8783-2.644-3.0077-1.7398-5.4945-4.2265-7.2342-7.2342-1.7299-2.9979-2.644-6.4086-2.644-9.8684 0-3.4697 0.9141-6.8804 2.644-9.8782 1.7398-3.0077 4.2265-5.4945 7.2342-7.2342 2.9979-1.7299 6.4086-2.644 9.8684-2.644 3.4697 0 6.8804 0.91411 9.8783 2.644 3.0077 1.7398 5.4945 4.2265 7.2342 7.2342 1.7299 2.9979 2.644 6.4086 2.644 9.8684z" fill="#80bb27" fill-rule="evenodd"/>
</g>
</g>
</svg>
