<?xml version="1.0"?>
<svg xmlns="http://www.w3.org/2000/svg" xmlns:xlink="http://www.w3.org/1999/xlink" xmlns:svgjs="http://svgjs.com/svgjs" version="1.1" width="512" height="512" x="0" y="0" viewBox="0 0 512 512" style="enable-background:new 0 0 512 512" xml:space="preserve" class=""><g><g xmlns="http://www.w3.org/2000/svg"><g><path d="m210.794 501.996h-106.595l-24.107-24.042v-349.319h83.454v58.316h46.225v-58.316h92.457v58.316h46.225v-58.316h83.454v349.319l-24.107 24.042h-106.594" fill="#ffffff" data-original="#fff7bf" style="" class=""/><g><path d="m337.947 10h-163.894l-10.506 46.1h184.907z" fill="#ffffff" data-original="#fff7bf" style="" class=""/><g fill="#fff2a0"><path d="m163.547 56.1h46.224v130.851h-46.224z" fill="#cccccc" data-original="#fff2a0" style="" class=""/><path d="m302.229 56.1h46.225v130.851h-46.225z" fill="#cccccc" data-original="#fff2a0" style="" class=""/></g></g><g><g><g><path d="m264.793 406.832c9.01-16.845 21.706-46.584 21.706-80.485 0-52.534-30.499-95.12-30.499-95.12s-30.499 42.587-30.499 95.12c0 33.902 12.696 63.641 21.706 80.485z" fill="#80bb27" data-original="#b8ecbc" style="" class=""/></g><g fill="#d0f2d2"><path d="m211.035 406.832h45.331c-6.26-19.094-16.566-42.423-33.127-62.112-34.938-41.537-84.484-51.146-84.484-51.146s7.099 57.736 42.037 99.272c.043.051.086.103.13.154 7.463 8.848 18.539 13.832 30.113 13.832z" fill="#80bb27" data-original="#d0f2d2" style="" class=""/><path d="m300.965 406.832c11.575 0 22.651-4.984 30.115-13.831.043-.051.086-.103.13-.154 34.938-41.537 42.037-99.272 42.037-99.272s-49.547 9.609-84.484 51.146c-16.561 19.689-26.867 43.018-33.127 62.112h45.329z" fill="#80bb27" data-original="#d0f2d2" style="" class=""/></g></g></g></g><g><g><path d="m431.908 118.636h-73.455v-62.508c0-.009.039-1.227-.29-2.428l-10.466-45.922c-1.037-4.55-5.083-7.778-9.75-7.778h-163.894c-4.667 0-8.713 3.228-9.75 7.778l-10.465 45.922c-.333 1.286-.29 2.428-.29 2.428v62.508h-73.456c-5.523 0-10 4.478-10 10v349.318c0 2.657 1.057 5.204 2.938 7.081l24.108 24.042c1.875 1.869 4.414 2.919 7.062 2.919h106.594c5.523 0 10-4.478 10-10s-4.477-10-10-10h-102.46l-18.242-18.192v-335.168h63.455v48.315c0 5.522 4.477 10 10 10h46.225c5.523 0 10-4.478 10-10v-48.315h72.457v48.315c0 5.522 4.477 10 10 10h46.225c5.523 0 10-4.478 10-10v-48.315h63.455v335.168l-18.244 18.192h-102.458c-5.523 0-10 4.478-10 10s4.477 10 10 10h106.594c2.647 0 5.187-1.05 7.062-2.919l24.108-24.042c1.881-1.877 2.938-4.424 2.938-7.081v-349.318c-.001-5.523-4.478-10-10.001-10zm-249.878-98.636h147.94l5.948 26.1h-159.836zm-8.483 156.951v-110.852h26.225v62.499.038 48.315zm46.224-58.315v-52.537h72.457v52.537zm118.682 58.315h-26.225v-110.852h26.225z" fill="#000000" data-original="#000000" style="" class=""/><path d="m261.73 493.68c-3.578-2.381-8.395-2.181-11.765.486-3.321 2.628-4.617 7.218-3.19 11.199 1.371 3.823 5.024 6.5 9.09 6.631 4.12.132 7.973-2.382 9.555-6.175 1.821-4.366.211-9.515-3.69-12.141z" fill="#000000" data-original="#000000" style="" class=""/><path d="m300.965 416.832c14.677 0 28.439-6.336 37.712-17.329l.114-.134c.002-.003.069-.082.071-.085 36.429-43.311 44.004-102.011 44.309-104.488.391-3.177-.763-6.349-3.103-8.532-2.34-2.184-5.584-3.11-8.726-2.506-1.876.364-40.639 8.198-74.892 38.752-1.382-53.304-31.028-95.303-32.319-97.105-1.877-2.622-4.905-4.178-8.13-4.178s-6.252 1.556-8.13 4.178c-1.291 1.803-30.937 43.803-32.319 97.105-34.253-30.554-73.015-38.388-74.892-38.752-3.143-.606-6.387.322-8.726 2.506-2.34 2.184-3.494 5.355-3.103 8.532.305 2.478 7.88 61.179 44.309 104.488.002.003.069.082.071.085l.068.08c9.319 11.047 23.081 17.383 37.758 17.383zm59.403-109.035c-4.452 19.153-14.816 52.463-36.758 78.549l-.176.207c-5.51 6.533-13.701 10.279-22.471 10.279h-31.083c7.09-17.815 15.985-33.137 26.532-45.676 20.839-24.773 47.611-37.472 63.956-43.359zm-104.352-57.149c8.463 15.848 20.483 43.944 20.483 75.697 0 6.406-.498 13.011-1.48 19.662-7.148 9.671-13.503 20.524-19.019 32.474-5.517-11.95-11.871-22.803-19.019-32.474-.982-6.649-1.48-13.256-1.48-19.662 0-31.633 12.049-59.808 20.515-75.697zm-44.981 146.184c-8.77 0-16.96-3.746-22.533-10.353l-.059-.068c-21.92-26.062-32.325-59.469-36.8-78.648 16.309 5.847 43.006 18.504 63.941 43.395 10.547 12.539 19.442 27.86 26.532 45.676z" fill="#000000" data-original="#000000" style="" class=""/></g></g></g></g></svg>
