<?xml version="1.0" encoding="UTF-8"?>
<!DOCTYPE svg PUBLIC "-//W3C//DTD SVG 1.1//EN" "http://www.w3.org/Graphics/SVG/1.1/DTD/svg11.dtd">
<svg version="1.2" width="133.71mm" height="133.39mm" viewBox="2512 3728 13371 13339" preserveAspectRatio="xMidYMid" fill-rule="evenodd" stroke-width="28.222" stroke-linejoin="round" xmlns="http://www.w3.org/2000/svg" xmlns:ooo="http://xml.openoffice.org/svg/export" xmlns:xlink="http://www.w3.org/1999/xlink" xmlns:presentation="http://sun.com/xmlns/staroffice/presentation" xmlns:smil="http://www.w3.org/2001/SMIL20/" xmlns:anim="urn:oasis:names:tc:opendocument:xmlns:animation:1.0" xml:space="preserve">
 <defs class="EmbeddedBulletChars">
  <g id="bullet-char-template-57356" transform="scale(0.00048828125,-0.00048828125)">
   <path d="M 580,1141 L 1163,571 580,0 -4,571 580,1141 Z"/>
  </g>
  <g id="bullet-char-template-57354" transform="scale(0.00048828125,-0.00048828125)">
   <path d="M 8,1128 L 1137,1128 1137,0 8,0 8,1128 Z"/>
  </g>
  <g id="bullet-char-template-10146" transform="scale(0.00048828125,-0.00048828125)">
   <path d="M 174,0 L 602,739 174,1481 1456,739 174,0 Z M 1358,739 L 309,1346 659,739 1358,739 Z"/>
  </g>
  <g id="bullet-char-template-10132" transform="scale(0.00048828125,-0.00048828125)">
   <path d="M 2015,739 L 1276,0 717,0 1260,543 174,543 174,936 1260,936 717,1481 1274,1481 2015,739 Z"/>
  </g>
  <g id="bullet-char-template-10007" transform="scale(0.00048828125,-0.00048828125)">
   <path d="M 0,-2 C -7,14 -16,27 -25,37 L 356,567 C 262,823 215,952 215,954 215,979 228,992 255,992 264,992 276,990 289,987 310,991 331,999 354,1012 L 381,999 492,748 772,1049 836,1024 860,1049 C 881,1039 901,1025 922,1006 886,937 835,863 770,784 769,783 710,716 594,584 L 774,223 C 774,196 753,168 711,139 L 727,119 C 717,90 699,76 672,76 641,76 570,178 457,381 L 164,-76 C 142,-110 111,-127 72,-127 30,-127 9,-110 8,-76 1,-67 -2,-52 -2,-32 -2,-23 -1,-13 0,-2 Z"/>
  </g>
  <g id="bullet-char-template-10004" transform="scale(0.00048828125,-0.00048828125)">
   <path d="M 285,-33 C 182,-33 111,30 74,156 52,228 41,333 41,471 41,549 55,616 82,672 116,743 169,778 240,778 293,778 328,747 346,684 L 369,508 C 377,444 397,411 428,410 L 1163,1116 C 1174,1127 1196,1133 1229,1133 1271,1133 1292,1118 1292,1087 L 1292,965 C 1292,929 1282,901 1262,881 L 442,47 C 390,-6 338,-33 285,-33 Z"/>
  </g>
  <g id="bullet-char-template-9679" transform="scale(0.00048828125,-0.00048828125)">
   <path d="M 813,0 C 632,0 489,54 383,161 276,268 223,411 223,592 223,773 276,916 383,1023 489,1130 632,1184 813,1184 992,1184 1136,1130 1245,1023 1353,916 1407,772 1407,592 1407,412 1353,268 1245,161 1136,54 992,0 813,0 Z"/>
  </g>
  <g id="bullet-char-template-8226" transform="scale(0.00048828125,-0.00048828125)">
   <path d="M 346,457 C 273,457 209,483 155,535 101,586 74,649 74,723 74,796 101,859 155,911 209,963 273,989 346,989 419,989 480,963 531,910 582,859 608,796 608,723 608,648 583,586 532,535 482,483 420,457 346,457 Z"/>
  </g>
  <g id="bullet-char-template-8211" transform="scale(0.00048828125,-0.00048828125)">
   <path d="M -4,459 L 1135,459 1135,606 -4,606 -4,459 Z"/>
  </g>
  <g id="bullet-char-template-61548" transform="scale(0.00048828125,-0.00048828125)">
   <path d="M 173,740 C 173,903 231,1043 346,1159 462,1274 601,1332 765,1332 928,1332 1067,1274 1183,1159 1299,1043 1357,903 1357,740 1357,577 1299,437 1183,322 1067,206 928,148 765,148 601,148 462,206 346,322 231,437 173,577 173,740 Z"/>
  </g>
 </defs>
 <g class="Page">
  <g class="com.sun.star.drawing.PolyPolygonShape">
   <g id="id3">
    <rect class="BoundingBox" stroke="none" fill="none" x="3148" y="3728" width="12089" height="10411"/>
    <path fill="rgb(208,124,63)" stroke="none" d="M 3149,3729 L 15235,3729 15235,14137 3159,14137 3149,3729 Z"/>
   </g>
  </g>
  <g class="com.sun.star.drawing.ClosedBezierShape">
   <g id="id4">
    <rect class="BoundingBox" stroke="none" fill="none" x="2523" y="3728" width="13339" height="13339"/>
    <path fill="rgb(238,198,93)" stroke="none" d="M 2524,6230 L 2524,16304 C 2524,16794 2920,17065 3409,17065 L 14974,17065 C 15464,17065 15860,16794 15860,16304 L 15860,6230 C 15860,6240 2534,6230 2524,6230 Z M 4399,4573 L 3149,3729 3149,5813 4399,5813 4399,4573 Z M 15235,3729 L 13984,4562 13984,5813 15235,5813 15235,3729 Z"/>
   </g>
  </g>
  <g class="com.sun.star.drawing.PolyPolygonShape">
   <g id="id5">
    <rect class="BoundingBox" stroke="none" fill="none" x="2512" y="4561" width="13371" height="1670"/>
    <path fill="rgb(220,163,79)" stroke="none" d="M 4399,6230 L 4399,4562 2513,6230 4399,6230 Z M 13984,4562 L 13984,6230 15881,6230 13984,4562 Z"/>
   </g>
  </g>
  <g class="com.sun.star.drawing.ClosedBezierShape">
   <g id="id6">
    <rect class="BoundingBox" stroke="none" fill="none" x="4909" y="8625" width="8129" height="1148"/>
    <path fill="rgb(208,124,63)" stroke="none" d="M 5483,8626 C 5170,8626 4910,8886 4910,9199 4910,9511 5160,9772 5483,9772 5795,9772 6056,9512 6056,9199 6066,8887 5806,8626 5483,8626 Z M 12463,8626 C 12151,8626 11890,8886 11890,9199 11890,9511 12140,9772 12463,9772 12776,9772 13036,9512 13036,9199 13047,8887 12786,8626 12463,8626 Z"/>
   </g>
  </g>
  <g class="Group">
   <g class="com.sun.star.drawing.ClosedBezierShape">
    <g id="id7">
     <rect class="BoundingBox" stroke="none" fill="none" x="8545" y="10742" width="1395" height="4960"/>
     <path fill="rgb(128,187,39)" stroke="none" d="M 9250,15701 C 7673,13079 9231,10742 9269,10742 9269,10742 10789,13231 9250,15701 Z"/>
    </g>
   </g>
   <g class="com.sun.star.drawing.ClosedBezierShape">
    <g id="id8">
     <rect class="BoundingBox" stroke="none" fill="none" x="6799" y="13250" width="2168" height="2471"/>
     <path fill="rgb(128,187,39)" stroke="none" d="M 8965,15720 C 6780,15340 6799,13250 6799,13250 6799,13250 8433,13649 8965,15682 L 8965,15720 Z"/>
    </g>
   </g>
   <g class="com.sun.star.drawing.ClosedBezierShape">
    <g id="id9">
     <rect class="BoundingBox" stroke="none" fill="none" x="9535" y="13249" width="2149" height="2454"/>
     <path fill="rgb(128,187,39)" stroke="none" d="M 9535,15701 C 10010,13763 11663,13231 11682,13250 11682,13250 11711,14105 11131,14827 10295,15739 9541,15701 9535,15701 Z"/>
    </g>
   </g>
   <g class="com.sun.star.drawing.CustomShape">
    <g id="id10">
     <rect class="BoundingBox" stroke="none" fill="none" x="6400" y="10400" width="5702" height="5702"/>
     <path fill="rgb(128,187,39)" stroke="none" d="M 12101,13251 C 12101,13751 11969,14242 11719,14676 11469,15109 11109,15469 10676,15719 10242,15969 9751,16101 9251,16101 8750,16101 8259,15969 7825,15719 7392,15469 7032,15109 6782,14676 6532,14242 6400,13751 6400,13251 6400,12750 6532,12259 6782,11825 7032,11392 7392,11032 7825,10782 8259,10532 8750,10400 9250,10400 9751,10400 10242,10532 10676,10782 11109,11032 11469,11392 11719,11825 11969,12259 12101,12750 12101,13250 L 12101,13251 Z M 11930,13251 C 11930,13721 11806,14183 11571,14590 11336,14998 10998,15336 10590,15571 10183,15806 9721,15930 9251,15930 8780,15930 8318,15806 7911,15571 7503,15336 7165,14998 6930,14590 6695,14183 6571,13721 6571,13251 6571,12780 6695,12318 6930,11911 7165,11503 7503,11165 7911,10930 8318,10695 8780,10571 9250,10571 9721,10571 10183,10695 10590,10930 10998,11165 11336,11503 11571,11911 11806,12318 11930,12780 11930,13250 L 11930,13251 Z"/>
    </g>
   </g>
  </g>
  <g class="Group">
   <g class="com.sun.star.drawing.ClosedBezierShape">
    <g id="id11">
     <rect class="BoundingBox" stroke="none" fill="none" x="5232" y="9042" width="7504" height="4378"/>
     <path fill="rgb(203,169,79)" stroke="none" d="M 8984,13418 C 6910,13418 5233,11584 5233,9324 5233,9168 5347,9043 5493,9043 5639,9043 5754,9168 5754,9324 5754,11272 7202,12845 8984,12845 10765,12845 12213,11261 12213,9324 12213,9168 12328,9043 12473,9043 12619,9043 12734,9168 12734,9324 12734,11584 11046,13418 8984,13418 Z"/>
    </g>
   </g>
   <g class="com.sun.star.drawing.ClosedBezierShape">
    <g id="id12">
     <rect class="BoundingBox" stroke="none" fill="none" x="5232" y="9042" width="7504" height="4055"/>
     <path fill="rgb(255,255,255)" stroke="none" d="M 8984,13095 C 6910,13095 5233,11397 5233,9303 5233,9158 5347,9043 5493,9043 5639,9043 5754,9158 5754,9303 5754,11105 7202,12574 8984,12574 10765,12574 12213,11105 12213,9303 12213,9158 12328,9043 12473,9043 12619,9043 12734,9158 12734,9303 12734,11397 11046,13095 8984,13095 Z"/>
    </g>
   </g>
  </g>
 </g>
</svg>