<?xml version="1.0" encoding="iso-8859-1"?>
<!-- Generator: Adobe Illustrator 19.0.0, SVG Export Plug-In . SVG Version: 6.00 Build 0)  -->
<svg version="1.1" id="Capa_1" xmlns="http://www.w3.org/2000/svg" xmlns:xlink="http://www.w3.org/1999/xlink" x="0px" y="0px"
	 viewBox="0 0 512.001 512.001" style="enable-background:new 0 0 512.001 512.001;" xml:space="preserve">
<path id="SVGCleanerId_0" style="fill:#FF4C4C;" d="M399.616,267.851l1.43-131.239c0.185-16.976-13.624-30.785-30.6-30.6
	l-131.239,1.43c-11.359,0.124-22.218,4.691-30.25,12.723L8.483,320.639c-11.31,11.31-11.31,29.646,0,40.955l136.981,136.981
	c11.31,11.31,29.646,11.31,40.955,0l200.474-200.474C394.925,290.069,399.493,279.21,399.616,267.851z M338.96,168.098
	c-8.414-8.414-8.414-22.055,0-30.469c8.414-8.414,22.055-8.414,30.469,0s8.414,22.055,0,30.469
	C361.016,176.512,347.373,176.512,338.96,168.098z"/>
<g>
	<path id="SVGCleanerId_0_1_" style="fill:#FF4C4C;" d="M399.616,267.851l1.43-131.239c0.185-16.976-13.624-30.785-30.6-30.6
		l-131.239,1.43c-11.359,0.124-22.218,4.691-30.25,12.723L8.483,320.639c-11.31,11.31-11.31,29.646,0,40.955l136.981,136.981
		c11.31,11.31,29.646,11.31,40.955,0l200.474-200.474C394.925,290.069,399.493,279.21,399.616,267.851z M338.96,168.098
		c-8.414-8.414-8.414-22.055,0-30.469c8.414-8.414,22.055-8.414,30.469,0s8.414,22.055,0,30.469
		C361.016,176.512,347.373,176.512,338.96,168.098z"/>
</g>
<path style="fill:#F33939;" d="M399.616,267.851l1.43-131.239c0.185-16.976-13.624-30.785-30.6-30.6l-1.325,0.014l-0.338,30.99
	c0.217,0.2,0.434,0.402,0.645,0.613c8.414,8.414,8.414,22.055,0,30.469c-0.323,0.323-0.656,0.629-0.994,0.927l-0.729,66.915
	c-0.124,11.359-4.691,22.218-12.723,30.25L154.508,466.665c-11.31,11.31-29.646,11.31-40.955,0l31.911,31.911
	c11.31,11.31,29.646,11.31,40.955,0l200.474-200.474C394.925,290.069,399.493,279.21,399.616,267.851z"/>
<path style="fill:#2C5871;" d="M371.176,167.454c-0.297,0-0.578-0.008-0.845-0.025c-2.008-0.129-5.861-0.832-9.114-4.085
	c-2.331-2.331-3.975-5.588-4.886-9.681c-3.34-15.001,3.256-43.533,16.805-72.688c15.24-32.797,35.529-57.951,55.669-69.01
	c8.483-4.66,17.056-7.022,25.479-7.022c13.524,0,26.503,6.123,38.579,18.199c23.911,23.91,21.096,46.251,14.524,60.782
	c-12.114,26.784-45.477,47.829-71.33,60.766C410.972,157.242,381.866,167.454,371.176,167.454z M454.038,19.825
	c-9.822,0-19.737,4.534-30.311,13.86c-16.452,14.51-32.739,40.191-43.568,68.698c-10.372,27.304-11.035,44.634-8.951,49.62
	l0.283,0.677l0.731-0.07c6.423-0.615,30.933-7.853,58.482-21.801c33.408-16.914,55.989-36.048,63.584-53.877
	c6.317-14.832,2.427-29.003-11.894-43.323C473.248,24.463,463.707,19.825,454.038,19.825z"/>
<path style="fill:#FFFFFF;" d="M306.805,276.13c-0.999,1-2.167,1.831-3.665,2.332L122.233,339.43
	c-3.331,1.333-7.329,0.001-10.161-2.831c-4.664-4.664-3.997-11.661-0.499-15.159c0.999-1,2.332-1.666,3.498-2.166l181.405-61.468
	c3.498-1.167,6.996,0,9.495,2.499C309.802,264.135,311.303,271.633,306.805,276.13z M162.714,221.659l24.154-24.154
	c15.658-15.659,31.815-11.162,45.309,2.332c13.326,13.326,17.825,29.485,2.167,45.144l-24.154,24.154
	c-15.659,15.658-31.818,11.16-45.145-2.167C151.551,253.475,147.055,237.317,162.714,221.659z M182.702,351.925l24.154-24.154
	c15.659-15.659,31.816-11.162,45.31,2.331c13.326,13.326,17.824,29.485,2.165,45.144L230.177,399.4
	c-15.825,15.825-31.816,11.161-45.143-2.166C171.542,383.741,166.878,367.75,182.702,351.925z M220.184,230.82
	c6.163-6.164,5.331-12.66-0.5-18.491c-5.83-5.83-12.16-6.496-18.323-0.333l-24.154,24.154c-6.164,6.163-5.498,12.493,0.332,18.323
	c5.831,5.831,12.327,6.663,18.491,0.5L220.184,230.82z M240.173,361.086c6.164-6.164,5.33-12.661-0.5-18.491
	s-12.159-6.496-18.323-0.333l-24.154,24.154c-6.163,6.163-5.497,12.493,0.333,18.323s12.327,6.663,18.49,0.5L240.173,361.086z"/>
<path style="fill:#F33939;" d="M379.429,107.268c-5.138,14.445-7.292,25.329-7.932,32.8c6.251,8.434,5.578,20.385-2.068,28.031
	c-0.075,0.075-0.158,0.137-0.234,0.211c12.843,13.356,31.587-7.407,31.587-7.407l0.265-24.291
	C401.197,122.76,392.03,111.021,379.429,107.268z"/>
<g>
</g>
<g>
</g>
<g>
</g>
<g>
</g>
<g>
</g>
<g>
</g>
<g>
</g>
<g>
</g>
<g>
</g>
<g>
</g>
<g>
</g>
<g>
</g>
<g>
</g>
<g>
</g>
<g>
</g>
</svg>
